SplineFontDB: 3.2
FontName: UnicodiaSengBuhan-Regular
FullName: Unicodia SengBuhan Regular
FamilyName: UnicodiaSengBuhan
Weight: Regular
Copyright: Copyright (c) 2020 by John M. Durdin. All rights reserved.
Version: 1.400
ItalicAngle: 0
UnderlinePosition: -272
UnderlineWidth: 41
Ascent: 1638
Descent: 410
InvalidEm: 0
sfntRevision: 0x00016666
LayerCount: 2
Layer: 0 1 "+BBcEMAQ0BD0EOAQ5 +BD8EOwQwBD0A" 1
Layer: 1 1 "+BB8ENQRABDUENAQ9BDgEOQAA +BD8EOwQwBD0A" 0
XUID: [1021 59 1751208496 6417]
StyleMap: 0x0040
FSType: 0
OS2Version: 4
OS2_WeightWidthSlopeOnly: 0
OS2_UseTypoMetrics: 0
CreationTime: 1638381350
ModificationTime: 1687637290
PfmFamily: 81
TTFWeight: 400
TTFWidth: 5
LineGap: 0
VLineGap: 0
Panose: 0 0 0 0 0 0 0 0 0 0
OS2TypoAscent: 1384
OS2TypoAOffset: 0
OS2TypoDescent: -408
OS2TypoDOffset: 0
OS2TypoLinegap: 0
OS2WinAscent: 2253
OS2WinAOffset: 0
OS2WinDescent: 983
OS2WinDOffset: 0
HheadAscent: 2253
HheadAOffset: 0
HheadDescent: -983
HheadDOffset: 0
OS2SubXSize: 1401
OS2SubYSize: 1300
OS2SubXOff: 0
OS2SubYOff: 240
OS2SupXSize: 1401
OS2SupYSize: 1300
OS2SupXOff: 0
OS2SupYOff: 750
OS2StrikeYSize: 102
OS2StrikeYPos: 649
OS2CapHeight: 1372
OS2XHeight: 1000
OS2Vendor: '    '
OS2CodePages: 00010001.00000000
OS2UnicodeRanges: 8300002f.1000200a.00000000.00000000
Lookup: 6 0 0 "'ccmp' +BBoEPgQ8BD8EPgQ3BDgERgQ4BE8A-/+BDQENQQ6BD4EPAQ/BD4ENwQ4BEYEOARP +BDMEOwQ4BEQEMAAA lookup 0" { "'ccmp' +BBoEPgQ8BD8EPgQ3BDgERgQ4BE8A-/+BDQENQQ6BD4EPAQ/BD4ENwQ4BEYEOARP +BDMEOwQ4BEQEMAAA lookup 0 subtable"  } ['calt' ('DFLT' <'dflt' > 'lao ' <'dflt' > 'latn' <'dflt' > ) 'ccmp' ('DFLT' <'dflt' > 'lao ' <'dflt' > 'latn' <'dflt' > ) ]
Lookup: 6 0 0 "'ccmp' +BBoEPgQ8BD8EPgQ3BDgERgQ4BE8A-/+BDQENQQ6BD4EPAQ/BD4ENwQ4BEYEOARP +BDMEOwQ4BEQEMAAA lookup 1" { "'ccmp' +BBoEPgQ8BD8EPgQ3BDgERgQ4BE8A-/+BDQENQQ6BD4EPAQ/BD4ENwQ4BEYEOARP +BDMEOwQ4BEQEMAAA lookup 1 subtable"  } ['calt' ('DFLT' <'dflt' > 'lao ' <'dflt' > 'latn' <'dflt' > ) 'ccmp' ('DFLT' <'dflt' > 'lao ' <'dflt' > 'latn' <'dflt' > ) ]

StartChar: .notdef
Encoding: 65536 -1 0
Width: 1634
GlyphClass: 1
Flags: W
HStem: 0 102<203 1432> 1536 102<203 1432>
VStem: 100 103<102 1536> 1432 102<102 1536>
LayerCount: 2
Fore
SplineSet
100 0 m 1,0,-1
 100 1638 l 1,1,-1
 1534 1638 l 1,2,-1
 1534 0 l 1,3,-1
 100 0 l 1,0,-1
1432 102 m 1,4,-1
 1432 1536 l 1,5,-1
 203 1536 l 1,6,-1
 203 102 l 1,7,-1
 1432 102 l 1,4,-1
EndSplineSet
EndChar

StartChar: uni001F
Encoding: 31 31 4
Width: 1000
GlyphClass: 1
Flags: W
LayerCount: 2
Fore
SplineSet
100 660 m 1,0,-1
 900 660 l 1,1,-1
 900 535 l 1,2,-1
 100 535 l 1,3,-1
 100 660 l 1,0,-1
EndSplineSet
EndChar

StartChar: exclam
Encoding: 33 33 5
Width: 356
GlyphClass: 1
Flags: W
LayerCount: 2
Fore
SplineSet
143 307 m 1,0,1
 110 687 110 687 110 1100 c 2,2,-1
 110 1229 l 1,3,-1
 245 1229 l 1,4,-1
 245 1100 l 2,5,6
 245 676 245 676 213 307 c 1,7,-1
 143 307 l 1,0,1
256 0 m 1,8,-1
 100 0 l 1,9,-1
 100 160 l 1,10,-1
 256 160 l 1,11,-1
 256 0 l 1,8,-1
EndSplineSet
EndChar

StartChar: quotedbl
Encoding: 34 34 6
Width: 620
GlyphClass: 1
Flags: W
LayerCount: 2
Fore
SplineSet
412 950 m 1,0,1
 380 1096 380 1096 380 1216 c 128,-1,2
 380 1336 380 1336 383 1372 c 1,3,-1
 517 1372 l 1,4,5
 520 1336 520 1336 520 1216 c 128,-1,6
 520 1096 520 1096 488 950 c 1,7,-1
 412 950 l 1,0,1
132 950 m 1,8,9
 100 1096 100 1096 100 1216 c 128,-1,10
 100 1336 100 1336 103 1372 c 1,11,-1
 237 1372 l 1,12,13
 240 1336 240 1336 240 1216 c 128,-1,14
 240 1096 240 1096 208 950 c 1,15,-1
 132 950 l 1,8,9
EndSplineSet
EndChar

StartChar: numbersign
Encoding: 35 35 7
Width: 1100
GlyphClass: 1
Flags: W
LayerCount: 2
Fore
SplineSet
1000 359 m 1,0,-1
 749 359 l 1,1,-1
 677 0 l 1,2,-1
 571 0 l 1,3,-1
 639 359 l 1,4,-1
 362 359 l 1,5,-1
 294 0 l 1,6,-1
 184 0 l 1,7,-1
 252 359 l 1,8,-1
 100 359 l 1,9,-1
 100 470 l 1,10,-1
 272 470 l 1,11,-1
 332 783 l 1,12,-1
 100 783 l 1,13,-1
 100 895 l 1,14,-1
 358 895 l 1,15,-1
 426 1229 l 1,16,-1
 537 1229 l 1,17,-1
 468 895 l 1,18,-1
 745 895 l 1,19,-1
 813 1229 l 1,20,-1
 926 1229 l 1,21,-1
 856 895 l 1,22,-1
 1000 895 l 1,23,-1
 1000 783 l 1,24,-1
 831 783 l 1,25,-1
 770 470 l 1,26,-1
 1000 470 l 1,27,-1
 1000 359 l 1,0,-1
720 783 m 1,28,-1
 444 783 l 1,29,-1
 383 470 l 1,30,-1
 659 470 l 1,31,-1
 720 783 l 1,28,-1
EndSplineSet
EndChar

StartChar: dollar
Encoding: 36 36 8
Width: 977
GlyphClass: 1
Flags: W
LayerCount: 2
Fore
SplineSet
120 918 m 0,0,1
 120 1054 120 1054 216 1150.5 c 128,-1,2
 312 1247 312 1247 447 1249 c 1,3,-1
 447 1322 l 1,4,-1
 549 1322 l 1,5,-1
 549 1249 l 1,6,7
 687 1247 687 1247 760 1176 c 128,-1,8
 833 1105 833 1105 860 965 c 1,9,-1
 735 946 l 1,10,11
 721.372288314 1033.60671798 721.372288314 1033.60671798 695.186144157 1068.30335899 c 0,12,13
 650.879669681 1127.00943767 650.879669681 1127.00943767 549 1135 c 1,14,-1
 549 682 l 1,15,16
 715 619 715 619 796 537 c 128,-1,17
 877 455 877 455 877 326 c 0,18,19
 877 100.433070866 877 100.433070866 696.5 18 c 0,20,21
 633 -11 633 -11 549 -16 c 1,22,-1
 549 -173 l 1,23,-1
 447 -173 l 1,24,-1
 446 -17 l 1,25,26
 155 -13 155 -13 100 331 c 1,27,-1
 217 357 l 1,28,29
 245 101 245 101 447 94 c 1,30,-1
 447 590 l 1,31,32
 226.414708112 647.188779378 226.414708112 647.188779378 149.5 794.5 c 0,33,34
 120 851 120 851 120 918 c 0,0,1
447 1134 m 1,35,36
 364 1128 364 1128 302.5 1065 c 128,-1,37
 241 1002 241 1002 241 922 c 128,-1,38
 241 842 241 842 301 790.5 c 128,-1,39
 361 739 361 739 447 713 c 1,40,-1
 447 1134 l 1,35,36
549 96 m 1,41,42
 634 100 634 100 696 166.5 c 128,-1,43
 758 233 758 233 758 318.5 c 128,-1,44
 758 404 758 404 699 469 c 128,-1,45
 640 534 640 534 549 564 c 1,46,-1
 549 96 l 1,41,42
EndSplineSet
EndChar

StartChar: percent
Encoding: 37 37 9
Width: 1517
GlyphClass: 1
Flags: W
LayerCount: 2
Fore
SplineSet
100 912 m 0,0,1
 100 1246 100 1246 351 1246 c 256,2,3
 535.793103448 1246 535.793103448 1246 586 1064 c 0,4,5
 602 1006 602 1006 602 956.5 c 128,-1,6
 602 907 602 907 599.927469136 865.549382716 c 0,7,8
 597.854938272 824.098765432 597.854938272 824.098765432 579.5 770 c 0,9,10
 523.857142857 606 523.857142857 606 345.478571429 606 c 128,-1,11
 167.1 606 167.1 606 116.5 790 c 0,12,13
 100 850 100 850 100 912 c 0,0,1
1160 1229 m 1,14,-1
 497 0 l 1,15,-1
 356 0 l 1,16,-1
 1020 1229 l 1,17,-1
 1160 1229 l 1,14,-1
351 701 m 256,18,19
 480 701 480 701 480 926 c 128,-1,20
 480 1151 480 1151 351 1151 c 128,-1,21
 222 1151 222 1151 222 926 c 128,-1,22
 222 701 222 701 351 701 c 256,18,19
915 291 m 0,23,24
 915 625 915 625 1166 625 c 256,25,26
 1350.79310345 625 1350.79310345 625 1401 443 c 0,27,28
 1417 385 1417 385 1417 335.5 c 128,-1,29
 1417 286 1417 286 1414.92746914 244.549382716 c 0,30,31
 1412.85493827 203.098765432 1412.85493827 203.098765432 1394.5 149 c 0,32,33
 1338.85714286 -15 1338.85714286 -15 1160.47857143 -15 c 128,-1,34
 982.1 -15 982.1 -15 931.5 169 c 0,35,36
 915 229 915 229 915 291 c 0,23,24
1166 80 m 256,37,38
 1295 80 1295 80 1295 305 c 128,-1,39
 1295 530 1295 530 1166 530 c 128,-1,40
 1037 530 1037 530 1037 305 c 128,-1,41
 1037 80 1037 80 1166 80 c 256,37,38
EndSplineSet
EndChar

StartChar: ampersand
Encoding: 38 38 10
Width: 1204
GlyphClass: 1
Flags: W
LayerCount: 2
Fore
SplineSet
1025 2 m 1,0,1
 979.909921671 34.6514360313 979.909921671 34.6514360313 848 164 c 1,2,3
 780 85 780 85 681.5 34 c 128,-1,4
 583 -17 583 -17 471 -17 c 0,5,6
 318 -17 318 -17 209 82 c 128,-1,7
 100 181 100 181 100 331 c 0,8,9
 100 438 100 438 175.5 527.5 c 128,-1,10
 251 617 251 617 401 701 c 1,11,12
 358 749 358 749 333.5 780 c 128,-1,13
 309 811 309 811 283.5 864 c 128,-1,14
 258 917 258 917 258 963 c 0,15,16
 258 1094 258 1094 343 1166.5 c 128,-1,17
 428 1239 428 1239 548.5 1239 c 128,-1,18
 669 1239 669 1239 748.5 1160.5 c 128,-1,19
 828 1082 828 1082 828 965 c 0,20,21
 828 820 828 820 582 675 c 1,22,23
 681 530 681 530 840 361 c 1,24,25
 866 394 866 394 881 455 c 128,-1,26
 896 516 896 516 896 560 c 1,27,-1
 1022 537 l 1,28,29
 995 366 995 366 921 267 c 1,30,31
 997 179 997 179 1104 92 c 1,32,-1
 1025 2 l 1,0,1
662.5 1076 m 128,-1,34
 620 1123 620 1123 552.5 1123 c 128,-1,35
 485 1123 485 1123 434 1075.5 c 128,-1,36
 383 1028 383 1028 383 961.220930233 c 0,37,38
 383 894.441860465 383 894.441860465 466.5 809 c 0,39,40
 488 787 488 787 507 765 c 1,41,42
 627 851 627 851 666 888 c 128,-1,43
 705 925 705 925 705 977 c 128,-1,33
 705 1029 705 1029 662.5 1076 c 128,-1,34
302.5 166 m 128,-1,45
 377 101 377 101 461.5 101 c 0,46,47
 624.631578947 101 624.631578947 101 766 259 c 1,48,49
 567 487 567 487 474 615 c 1,50,51
 337.74501992 543.466135458 337.74501992 543.466135458 282.87250996 476.399734396 c 0,52,53
 228 409.333333333 228 409.333333333 228 320.166666667 c 128,-1,44
 228 231 228 231 302.5 166 c 128,-1,45
EndSplineSet
EndChar

StartChar: quotesingle
Encoding: 39 39 11
Width: 340
GlyphClass: 1
Flags: W
LayerCount: 2
Fore
SplineSet
132 950 m 1,0,1
 100 1096 100 1096 100 1216 c 128,-1,2
 100 1336 100 1336 103 1372 c 1,3,-1
 237 1372 l 1,4,5
 240 1336 240 1336 240 1216 c 128,-1,6
 240 1096 240 1096 208 950 c 1,7,-1
 132 950 l 1,0,1
EndSplineSet
EndChar

StartChar: parenleft
Encoding: 40 40 12
Width: 608
GlyphClass: 1
Flags: W
LayerCount: 2
Fore
SplineSet
496 -132.5 m 0,0,1
 508 -149 508 -149 508 -169.5 c 128,-1,2
 508 -190 508 -190 492.5 -205.5 c 128,-1,3
 477 -221 477 -221 448.560606061 -221 c 128,-1,4
 420.121212121 -221 420.121212121 -221 378 -151.5 c 0,5,6
 368 -135 368 -135 360 -123 c 0,7,8
 100 267 100 267 100 635 c 128,-1,9
 100 1003 100 1003 360 1393 c 0,10,11
 400 1454 400 1454 417 1472.5 c 128,-1,12
 434 1491 434 1491 455.5 1491 c 128,-1,13
 477 1491 477 1491 492.5 1475.5 c 128,-1,14
 508 1460 508 1460 508 1444 c 128,-1,15
 508 1428 508 1428 450.084139265 1337.69052224 c 0,16,17
 392.16827853 1247.38104449 392.16827853 1247.38104449 324.5 1099 c 0,18,19
 224 878.626506024 224 878.626506024 224 616.863359289 c 128,-1,20
 224 355.100212554 224 355.100212554 374.944084295 63.030198805 c 0,21,22
 426.873817287 -37.4514987696 426.873817287 -37.4514987696 496 -132.5 c 0,0,1
EndSplineSet
EndChar

StartChar: parenright
Encoding: 41 41 13
Width: 558
GlyphClass: 1
Flags: W
LayerCount: 2
Fore
SplineSet
62 1402.5 m 0,0,1
 50 1419 50 1419 50 1439.5 c 128,-1,2
 50 1460 50 1460 65.5 1475.5 c 128,-1,3
 81 1491 81 1491 103 1491 c 0,4,5
 141 1491 141 1491 198 1393 c 1,6,7
 458 1003 458 1003 458 635 c 128,-1,8
 458 267 458 267 198 -123 c 1,9,10
 141 -221 141 -221 103 -221 c 0,11,12
 81 -221 81 -221 65.5 -205.5 c 128,-1,13
 50 -190 50 -190 50 -173.5 c 128,-1,14
 50 -157 50 -157 79.5 -112 c 128,-1,15
 109 -67 109 -67 150.5 5 c 128,-1,16
 192 77 192 77 233.5 167.5 c 128,-1,17
 275 258 275 258 304.5 383 c 128,-1,18
 334 508 334 508 334 645.965322845 c 0,19,20
 334 783.93064569 334 783.93064569 279.086793855 981.720981294 c 128,-1,21
 224.17358771 1179.5113169 224.17358771 1179.5113169 62 1402.5 c 0,0,1
EndSplineSet
EndChar

StartChar: asterisk
Encoding: 42 42 14
Width: 736
GlyphClass: 1
Flags: W
LayerCount: 2
Fore
SplineSet
324 1028 m 1,0,1
 317 1101 317 1101 317 1194 c 1,2,-1
 319 1223 l 1,3,-1
 319 1238 l 1,4,-1
 418 1238 l 1,5,-1
 418 1223 l 1,6,-1
 419 1194 l 1,7,8
 419 1101 419 1101 412 1028 c 1,9,10
 500 1080 500 1080 598 1112 c 1,11,12
 620 1071 620 1071 636 1013 c 1,13,14
 528 975 528 975 426 955 c 1,15,16
 426 955.472222222 426 955.472222222 456.5 920.736111111 c 128,-1,17
 487 886 487 886 521.465116279 847.11627907 c 0,18,19
 555.930232558 808.23255814 555.930232558 808.23255814 567 794 c 1,20,21
 534 760 534 760 482 730 c 1,22,23
 417 820 417 820 368 902 c 1,24,25
 319 820 319 820 254 730 c 1,26,27
 202 760 202 760 169 794 c 1,28,29
 180.069767442 808.23255814 180.069767442 808.23255814 214.534883721 847.11627907 c 128,-1,30
 249 886 249 886 267 906.5 c 128,-1,31
 285 927 285 927 310 955 c 1,32,33
 208 975 208 975 100 1013 c 1,34,35
 116 1071 116 1071 138 1112 c 1,36,37
 236 1080 236 1080 324 1028 c 1,0,1
EndSplineSet
EndChar

StartChar: plus
Encoding: 43 43 15
Width: 1000
GlyphClass: 1
Flags: W
LayerCount: 2
Fore
SplineSet
900 580 m 1,0,-1
 570 580 l 1,1,-1
 570 250 l 1,2,-1
 430 250 l 1,3,-1
 430 580 l 1,4,-1
 100 580 l 1,5,-1
 100 720 l 1,6,-1
 430 720 l 1,7,-1
 430 1050 l 1,8,-1
 570 1050 l 1,9,-1
 570 720 l 1,10,-1
 900 720 l 1,11,-1
 900 580 l 1,0,-1
EndSplineSet
EndChar

StartChar: comma
Encoding: 44 44 16
Width: 364
GlyphClass: 1
Flags: W
LayerCount: 2
Fore
SplineSet
264 2 m 2,0,1
 264 -86 264 -86 238 -140.5 c 128,-1,2
 212 -195 212 -195 135 -245 c 1,3,-1
 100 -189 l 1,4,5
 156 -159 156 -159 172 -118 c 128,-1,6
 188 -77 188 -77 190 0 c 1,7,-1
 108 0 l 1,8,-1
 108 160 l 1,9,-1
 264 160 l 1,10,-1
 264 2 l 2,0,1
EndSplineSet
EndChar

StartChar: hyphen
Encoding: 45 45 17
Width: 727
GlyphClass: 1
Flags: W
LayerCount: 2
Fore
SplineSet
100 660 m 1,0,-1
 627 660 l 1,1,-1
 627 535 l 1,2,-1
 100 535 l 1,3,-1
 100 660 l 1,0,-1
EndSplineSet
Substitution2: "+BBUENAQ4BD0EOARHBD0EMARP +BD8EPgQ0BEEEQgQwBD0EPgQyBDoEMAAA lookup 18 subtable" minus
EndChar

StartChar: period
Encoding: 46 46 18
Width: 356
GlyphClass: 1
Flags: W
LayerCount: 2
Fore
SplineSet
256 0 m 1,0,-1
 100 0 l 1,1,-1
 100 160 l 1,2,-1
 256 160 l 1,3,-1
 256 0 l 1,0,-1
EndSplineSet
EndChar

StartChar: slash
Encoding: 47 47 19
Width: 670
GlyphClass: 1
Flags: W
LayerCount: 2
Fore
SplineSet
570 1229 m 1,0,-1
 220 0 l 1,1,-1
 100 0 l 1,2,-1
 453 1229 l 1,3,-1
 570 1229 l 1,0,-1
EndSplineSet
EndChar

StartChar: zero
Encoding: 48 48 20
Width: 1071
GlyphClass: 1
Flags: W
LayerCount: 2
Fore
SplineSet
533 1388 m 0,0,1
 971 1388 971 1388 971 685 c 0,2,3
 971 374.671641791 971 374.671641791 885.5 207.5 c 0,4,5
 770.167938931 -18 770.167938931 -18 533 -18 c 0,6,7
 184.563758389 -18 184.563758389 -18 119.5 403.5 c 0,8,9
 74.5914277762 694.429446145 74.5914277762 694.429446145 122 957 c 0,10,11
 181.088091548 1284.25712242 181.088091548 1284.25712242 394.5 1364.5 c 0,12,13
 457 1388 457 1388 533 1388 c 0,0,1
533 1275 m 0,14,15
 251 1275 251 1275 251 685 c 0,16,17
 251 510.058823529 251 510.058823529 264 443.529411765 c 128,-1,18
 277 377 277 377 293.93216553 306.562191394 c 0,19,20
 310.86433106 236.124382789 310.86433106 236.124382789 371.320225232 165.062191394 c 128,-1,21
 431.776119403 94 431.776119403 94 533 94 c 0,22,23
 820 94 820 94 820 685 c 0,24,25
 820 884.272727273 820 884.272727273 802 963.636363636 c 0,26,27
 765.494309748 1124.59327066 765.494309748 1124.59327066 704.91382154 1199.79663533 c 128,-1,28
 644.333333333 1275 644.333333333 1275 533 1275 c 0,14,15
EndSplineSet
EndChar

StartChar: one
Encoding: 49 49 21
Width: 692
GlyphClass: 1
Flags: W
LayerCount: 2
Fore
SplineSet
100 1031 m 1,0,1
 200 1059 200 1059 333 1170 c 128,-1,2
 466 1281 466 1281 504 1372 c 1,3,-1
 592 1372 l 1,4,-1
 592 0 l 1,5,-1
 448 0 l 1,6,-1
 448 1106 l 1,7,8
 333 1021 333 1021 264 979.5 c 128,-1,9
 195 938 195 938 100 901 c 1,10,-1
 100 1031 l 1,0,1
EndSplineSet
EndChar

StartChar: two
Encoding: 50 50 22
Width: 1085
GlyphClass: 1
Flags: W
LayerCount: 2
Fore
SplineSet
985 1002 m 0,0,1
 985 844.279279279 985 844.279279279 872.207809182 709.13187947 c 0,2,3
 759.415618363 573.98447966 759.415618363 573.98447966 645.207809182 481.49223983 c 128,-1,4
 531 389 531 389 469.5 337.5 c 0,5,6
 327.390523691 218.497755611 327.390523691 218.497755611 298 134 c 1,7,-1
 985 134 l 1,8,-1
 985 0 l 1,9,-1
 100 0 l 1,10,11
 100 163.496183206 100 163.496183206 247.5 315.5 c 0,12,13
 313 383 313 383 392.5 449.5 c 128,-1,14
 472 516 472 516 551 581.5 c 128,-1,15
 630 647 630 647 695.5 712.5 c 0,16,17
 843 860 843 860 843 1017 c 0,18,19
 843 1124 843 1124 765 1201 c 128,-1,20
 687 1278 687 1278 572 1278 c 0,21,22
 389.892857143 1278 389.892857143 1278 310.5 1122 c 0,23,24
 282 1066 282 1066 273 992 c 1,25,-1
 129 1012 l 1,26,27
 151 1195 151 1195 271 1292.5 c 128,-1,28
 391 1390 391 1390 562.669491525 1390 c 128,-1,29
 734.338983051 1390 734.338983051 1390 849 1307.5 c 0,30,31
 985 1209.64634146 985 1209.64634146 985 1002 c 0,0,1
EndSplineSet
EndChar

StartChar: three
Encoding: 51 51 23
Width: 1076
GlyphClass: 1
Flags: W
LayerCount: 2
Fore
SplineSet
692 1196 m 128,-1,1
 619 1265 619 1265 514.5 1265 c 128,-1,2
 410 1265 410 1265 355 1209.5 c 128,-1,3
 300 1154 300 1154 255 1019 c 1,4,-1
 116 1045 l 1,5,6
 135.27607362 1126.38786639 135.27607362 1126.38786639 176.13803681 1193.1939332 c 128,-1,7
 217 1260 217 1260 258 1297 c 128,-1,8
 299 1334 299 1334 366 1361 c 128,-1,9
 433 1388 433 1388 526 1388 c 128,-1,10
 619 1388 619 1388 708 1345 c 128,-1,11
 797 1302 797 1302 852 1219.5 c 128,-1,12
 907 1137 907 1137 907 1030 c 0,13,14
 907 832 907 832 743 750 c 1,15,16
 839 705 839 705 907.5 619 c 128,-1,17
 976 533 976 533 976 410 c 128,-1,18
 976 287 976 287 910.5 188 c 128,-1,19
 845 89 845 89 737.5 35.5 c 128,-1,20
 630 -18 630 -18 490 -18 c 128,-1,21
 350 -18 350 -18 241 79 c 128,-1,22
 132 176 132 176 100 348 c 1,23,-1
 220 354 l 1,24,25
 241.753589891 272.918437679 241.753589891 272.918437679 287.376794945 213.95921884 c 0,26,27
 372.464285714 104 372.464285714 104 507.732142857 104 c 128,-1,28
 643 104 643 104 734.5 188.5 c 128,-1,29
 826 273 826 273 826 407 c 0,30,31
 826 606.75 826 606.75 654 660.5 c 0,32,33
 598 678 598 678 545 678 c 128,-1,34
 492 678 492 678 435 673 c 1,35,-1
 454 783 l 1,36,37
 631.293103448 783 631.293103448 783 718 890 c 0,38,39
 765 948 765 948 765 1037.5 c 128,-1,0
 765 1127 765 1127 692 1196 c 128,-1,1
EndSplineSet
EndChar

StartChar: four
Encoding: 52 52 24
Width: 1123
GlyphClass: 1
Flags: W
LayerCount: 2
Fore
SplineSet
1023 340 m 1,0,-1
 837 340 l 1,1,-1
 837 0 l 1,2,-1
 702 0 l 1,3,-1
 702 340 l 1,4,-1
 100 340 l 1,5,-1
 100 474 l 1,6,-1
 726 1372 l 1,7,-1
 837 1372 l 1,8,-1
 837 465 l 1,9,-1
 1023 465 l 1,10,-1
 1023 340 l 1,0,-1
702 1114 m 1,11,-1
 251 465 l 1,12,-1
 702 465 l 1,13,-1
 702 1114 l 1,11,-1
EndSplineSet
EndChar

StartChar: five
Encoding: 53 53 25
Width: 1076
GlyphClass: 1
Flags: W
LayerCount: 2
Fore
SplineSet
526 769 m 0,0,1
 428 769 428 769 362 741.5 c 128,-1,2
 296 714 296 714 247 640 c 1,3,-1
 116 659 l 1,4,-1
 253 1372 l 1,5,-1
 915 1372 l 1,6,-1
 915 1244 l 1,7,-1
 371 1244 l 1,8,9
 368 1229 368 1229 332.5 1058.5 c 128,-1,10
 297 888 297 888 285 827 c 1,11,12
 318 858 318 858 390 876.5 c 128,-1,13
 462 895 462 895 533 895 c 0,14,15
 720 895 720 895 848 763 c 128,-1,16
 976 631 976 631 976 439.5 c 128,-1,17
 976 248 976 248 841.5 115 c 128,-1,18
 707 -18 707 -18 499.055214724 -18 c 0,19,20
 291.110429448 -18 291.110429448 -18 169 137.5 c 0,21,22
 105 219 105 219 100 330 c 1,23,-1
 234 349 l 1,24,25
 254 238 254 238 330.5 170.5 c 128,-1,26
 407 103 407 103 530 103 c 128,-1,27
 653 103 653 103 743 203 c 128,-1,28
 833 303 833 303 833 441 c 128,-1,29
 833 579 833 579 748 674 c 128,-1,30
 663 769 663 769 526 769 c 0,0,1
EndSplineSet
EndChar

StartChar: six
Encoding: 54 54 26
Width: 1082
GlyphClass: 1
Flags: W
LayerCount: 2
Fore
SplineSet
835 1050 m 1,0,1
 788.513513514 1265 788.513513514 1265 570 1265 c 0,2,3
 486 1265 486 1265 420 1217 c 128,-1,4
 354 1169 354 1169 314 1086.5 c 0,5,6
 233.043575419 919.527374302 233.043575419 919.527374302 229 685 c 1,7,8
 293.866175834 832.423126895 293.866175834 832.423126895 448 877.5 c 0,9,10
 501 893 501 893 563 893 c 0,11,12
 682 893 682 893 779 828.5 c 128,-1,13
 876 764 876 764 929 660 c 128,-1,14
 982 556 982 556 982 436.5 c 128,-1,15
 982 317 982 317 929.5 213.5 c 128,-1,16
 877 110 877 110 780 46 c 128,-1,17
 683 -18 683 -18 563.5 -18 c 128,-1,18
 444 -18 444 -18 351.5 39.5 c 128,-1,19
 259 97 259 97 206 194.5 c 0,20,21
 100 389.5 100 389.5 100 653.641304348 c 128,-1,22
 100 917.782608696 100 917.782608696 186.209713024 1112.6915251 c 128,-1,23
 272.419426049 1307.6004415 272.419426049 1307.6004415 437 1366 c 0,24,25
 499 1388 499 1388 543 1388 c 128,-1,26
 587 1388 587 1388 605 1386.5 c 0,27,28
 750.636363636 1374.36363636 750.636363636 1374.36363636 859.878446115 1265.12155388 c 0,29,30
 925.80952381 1199.19047619 925.80952381 1199.19047619 959 1084 c 1,31,32
 904 1050 904 1050 835 1050 c 1,0,1
277 440 m 256,33,34
 277 309.571428571 277 309.571428571 352 207.785714286 c 128,-1,35
 427 106 427 106 565.909090909 106 c 128,-1,36
 704.818181818 106 704.818181818 106 771.409090909 210.642857143 c 128,-1,37
 838 315.285714286 838 315.285714286 838 444.142857143 c 128,-1,38
 838 573 838 573 760 670 c 128,-1,39
 682 767 682 767 558 767 c 128,-1,40
 434 767 434 767 355.5 669.5 c 128,-1,41
 277 572 277 572 277 440 c 256,33,34
EndSplineSet
EndChar

StartChar: seven
Encoding: 55 55 27
Width: 1064
GlyphClass: 1
Flags: W
LayerCount: 2
Fore
SplineSet
297 0 m 1,0,1
 336 607 336 607 785 1245 c 1,2,-1
 100 1245 l 1,3,-1
 100 1372 l 1,4,-1
 964 1372 l 1,5,-1
 964 1261 l 1,6,7
 768.326224139 1004.95878265 768.326224139 1004.95878265 603.159250107 646.919406683 c 0,8,9
 437.992276074 288.880030715 437.992276074 288.880030715 436 0 c 1,10,-1
 297 0 l 1,0,1
EndSplineSet
EndChar

StartChar: eight
Encoding: 56 56 28
Width: 1072
GlyphClass: 1
Flags: W
LayerCount: 2
Fore
SplineSet
914 1036 m 0,0,1
 914 936 914 936 855 855 c 128,-1,2
 796 774 796 774 707 737 c 1,3,4
 823 706 823 706 897.5 611.5 c 128,-1,5
 972 517 972 517 972 384 c 0,6,7
 972 201 972 201 846.5 91.5 c 128,-1,8
 721 -18 721 -18 536 -18 c 0,9,10
 417 -18 417 -18 318 31.5 c 128,-1,11
 219 81 219 81 159.5 174.5 c 128,-1,12
 100 268 100 268 100 397 c 128,-1,13
 100 526 100 526 179 615.5 c 128,-1,14
 258 705 258 705 370 737 c 1,15,16
 220.483613818 792.376439327 220.483613818 792.376439327 178 935 c 0,17,18
 164 982 164 982 164 1037 c 0,19,20
 164 1185 164 1185 274.5 1286.5 c 128,-1,21
 385 1388 385 1388 539.5 1388 c 128,-1,22
 694 1388 694 1388 804 1287.5 c 128,-1,23
 914 1187 914 1187 914 1036 c 0,0,1
371.5 871.5 m 128,-1,25
 439 802 439 802 535.5 802 c 128,-1,26
 632 802 632 802 702.5 869.5 c 128,-1,27
 773 937 773 937 773 1035 c 128,-1,28
 773 1133 773 1133 702.5 1198.5 c 128,-1,29
 632 1264 632 1264 537 1264 c 128,-1,30
 442 1264 442 1264 373 1198.5 c 128,-1,31
 304 1133 304 1133 304 1037 c 128,-1,24
 304 941 304 941 371.5 871.5 c 128,-1,25
330.5 179.5 m 128,-1,33
 411 106 411 106 537 106 c 128,-1,34
 663 106 663 106 745.5 183.5 c 128,-1,35
 828 261 828 261 828 383 c 128,-1,36
 828 505 828 505 744.5 583.5 c 128,-1,37
 661 662 661 662 538 662 c 128,-1,38
 415 662 415 662 332.5 582 c 128,-1,39
 250 502 250 502 250 377.5 c 128,-1,32
 250 253 250 253 330.5 179.5 c 128,-1,33
EndSplineSet
EndChar

StartChar: nine
Encoding: 57 57 29
Width: 1082
GlyphClass: 1
Flags: W
LayerCount: 2
Fore
SplineSet
856 685 m 1,0,1
 763.16 474 763.16 474 520 474 c 0,2,3
 399 474 399 474 301.5 538.5 c 128,-1,4
 204 603 204 603 152 706 c 128,-1,5
 100 809 100 809 100 929.5 c 128,-1,6
 100 1050 100 1050 153.5 1155 c 128,-1,7
 207 1260 207 1260 304 1324 c 128,-1,8
 401 1388 401 1388 509 1388 c 128,-1,9
 617 1388 617 1388 697 1348.5 c 0,10,11
 841.380293557 1277.21223006 841.380293557 1277.21223006 911.690146778 1102.92301644 c 128,-1,12
 982 928.633802817 982 928.633802817 982 682.858568075 c 128,-1,13
 982 437.083333333 982 437.083333333 885 235 c 0,14,15
 849 160 849 160 801 106.5 c 128,-1,16
 753 53 753 53 678 17.5 c 128,-1,17
 603 -18 603 -18 538.5 -18 c 128,-1,18
 474 -18 474 -18 438 -12.5 c 0,19,20
 343.688888889 1.90864197531 343.688888889 1.90864197531 255.609482038 70.4148473034 c 128,-1,21
 167.530075188 138.921052632 167.530075188 138.921052632 123 288 c 1,22,23
 179 316 179 316 250 316 c 1,24,25
 262.3115727 250.338278932 262.3115727 250.338278932 300.65578635 199.669139466 c 0,26,27
 373.054054054 104 373.054054054 104 502.788390663 104 c 128,-1,28
 632.522727273 104 632.522727273 104 710.5 198 c 0,29,30
 818.556142506 328.259459459 818.556142506 328.259459459 847.5 553 c 0,31,32
 856 619 856 619 856 685 c 1,0,1
808 932 m 0,33,34
 808 1119.96969697 808 1119.96969697 680 1215 c 0,35,36
 614 1264 614 1264 526 1264 c 128,-1,37
 438 1264 438 1264 372.5 1214 c 0,38,39
 245 1116.67175573 245 1116.67175573 245 927 c 0,40,41
 245 794 245 794 326.5 697.5 c 128,-1,42
 408 601 408 601 528.5 601 c 128,-1,43
 649 601 649 601 728.5 701.5 c 128,-1,44
 808 802 808 802 808 932 c 0,33,34
EndSplineSet
EndChar

StartChar: colon
Encoding: 58 58 30
Width: 354
GlyphClass: 1
Flags: W
LayerCount: 2
Fore
SplineSet
254 721 m 1,0,-1
 100 721 l 1,1,-1
 100 879 l 1,2,-1
 254 879 l 1,3,-1
 254 721 l 1,0,-1
254 0 m 1,4,-1
 100 0 l 1,5,-1
 100 160 l 1,6,-1
 254 160 l 1,7,-1
 254 0 l 1,4,-1
EndSplineSet
EndChar

StartChar: semicolon
Encoding: 59 59 31
Width: 364
GlyphClass: 1
Flags: W
LayerCount: 2
Fore
SplineSet
264 721 m 1,0,-1
 110 721 l 1,1,-1
 110 879 l 1,2,-1
 264 879 l 1,3,-1
 264 721 l 1,0,-1
264 2 m 2,4,5
 264 -86 264 -86 238 -140.5 c 128,-1,6
 212 -195 212 -195 135 -245 c 1,7,-1
 100 -189 l 1,8,9
 156 -159 156 -159 172 -118 c 128,-1,10
 188 -77 188 -77 190 0 c 1,11,-1
 108 0 l 1,12,-1
 108 160 l 1,13,-1
 264 160 l 1,14,-1
 264 2 l 2,4,5
EndSplineSet
EndChar

StartChar: less
Encoding: 60 60 32
Width: 994
GlyphClass: 1
Flags: W
LayerCount: 2
Fore
SplineSet
894 184 m 1,0,-1
 100 534 l 1,1,-1
 100 666 l 1,2,-1
 894 1006 l 1,3,-1
 894 869 l 1,4,-1
 252 598 l 1,5,-1
 894 312 l 1,6,-1
 894 184 l 1,0,-1
EndSplineSet
EndChar

StartChar: equal
Encoding: 61 61 33
Width: 987
GlyphClass: 1
Flags: W
LayerCount: 2
Fore
SplineSet
887 760 m 1,0,-1
 100 760 l 1,1,-1
 100 900 l 1,2,-1
 887 900 l 1,3,-1
 887 760 l 1,0,-1
887 400 m 1,4,-1
 100 400 l 1,5,-1
 100 540 l 1,6,-1
 887 540 l 1,7,-1
 887 400 l 1,4,-1
EndSplineSet
EndChar

StartChar: greater
Encoding: 62 62 34
Width: 993
GlyphClass: 1
Flags: W
LayerCount: 2
Fore
SplineSet
893 534 m 1,0,-1
 100 184 l 1,1,-1
 100 312 l 1,2,-1
 742 598 l 1,3,-1
 100 869 l 1,4,-1
 100 1006 l 1,5,-1
 893 666 l 1,6,-1
 893 534 l 1,0,-1
EndSplineSet
EndChar

StartChar: question
Encoding: 63 63 35
Width: 973
GlyphClass: 1
Flags: W
LayerCount: 2
Fore
SplineSet
483 1147 m 0,0,1
 322.219512195 1147 322.219512195 1147 253.5 986 c 0,2,3
 236 945 236 945 228 900 c 1,4,5
 153 900 153 900 100 922 c 1,6,7
 149.260794473 1060.30915371 149.260794473 1060.30915371 189.630397237 1115.65457686 c 128,-1,8
 230 1171 230 1171 268 1194 c 0,9,10
 348.956521739 1243 348.956521739 1243 492.541552009 1243 c 128,-1,11
 636.126582278 1243 636.126582278 1243 751 1160.5 c 0,12,13
 806 1121 806 1121 839.5 1057.5 c 128,-1,14
 873 994 873 994 873 924 c 128,-1,15
 873 854 873 854 850.145065398 789.244351962 c 0,16,17
 827.290130797 724.488703924 827.290130797 724.488703924 737.434206812 647.288543881 c 128,-1,18
 647.578282828 570.088383838 647.578282828 570.088383838 607.5 520.5 c 0,19,20
 540.929464732 438.133066533 540.929464732 438.133066533 539 305 c 1,21,-1
 426 305 l 1,22,23
 426 463.063829787 426 463.063829787 539 596.5 c 0,24,25
 586 652 586 652 632.5 702.5 c 0,26,27
 745 824.677419355 745 824.677419355 745 918.338709677 c 128,-1,28
 745 1012 745 1012 664.5 1079.5 c 128,-1,29
 584 1147 584 1147 483 1147 c 0,0,1
560 0 m 1,30,-1
 403 0 l 1,31,-1
 403 160 l 1,32,-1
 560 160 l 1,33,-1
 560 0 l 1,30,-1
EndSplineSet
EndChar

StartChar: at
Encoding: 64 64 36
Width: 1759
GlyphClass: 1
Flags: W
LayerCount: 2
Fore
SplineSet
704.5 -223.5 m 128,-1,1
 811 -246 811 -246 974.5 -246 c 128,-1,2
 1138 -246 1138 -246 1257 -196.5 c 128,-1,3
 1376 -147 1376 -147 1525 4 c 1,4,-1
 1659 4 l 1,5,6
 1428 -348 1428 -348 966.959302326 -348 c 0,7,8
 505.918604651 -348 505.918604651 -348 268 -89 c 0,9,10
 100 93.8860759494 100 93.8860759494 100 392 c 0,11,12
 100 560 100 560 159.5 716 c 128,-1,13
 219 872 219 872 322.5 990 c 128,-1,14
 426 1108 426 1108 577 1179 c 128,-1,15
 728 1250 728 1250 885 1250 c 128,-1,16
 1042 1250 1042 1250 1172 1204 c 128,-1,17
 1302 1158 1302 1158 1401.5 1075 c 128,-1,18
 1501 992 1501 992 1560.5 866 c 128,-1,19
 1620 740 1620 740 1620 581.188888889 c 0,20,21
 1620 422.377777778 1620 422.377777778 1524.50362402 261.09500946 c 0,22,23
 1429.00724804 99.8122411413 1429.00724804 99.8122411413 1285.5 34 c 0,24,25
 1207 -2 1207 -2 1119.76923077 -2 c 0,26,27
 1032.53846154 -2 1032.53846154 -2 990 77 c 0,28,29
 976 103 976 103 969 138 c 1,30,31
 857 -2 857 -2 713 -2 c 0,32,33
 642 -2 642 -2 584 33 c 128,-1,34
 526 68 526 68 491 123.5 c 0,35,36
 419 237.671428571 419 237.671428571 419 372.303663004 c 0,37,38
 419 506.935897436 419 506.935897436 502.800555298 656.272784442 c 0,39,40
 586.601110597 805.609671448 586.601110597 805.609671448 705 867.5 c 0,41,42
 771 902 771 902 840 902 c 0,43,44
 986 902 986 902 1098 745 c 1,45,-1
 1126 869 l 1,46,-1
 1261 869 l 1,47,-1
 1118 181 l 2,48,49
 1114 160 1114 160 1137.5 144 c 128,-1,50
 1161 128 1161 128 1184 128 c 0,51,52
 1251 128 1251 128 1314.5 179.5 c 128,-1,53
 1378 231 1378 231 1420 305.5 c 0,54,55
 1513 470.464285714 1513 470.464285714 1513 613.732142857 c 128,-1,56
 1513 757 1513 757 1424.5 884 c 128,-1,57
 1336 1011 1336 1011 1197.5 1078.5 c 128,-1,58
 1059 1146 1059 1146 906.5 1146 c 128,-1,59
 754 1146 754 1146 621.5 1085 c 128,-1,60
 489 1024 489 1024 398 922 c 128,-1,61
 307 820 307 820 255 684 c 128,-1,62
 203 548 203 548 203 407 c 128,-1,63
 203 266 203 266 241 157 c 128,-1,64
 279 48 279 48 345.5 -26 c 128,-1,65
 412 -100 412 -100 505 -150.5 c 128,-1,0
 598 -201 598 -201 704.5 -223.5 c 128,-1,1
746 106 m 256,66,67
 815 106 815 106 874 152 c 128,-1,68
 933 198 933 198 968.5 266.5 c 0,69,70
 1044 412.183098592 1044 412.183098592 1044 541 c 0,71,72
 1044 706.453333333 1044 706.453333333 942.5 766 c 0,73,74
 905 788 905 788 848 788 c 128,-1,75
 791 788 791 788 735.5 744 c 128,-1,76
 680 700 680 700 645 634.5 c 0,77,78
 569 492.271428571 569 492.271428571 569 385.148534799 c 0,79,80
 569 278.025641026 569 278.025641026 598.5 217.512820513 c 0,81,82
 652.8625 106 652.8625 106 746 106 c 256,66,67
EndSplineSet
EndChar

StartChar: A
Encoding: 65 65 37
Width: 1402
GlyphClass: 1
Flags: W
LayerCount: 2
Fore
SplineSet
100 0 m 1,0,-1
 606 1372 l 1,1,-1
 798 1372 l 1,2,-1
 1302 0 l 1,3,-1
 1146 0 l 1,4,-1
 992 420 l 1,5,-1
 407 420 l 1,6,-1
 256 0 l 1,7,-1
 100 0 l 1,0,-1
460 550 m 1,8,-1
 943 550 l 1,9,-1
 703 1216 l 1,10,-1
 460 550 l 1,8,-1
EndSplineSet
EndChar

StartChar: B
Encoding: 66 66 38
Width: 1207
GlyphClass: 1
Flags: W
LayerCount: 2
Fore
SplineSet
1107 386 m 0,0,1
 1107 213 1107 213 995.5 106.5 c 128,-1,2
 884 0 884 0 713 0 c 2,3,-1
 100 0 l 1,4,-1
 100 1372 l 1,5,-1
 687 1372 l 2,6,7
 837 1372 837 1372 949 1264 c 128,-1,8
 1061 1156 1061 1156 1061 1007 c 0,9,10
 1061 901 1061 901 1013 833.5 c 128,-1,11
 965 766 965 766 862 715 c 1,12,13
 986 670 986 670 1046.5 594 c 128,-1,14
 1107 518 1107 518 1107 386 c 0,0,1
841 838 m 128,-1,16
 911 903 911 903 911 1007.5 c 128,-1,17
 911 1112 911 1112 846.5 1177.5 c 128,-1,18
 782 1243 782 1243 677 1243 c 2,19,-1
 251 1243 l 1,20,-1
 251 773 l 1,21,-1
 667 773 l 2,22,15
 771 773 771 773 841 838 c 128,-1,16
886.5 205.5 m 128,-1,24
 956 282 956 282 956 393 c 128,-1,25
 956 504 956 504 881.5 574.5 c 128,-1,26
 807 645 807 645 687 645 c 2,27,-1
 251 645 l 1,28,-1
 251 129 l 1,29,-1
 707 129 l 2,30,23
 817 129 817 129 886.5 205.5 c 128,-1,24
EndSplineSet
EndChar

StartChar: C
Encoding: 67 67 39
Width: 1359
GlyphClass: 1
Flags: W
LayerCount: 2
Fore
SplineSet
116 474 m 128,-1,1
 100 564 100 564 100 652 c 128,-1,2
 100 740 100 740 106.5 805.5 c 0,3,4
 141.43905235 1157.57814291 141.43905235 1157.57814291 377.268172576 1308.65617306 c 0,5,6
 510.487804878 1394 510.487804878 1394 727 1394 c 0,7,8
 844 1394 844 1394 911.5 1371.5 c 0,9,10
 1045.09615385 1326.96794872 1045.09615385 1326.96794872 1131.7104187 1242.49230769 c 128,-1,11
 1218.32468354 1158.01666667 1218.32468354 1158.01666667 1259 1005 c 1,12,-1
 1121 973 l 1,13,14
 1037 1264 1037 1264 727 1264 c 0,15,16
 476.4921875 1264 476.4921875 1264 353.5 1091 c 0,17,18
 250 945.417582418 250 945.417582418 250 673 c 0,19,20
 250 220 250 220 572 128 c 0,21,22
 642 108 642 108 727 108 c 0,23,24
 1050 108 1050 108 1121 446 c 1,25,-1
 1259 417 l 1,26,27
 1216.12522046 198.728395062 1216.12522046 198.728395062 1080.5 85.5 c 0,28,29
 1026 40 1026 40 934 8 c 128,-1,30
 842 -24 842 -24 766 -24 c 128,-1,31
 690 -24 690 -24 657 -22 c 128,-1,32
 624 -20 624 -20 575 -12 c 128,-1,33
 526 -4 526 -4 483.5 10 c 128,-1,34
 441 24 441 24 391 50 c 128,-1,35
 341 76 341 76 301 111 c 128,-1,36
 261 146 261 146 222.5 199 c 128,-1,37
 184 252 184 252 158 318 c 128,-1,0
 132 384 132 384 116 474 c 128,-1,1
EndSplineSet
EndChar

StartChar: D
Encoding: 68 68 40
Width: 1299
GlyphClass: 1
Flags: W
LayerCount: 2
Fore
SplineSet
1186.5 850.5 m 0,0,1
 1199 770 1199 770 1199 706.5 c 128,-1,2
 1199 643 1199 643 1192.16513761 554.146788991 c 0,3,4
 1185.33027523 465.293577982 1185.33027523 465.293577982 1138.67544799 331.839072154 c 128,-1,5
 1092.02062075 198.384566327 1092.02062075 198.384566327 975.762998546 99.1922831633 c 128,-1,6
 859.505376344 1.04083408559e-17 859.505376344 1.04083408559e-17 658 0 c 2,7,-1
 100 0 l 1,8,-1
 100 1372 l 1,9,-1
 671 1372 l 2,10,11
 934.461538462 1372 934.461538462 1372 1080 1152 c 0,12,13
 1157.98924122 1034.10928652 1157.98924122 1034.10928652 1186.5 850.5 c 0,0,1
664 1243 m 2,14,-1
 250 1243 l 1,15,-1
 250 129 l 1,16,-1
 625 129 l 2,17,18
 825 129 825 129 936.5 275.5 c 128,-1,19
 1048 422 1048 422 1048 675.5 c 128,-1,20
 1048 929 1048 929 955.37 1086 c 128,-1,21
 862.74 1243 862.74 1243 664 1243 c 2,14,-1
EndSplineSet
EndChar

StartChar: E
Encoding: 69 69 41
Width: 1201
GlyphClass: 1
Flags: W
LayerCount: 2
Fore
SplineSet
1101 0 m 1,0,-1
 100 0 l 1,1,-1
 100 1372 l 1,2,-1
 1078 1372 l 1,3,-1
 1078 1243 l 1,4,-1
 251 1243 l 1,5,-1
 251 773 l 1,6,-1
 1009 773 l 1,7,-1
 1009 645 l 1,8,-1
 251 645 l 1,9,-1
 251 129 l 1,10,-1
 1101 129 l 1,11,-1
 1101 0 l 1,0,-1
EndSplineSet
EndChar

StartChar: F
Encoding: 70 70 42
Width: 1102
GlyphClass: 1
Flags: W
LayerCount: 2
Fore
SplineSet
1002 1243 m 1,0,-1
 251 1243 l 1,1,-1
 251 773 l 1,2,-1
 902 773 l 1,3,-1
 902 645 l 1,4,-1
 251 645 l 1,5,-1
 251 0 l 1,6,-1
 100 0 l 1,7,-1
 100 1372 l 1,8,-1
 1002 1372 l 1,9,-1
 1002 1243 l 1,0,-1
EndSplineSet
EndChar

StartChar: G
Encoding: 71 71 43
Width: 1426
GlyphClass: 1
Flags: W
LayerCount: 2
Fore
SplineSet
780.5 108 m 0,0,1
 887 108 887 108 994.5 145.5 c 128,-1,2
 1102 183 1102 183 1170 255 c 1,3,-1
 1170 564 l 1,4,-1
 812 564 l 1,5,-1
 812 693 l 1,6,-1
 1322 693 l 1,7,-1
 1322 190 l 1,8,9
 1090 -24 1090 -24 773 -24 c 0,10,11
 614 -24 614 -24 486 28 c 128,-1,12
 358 80 358 80 274 174 c 0,13,14
 100 368.714285714 100 368.714285714 100 686 c 0,15,16
 100 882.8080163 100 882.8080163 167.568265683 1027.42731365 c 0,17,18
 235.136531365 1172.04661099 235.136531365 1172.04661099 342.5 1256 c 0,19,20
 518.980769231 1394 518.980769231 1394 778 1394 c 0,21,22
 1075.52252252 1394 1075.52252252 1394 1221 1210.5 c 0,23,24
 1287.04505119 1127.19317406 1287.04505119 1127.19317406 1326 1006 c 1,25,-1
 1193 969 l 1,26,27
 1140 1125 1140 1125 1044 1194.5 c 128,-1,28
 948 1264 948 1264 773 1264 c 0,29,30
 527 1264 527 1264 389 1104.5 c 128,-1,31
 251 945 251 945 251 696.875 c 0,32,33
 251 448.75 251 448.75 365 292 c 0,34,35
 498.818181818 108 498.818181818 108 780.5 108 c 0,0,1
EndSplineSet
EndChar

StartChar: H
Encoding: 72 72 44
Width: 1256
GlyphClass: 1
Flags: W
LayerCount: 2
Fore
SplineSet
1156 0 m 1,0,-1
 1004 0 l 1,1,-1
 1004 645 l 1,2,-1
 251 645 l 1,3,-1
 251 0 l 1,4,-1
 100 0 l 1,5,-1
 100 1372 l 1,6,-1
 251 1372 l 1,7,-1
 251 773 l 1,8,-1
 1004 773 l 1,9,-1
 1004 1372 l 1,10,-1
 1156 1372 l 1,11,-1
 1156 0 l 1,0,-1
EndSplineSet
EndChar

StartChar: I
Encoding: 73 73 45
Width: 352
GlyphClass: 1
Flags: W
LayerCount: 2
Fore
SplineSet
252 0 m 1,0,-1
 100 0 l 1,1,-1
 100 1372 l 1,2,-1
 252 1372 l 1,3,-1
 252 0 l 1,0,-1
EndSplineSet
EndChar

StartChar: J
Encoding: 74 74 46
Width: 941
GlyphClass: 1
Flags: W
LayerCount: 2
Fore
SplineSet
300 175 m 128,-1,1
 349 108 349 108 459 108 c 128,-1,2
 569 108 569 108 630 176.5 c 128,-1,3
 691 245 691 245 691 354 c 2,4,-1
 691 1372 l 1,5,-1
 841 1372 l 1,6,-1
 841 338 l 2,7,8
 841 173 841 173 736.5 74.5 c 128,-1,9
 632 -24 632 -24 463.11875 -24 c 0,10,11
 207.398648649 -24 207.398648649 -24 127.5 191 c 0,12,13
 100 265 100 265 100 363 c 1,14,-1
 244 378 l 1,15,0
 251 242 251 242 300 175 c 128,-1,1
EndSplineSet
EndChar

StartChar: K
Encoding: 75 75 47
Width: 1263
GlyphClass: 1
Flags: W
LayerCount: 2
Fore
SplineSet
1161 0 m 1,0,-1
 979 0 l 1,1,-1
 493 698 l 1,2,-1
 252 455 l 1,3,-1
 252 0 l 1,4,-1
 100 0 l 1,5,-1
 100 1372 l 1,6,-1
 252 1372 l 1,7,-1
 252 657 l 1,8,-1
 966 1372 l 1,9,-1
 1163 1372 l 1,10,-1
 599 803 l 1,11,-1
 1161 0 l 1,0,-1
EndSplineSet
EndChar

StartChar: L
Encoding: 76 76 48
Width: 1039
GlyphClass: 1
Flags: W
LayerCount: 2
Fore
SplineSet
939 0 m 1,0,-1
 100 0 l 1,1,-1
 100 1372 l 1,2,-1
 252 1372 l 1,3,-1
 252 129 l 1,4,-1
 939 129 l 1,5,-1
 939 0 l 1,0,-1
EndSplineSet
EndChar

StartChar: M
Encoding: 77 77 49
Width: 1437
GlyphClass: 1
Flags: W
LayerCount: 2
Fore
SplineSet
1337 0 m 1,0,-1
 1186 0 l 1,1,-1
 1186 1174 l 1,2,-1
 797 0 l 1,3,-1
 639 0 l 1,4,-1
 252 1174 l 1,5,-1
 252 0 l 1,6,-1
 100 0 l 1,7,-1
 100 1372 l 1,8,-1
 338 1372 l 1,9,-1
 720 237 l 1,10,-1
 1098 1372 l 1,11,-1
 1337 1372 l 1,12,-1
 1337 0 l 1,0,-1
EndSplineSet
EndChar

StartChar: N
Encoding: 78 78 50
Width: 1265
GlyphClass: 1
Flags: W
LayerCount: 2
Fore
SplineSet
1165 0 m 1,0,-1
 1001 0 l 1,1,-1
 251 1128 l 1,2,-1
 251 0 l 1,3,-1
 100 0 l 1,4,-1
 100 1372 l 1,5,-1
 265 1372 l 1,6,-1
 1015 243 l 1,7,-1
 1015 1372 l 1,8,-1
 1165 1372 l 1,9,-1
 1165 0 l 1,0,-1
EndSplineSet
EndChar

StartChar: O
Encoding: 79 79 51
Width: 1470
GlyphClass: 1
Flags: W
LayerCount: 2
Fore
SplineSet
341.585403814 1270.47739944 m 0,0,1
 500.219626845 1394 500.219626845 1394 718.5 1394 c 0,2,3
 1088.23463687 1394 1088.23463687 1394 1265 1095.5 c 0,4,5
 1370 918.188679245 1370 918.188679245 1370 686 c 0,6,7
 1370 278.556962025 1370 278.556962025 1105 84 c 0,8,9
 952.448275862 -28 952.448275862 -28 750.21993625 -28 c 0,10,11
 547.991596639 -28 547.991596639 -28 384.5 88.5 c 0,12,13
 100 291.22754491 100 291.22754491 100 686.795664113 c 0,14,15
 100 1082.36378332 100 1082.36378332 341.585403814 1270.47739944 c 0,0,1
599.5 126.5 m 128,-1,17
 670 104 670 104 753 104 c 128,-1,18
 836 104 836 104 920.5 141 c 128,-1,19
 1005 178 1005 178 1072.5 248 c 128,-1,20
 1140 318 1140 318 1180 431.5 c 128,-1,21
 1220 545 1220 545 1220 686 c 128,-1,22
 1220 827 1220 827 1178 940 c 128,-1,23
 1136 1053 1136 1053 1066.5 1122 c 0,24,25
 923.471014493 1264 923.471014493 1264 736.257246377 1264 c 0,26,27
 549.043478261 1264 549.043478261 1264 406 1123 c 0,28,29
 336 1054 336 1054 293.5 940.5 c 128,-1,30
 251 827 251 827 251 700 c 128,-1,31
 251 573 251 573 279 476.5 c 128,-1,32
 307 380 307 380 355 312.5 c 128,-1,33
 403 245 403 245 466 197 c 128,-1,16
 529 149 529 149 599.5 126.5 c 128,-1,17
EndSplineSet
EndChar

StartChar: P
Encoding: 80 80 52
Width: 1212
GlyphClass: 1
Flags: W
LayerCount: 2
Fore
SplineSet
1021.21875 690.730769231 m 128,-1,1
 930.4375 579 930.4375 579 703 579 c 2,2,-1
 251 580 l 1,3,-1
 251 0 l 1,4,-1
 100 0 l 1,5,-1
 100 1372 l 1,6,-1
 703 1372 l 2,7,8
 948.7 1372 948.7 1372 1054 1210 c 0,9,10
 1112 1120.76923077 1112 1120.76923077 1112 961.615384615 c 128,-1,0
 1112 802.461538462 1112 802.461538462 1021.21875 690.730769231 c 128,-1,1
890.5 781.5 m 128,-1,12
 965 854 965 854 965 965.5 c 128,-1,13
 965 1077 965 1077 890 1160 c 128,-1,14
 815 1243 815 1243 703 1243 c 2,15,-1
 258 1243 l 1,16,-1
 258 709 l 1,17,-1
 703 709 l 2,18,11
 816 709 816 709 890.5 781.5 c 128,-1,12
EndSplineSet
EndChar

StartChar: Q
Encoding: 81 81 53
Width: 1507
GlyphClass: 1
Flags: W
LayerCount: 2
Fore
SplineSet
1358 -72 m 1,0,1
 1212 -16 1212 -16 1095 72 c 1,2,3
 941 -25 941 -25 739 -25 c 0,4,5
 593 -25 593 -25 470 34.5 c 128,-1,6
 347 94 347 94 267.5 193 c 0,7,8
 100 401.58490566 100 401.58490566 100 686 c 0,9,10
 100 1060.12162162 100 1060.12162162 323 1256 c 0,11,12
 480.107692308 1394 480.107692308 1394 739 1394 c 0,13,14
 1086.96629213 1394 1086.96629213 1394 1265.5 1097 c 0,15,16
 1372 919.831775701 1372 919.831775701 1372 686 c 0,17,18
 1372 355 1372 355 1204 166 c 1,19,20
 1317 91 1317 91 1407 54 c 1,21,-1
 1358 -72 l 1,0,1
971 162 m 1,22,23
 861 247 861 247 764 286 c 1,24,-1
 813 411 l 1,25,26
 929 364 929 364 1080 254 c 1,27,28
 1226 423 1226 423 1226 663.965811966 c 128,-1,29
 1226 904.931623932 1226 904.931623932 1106.5 1075.5 c 0,30,31
 1048 1159 1048 1159 952.5 1209.5 c 128,-1,32
 857 1260 857 1260 749 1260 c 0,33,34
 456.04 1260 456.04 1260 328.04503393 1013.85583448 c 0,35,36
 249 861.846153846 249 861.846153846 249 682.4662868 c 128,-1,37
 249 503.086419753 249 503.086419753 332.381776864 350.734531162 c 0,38,39
 467.418918919 104 467.418918919 104 759 104 c 0,40,41
 872 104 872 104 971 162 c 1,22,23
EndSplineSet
EndChar

StartChar: R
Encoding: 82 82 54
Width: 1291
GlyphClass: 1
Flags: W
LayerCount: 2
Fore
SplineSet
1029 0 m 1,0,1
 982 75 982 75 880.208469055 264.739413681 c 0,2,3
 778.416938111 454.478827362 778.416938111 454.478827362 678 580 c 1,4,-1
 251 580 l 1,5,-1
 251 0 l 1,6,-1
 100 0 l 1,7,-1
 100 1372 l 1,8,-1
 715 1372 l 2,9,10
 1025.92063492 1372 1025.92063492 1372 1095 1116 c 0,11,12
 1112 1053 1112 1053 1112 976 c 0,13,14
 1112 656 1112 656 844 590 c 1,15,16
 918 488 918 488 1034 277 c 128,-1,17
 1150 66 1150 66 1191 0 c 1,18,-1
 1029 0 l 1,0,1
895.5 780.5 m 128,-1,20
 965 852 965 852 965 965.5 c 128,-1,21
 965 1079 965 1079 895.5 1161 c 128,-1,22
 826 1243 826 1243 715 1243 c 2,23,-1
 258 1243 l 1,24,-1
 258 709 l 1,25,-1
 715 709 l 2,26,19
 826 709 826 709 895.5 780.5 c 128,-1,20
EndSplineSet
EndChar

StartChar: S
Encoding: 83 83 55
Width: 1267
GlyphClass: 1
Flags: W
LayerCount: 2
Fore
SplineSet
1167 365 m 128,-1,1
 1167 277 1167 277 1135.5 207.5 c 0,2,3
 1079.58012487 84.1212278876 1079.58012487 84.1212278876 948.290062435 30.0606139438 c 128,-1,4
 817 -24 817 -24 663 -24 c 0,5,6
 276.832298137 -24 276.832298137 -24 149.5 235.5 c 0,7,8
 110 316 110 316 100 422 c 1,9,-1
 242 445 l 1,10,11
 277.133181895 192.679875484 277.133181895 192.679875484 481.5 131.5 c 0,12,13
 560 108 560 108 622.5 108 c 128,-1,14
 685 108 685 108 705 109 c 0,15,16
 872.940594059 117.397029703 872.940594059 117.397029703 962.452088452 212.279213759 c 0,17,18
 1016 269.04 1016 269.04 1016 346.52 c 128,-1,19
 1016 424 1016 424 986 469 c 128,-1,20
 956 514 956 514 905.5 543 c 128,-1,21
 855 572 855 572 789.5 595 c 128,-1,22
 724 618 724 618 651.5 637.5 c 128,-1,23
 579 657 579 657 507 677 c 0,24,25
 351.507859734 720.192261185 351.507859734 720.192261185 247.253929867 796.576328612 c 128,-1,26
 143 872.96039604 143 872.96039604 143 1019 c 0,27,28
 143 1255.28244275 143 1255.28244275 365.5 1347 c 0,29,30
 479.518518519 1394 479.518518519 1394 631 1394 c 0,31,32
 973.479452055 1394 973.479452055 1394 1086 1172 c 0,33,34
 1123 1099 1123 1099 1129 1003 c 1,35,-1
 985 976 l 1,36,37
 973.136873598 1090.67688856 973.136873598 1090.67688856 911.409728655 1158.3393359 c 128,-1,38
 849.682583713 1226.00178324 849.682583713 1226.00178324 774.341291857 1245.00089162 c 128,-1,39
 699 1264 699 1264 641.321428571 1264 c 0,40,41
 583.642857143 1264 583.642857143 1264 510.406557555 1251.64688923 c 128,-1,42
 437.170257967 1239.29377845 437.170257967 1239.29377845 365.585128983 1184.80360564 c 128,-1,43
 294 1130.31343284 294 1130.31343284 294 1019 c 0,44,45
 294 962 294 962 331.5 919 c 128,-1,46
 369 876 369 876 430.5 851 c 128,-1,47
 492 826 492 826 570.5 801 c 128,-1,48
 649 776 649 776 730.5 756 c 128,-1,49
 812 736 812 736 890.5 703 c 128,-1,50
 969 670 969 670 1030.5 629 c 128,-1,51
 1092 588 1092 588 1129.5 520.5 c 128,-1,0
 1167 453 1167 453 1167 365 c 128,-1,1
EndSplineSet
EndChar

StartChar: T
Encoding: 84 84 56
Width: 1262
GlyphClass: 1
Flags: W
LayerCount: 2
Fore
SplineSet
1162 1243 m 1,0,-1
 707 1243 l 1,1,-1
 707 0 l 1,2,-1
 555 0 l 1,3,-1
 555 1243 l 1,4,-1
 100 1243 l 1,5,-1
 100 1372 l 1,6,-1
 1162 1372 l 1,7,-1
 1162 1243 l 1,0,-1
EndSplineSet
EndChar

StartChar: U
Encoding: 85 85 57
Width: 1251
GlyphClass: 1
Flags: W
LayerCount: 2
Fore
SplineSet
622 108 m 0,0,1
 878.5 108 878.5 108 958 267 c 0,2,3
 1000 351 1000 351 1000 476 c 2,4,-1
 1000 1372 l 1,5,-1
 1151 1372 l 1,6,-1
 1151 470 l 2,7,8
 1151 266.037037037 1151 266.037037037 1035.5 132 c 0,9,10
 901.074468085 -24 901.074468085 -24 626 -24 c 0,11,12
 300.54 -24 300.54 -24 169.5 184 c 0,13,14
 100 294.317460317 100 294.317460317 100 470 c 2,15,-1
 100 1372 l 1,16,-1
 251 1372 l 1,17,-1
 251 476 l 2,18,19
 251 277.0625 251 277.0625 349.007246377 192.53125 c 128,-1,20
 447.014492754 108 447.014492754 108 622 108 c 0,0,1
EndSplineSet
EndChar

StartChar: V
Encoding: 86 86 58
Width: 1409
GlyphClass: 1
Flags: W
LayerCount: 2
Fore
SplineSet
1151 1372 m 1,0,-1
 1309 1372 l 1,1,-1
 798 0 l 1,2,-1
 607 0 l 1,3,-1
 100 1372 l 1,4,-1
 255 1372 l 1,5,-1
 703 162 l 1,6,-1
 1151 1372 l 1,0,-1
EndSplineSet
EndChar

StartChar: W
Encoding: 87 87 59
Width: 1869
GlyphClass: 1
Flags: W
LayerCount: 2
Fore
SplineSet
1769 1372 m 1,0,-1
 1450 0 l 1,1,-1
 1233 0 l 1,2,-1
 936 1189 l 1,3,-1
 640 0 l 1,4,-1
 425 0 l 1,5,-1
 100 1372 l 1,6,-1
 252 1372 l 1,7,-1
 535 188 l 1,8,-1
 833 1372 l 1,9,-1
 1040 1372 l 1,10,-1
 1336 188 l 1,11,-1
 1621 1372 l 1,12,-1
 1769 1372 l 1,0,-1
EndSplineSet
EndChar

StartChar: X
Encoding: 88 88 60
Width: 1371
GlyphClass: 1
Flags: W
LayerCount: 2
Fore
SplineSet
100 0 m 1,0,-1
 598 686 l 1,1,-1
 132 1372 l 1,2,-1
 311 1372 l 1,3,-1
 687 816 l 1,4,-1
 1062 1372 l 1,5,-1
 1241 1372 l 1,6,-1
 772 686 l 1,7,-1
 1271 0 l 1,8,-1
 1094 0 l 1,9,-1
 687 553 l 1,10,-1
 280 0 l 1,11,-1
 100 0 l 1,0,-1
EndSplineSet
EndChar

StartChar: Y
Encoding: 89 89 61
Width: 1394
GlyphClass: 1
Flags: W
LayerCount: 2
Fore
SplineSet
1294 1372 m 1,0,-1
 775 569 l 1,1,-1
 775 0 l 1,2,-1
 621 0 l 1,3,-1
 621 569 l 1,4,-1
 100 1372 l 1,5,-1
 270 1372 l 1,6,-1
 700 704 l 1,7,-1
 1123 1372 l 1,8,-1
 1294 1372 l 1,0,-1
EndSplineSet
EndChar

StartChar: Z
Encoding: 90 90 62
Width: 1260
GlyphClass: 1
Flags: W
LayerCount: 2
Fore
SplineSet
1160 0 m 1,0,-1
 100 0 l 1,1,-1
 100 153 l 1,2,-1
 970 1243 l 1,3,-1
 188 1243 l 1,4,-1
 188 1372 l 1,5,-1
 1136 1372 l 1,6,-1
 1136 1218 l 1,7,-1
 267 129 l 1,8,-1
 1160 129 l 1,9,-1
 1160 0 l 1,0,-1
EndSplineSet
EndChar

StartChar: bracketleft
Encoding: 91 91 63
Width: 509
GlyphClass: 1
Flags: W
LayerCount: 2
Fore
SplineSet
409 -163 m 1,0,-1
 100 -163 l 1,1,-1
 100 1396 l 1,2,-1
 409 1396 l 1,3,-1
 409 1289 l 1,4,-1
 220 1289 l 1,5,-1
 220 -56 l 1,6,-1
 409 -56 l 1,7,-1
 409 -163 l 1,0,-1
EndSplineSet
EndChar

StartChar: backslash
Encoding: 92 92 64
Width: 670
GlyphClass: 1
Flags: W
LayerCount: 2
Fore
SplineSet
570 -3 m 1,0,-1
 453 -3 l 1,1,-1
 100 1233 l 1,2,-1
 214 1233 l 1,3,-1
 570 -3 l 1,0,-1
EndSplineSet
EndChar

StartChar: bracketright
Encoding: 93 93 65
Width: 461
GlyphClass: 1
Flags: W
LayerCount: 2
Fore
SplineSet
361 -163 m 1,0,-1
 50 -163 l 1,1,-1
 50 -56 l 1,2,-1
 240 -56 l 1,3,-1
 240 1289 l 1,4,-1
 50 1289 l 1,5,-1
 50 1396 l 1,6,-1
 361 1396 l 1,7,-1
 361 -163 l 1,0,-1
EndSplineSet
EndChar

StartChar: asciicircum
Encoding: 94 94 66
Width: 890
GlyphClass: 1
Flags: W
LayerCount: 2
Fore
SplineSet
790 601 m 1,0,-1
 653 601 l 1,1,-1
 443 1107 l 1,2,-1
 243 601 l 1,3,-1
 100 601 l 1,4,-1
 384 1251 l 1,5,-1
 500 1251 l 1,6,-1
 790 601 l 1,0,-1
EndSplineSet
EndChar

StartChar: underscore
Encoding: 95 95 67
Width: 1161
GlyphClass: 1
Flags: W
LayerCount: 2
Fore
SplineSet
1061 -355 m 1,0,-1
 100 -355 l 1,1,-1
 100 -246 l 1,2,-1
 1061 -246 l 1,3,-1
 1061 -355 l 1,0,-1
EndSplineSet
EndChar

StartChar: grave
Encoding: 96 96 68
Width: 494
GlyphClass: 1
Flags: W
LayerCount: 2
Fore
SplineSet
394 1091 m 1,0,-1
 284 1091 l 1,1,-1
 100 1319 l 1,2,-1
 287 1319 l 1,3,-1
 394 1091 l 1,0,-1
EndSplineSet
EndChar

StartChar: a
Encoding: 97 97 69
Width: 1035
GlyphClass: 1
Flags: W
LayerCount: 2
Fore
SplineSet
866 837 m 0,0,1
 883 792 883 792 883 764 c 128,-1,2
 883 736 883 736 876 423 c 1,3,4
 876 165 876 165 935 18 c 1,5,-1
 822 -16 l 1,6,7
 815 1 815 1 775 131 c 1,8,9
 623.979591837 -17 623.979591837 -17 443 -17 c 0,10,11
 197.311827957 -17 197.311827957 -17 125 117.5 c 0,12,13
 100 164 100 164 100 216.460589676 c 128,-1,14
 100 268.921179353 100 268.921179353 109.259574567 305.913670666 c 0,15,16
 128.128392134 381.295597218 128.128392134 381.295597218 174.248904642 425.893045967 c 0,17,18
 282.540160959 530.608138902 282.540160959 530.608138902 549.059742752 575.338698084 c 0,19,20
 696 600 696 600 755 618 c 1,21,22
 751.778280543 756.533936652 751.778280543 756.533936652 743.889140271 778.766968326 c 128,-1,23
 736 801 736 801 726 824 c 128,-1,24
 716 847 716 847 700 857.5 c 128,-1,25
 684 868 684 868 655.02173913 883.5 c 128,-1,26
 626.043478261 899 626.043478261 899 532.02173913 899 c 128,-1,27
 438 899 438 899 352 844 c 128,-1,28
 266 789 266 789 231 686 c 1,29,-1
 112 711 l 1,30,31
 131 807 131 807 195 878 c 0,32,33
 322.098591549 1019 322.098591549 1019 536 1019 c 0,34,35
 665.720930233 1019 665.720930233 1019 750.642449971 968.282981267 c 128,-1,36
 835.563969709 917.565962535 835.563969709 917.565962535 866 837 c 0,0,1
439 105 m 0,37,38
 612 105 612 105 755 274 c 1,39,-1
 755 488 l 1,40,41
 748 487 748 487 626.5 470.5 c 128,-1,42
 505 454 505 454 429.615384615 432.461538462 c 128,-1,43
 354.230769231 410.923076923 354.230769231 410.923076923 291.115384615 363.586538462 c 128,-1,44
 228 316.25 228 316.25 228 226 c 0,45,46
 228 112.822222222 228 112.822222222 381.5 106 c 0,47,48
 404 105 404 105 439 105 c 0,37,38
EndSplineSet
EndChar

StartChar: b
Encoding: 98 98 70
Width: 1011
GlyphClass: 1
Flags: W
LayerCount: 2
Fore
SplineSet
497 -17 m 0,0,1
 352 -17 352 -17 227 108 c 1,2,-1
 227 0 l 1,3,-1
 100 0 l 1,4,-1
 100 1372 l 1,5,-1
 227 1372 l 1,6,-1
 227 889 l 1,7,8
 283 943 283 943 358 980.5 c 128,-1,9
 433 1018 433 1018 508 1018 c 128,-1,10
 583 1018 583 1018 649.5 985 c 0,11,12
 767.205 926.59 767.205 926.59 839.1025 782.795 c 128,-1,13
 911 639 911 639 911 520.5 c 128,-1,14
 911 402 911 402 883.5 312.5 c 128,-1,15
 856 223 856 223 805.5 149 c 128,-1,16
 755 75 755 75 674.5 29 c 128,-1,17
 594 -17 594 -17 497 -17 c 0,0,1
372 140.5 m 128,-1,19
 428 101 428 101 490.5 101 c 0,20,21
 654.019047619 101 654.019047619 101 734.175746464 280.073476143 c 0,22,23
 782 386.914893617 782 386.914893617 782 473.457446809 c 128,-1,24
 782 560 782 560 763.5 629 c 128,-1,25
 745 698 745 698 711 758.5 c 128,-1,26
 677 819 677 819 621 857 c 128,-1,27
 565 895 565 895 504.5 895 c 0,28,29
 347.186915888 895 347.186915888 895 266.990357573 708.455831747 c 0,30,31
 219 596.826086957 219 596.826086957 219 514.913043478 c 128,-1,32
 219 433 219 433 235.5 367.5 c 128,-1,33
 252 302 252 302 284 241 c 128,-1,18
 316 180 316 180 372 140.5 c 128,-1,19
EndSplineSet
EndChar

StartChar: c
Encoding: 99 99 71
Width: 1023
GlyphClass: 1
Flags: W
LayerCount: 2
Fore
SplineSet
528 105 m 0,0,1
 669.882978723 105 669.882978723 105 756.5 243 c 0,2,3
 786 290 786 290 806 353 c 1,4,-1
 923 342 l 1,5,6
 876.723300971 180.031553398 876.723300971 180.031553398 776.991280115 81.515776699 c 0,7,8
 677.259259259 -17 677.259259259 -17 518 -17 c 0,9,10
 431 -17 431 -17 349.5 26.5 c 128,-1,11
 268 70 268 70 214.5 141.5 c 0,12,13
 100 294.523364486 100 294.523364486 100 507.479630961 c 128,-1,14
 100 720.435897436 100 720.435897436 226.565217391 869.717948718 c 128,-1,15
 353.130434783 1019 353.130434783 1019 528.509661836 1019 c 128,-1,16
 703.888888889 1019 703.888888889 1019 827.5 856.5 c 0,17,18
 872 798 872 798 903 719 c 1,19,-1
 799 675 l 1,20,21
 673 903 673 903 513 903 c 0,22,23
 442 903 442 903 385 862.5 c 128,-1,24
 328 822 328 822 295 758.5 c 0,25,26
 228 629.575757576 228 629.575757576 228 492.445021645 c 128,-1,27
 228 355.314285714 228 355.314285714 300 236 c 0,28,29
 335 178 335 178 394.5 141.5 c 128,-1,30
 454 105 454 105 528 105 c 0,0,1
EndSplineSet
EndChar

StartChar: d
Encoding: 100 100 72
Width: 1011
GlyphClass: 1
Flags: W
LayerCount: 2
Fore
SplineSet
508 1019 m 0,0,1
 648 1019 648 1019 784 892 c 1,2,-1
 784 1372 l 1,3,-1
 911 1372 l 1,4,-1
 911 0 l 1,5,-1
 784 0 l 1,6,-1
 784 108 l 1,7,8
 657 -17 657 -17 508 -17 c 0,9,10
 284.091603053 -17 284.091603053 -17 166 210.5 c 0,11,12
 100 337.647058824 100 337.647058824 100 484.577435662 c 128,-1,13
 100 631.5078125 100 631.5078125 172.664489737 777.88961746 c 128,-1,14
 245.328979475 924.27142242 245.328979475 924.27142242 365 985 c 0,15,16
 432 1019 432 1019 508 1019 c 0,0,1
629 853 m 128,-1,18
 573 894 573 894 506 894 c 128,-1,19
 439 894 439 894 383 855.5 c 128,-1,20
 327 817 327 817 294 755.5 c 0,21,22
 227 630.636363636 227 630.636363636 227 508.683904474 c 0,23,24
 227 316 227 316 323 193 c 0,25,26
 394.804878049 101 394.804878049 101 508 101 c 0,27,28
 577 101 577 101 633.5 140 c 128,-1,29
 690 179 690 179 723 239 c 0,30,31
 790 360.818181818 790 360.818181818 790 488.461329715 c 128,-1,32
 790 616.104477612 790 616.104477612 718.5 749.5 c 0,33,17
 685 812 685 812 629 853 c 128,-1,18
EndSplineSet
EndChar

StartChar: e
Encoding: 101 101 73
Width: 1064
GlyphClass: 1
Flags: W
LayerCount: 2
Fore
SplineSet
530 105 m 0,0,1
 636 105 636 105 725 159 c 128,-1,2
 814 213 814 213 844 303 c 1,3,-1
 960 270 l 1,4,5
 926 137 926 137 801.5 60 c 128,-1,6
 677 -17 677 -17 548 -17 c 0,7,8
 307.940397351 -17 307.940397351 -17 203.970198675 139.995 c 128,-1,9
 100 296.99 100 296.99 100 509 c 0,10,11
 100 766.010204082 100 766.010204082 248 912.5 c 0,12,13
 355.597938144 1019 355.597938144 1019 529 1019 c 0,14,15
 653 1019 653 1019 753.5 957 c 128,-1,16
 854 895 854 895 909 793.5 c 128,-1,17
 964 692 964 692 964 573 c 2,18,-1
 964 447 l 1,19,-1
 230 447 l 1,20,21
 234 298 234 298 311.5 201.5 c 128,-1,22
 389 105 389 105 530 105 c 0,0,1
836 569 m 1,23,24
 833 654 833 654 794 729 c 128,-1,25
 755 804 755 804 685 851 c 128,-1,26
 615 898 615 898 529 898 c 0,27,28
 410 898 410 898 323 795 c 128,-1,29
 236 692 236 692 230 569 c 1,30,-1
 836 569 l 1,23,24
EndSplineSet
EndChar

StartChar: f
Encoding: 102 102 74
Width: 769
GlyphClass: 1
Flags: W
LayerCount: 2
Fore
SplineSet
271 1000 m 1,0,1
 271 1197.18181818 271 1197.18181818 300.116197183 1263.3549936 c 0,2,3
 329.232394366 1329.52816901 329.232394366 1329.52816901 380.5 1351.5 c 0,4,5
 456.333333333 1384 456.333333333 1384 533.666666667 1384 c 128,-1,6
 611 1384 611 1384 669 1369 c 1,7,-1
 643 1247 l 1,8,9
 604 1261 604 1261 555 1261 c 0,10,11
 399 1261 399 1261 399 1140 c 2,12,-1
 399 1000 l 1,13,-1
 607 1000 l 1,14,-1
 607 880 l 1,15,-1
 399 880 l 1,16,-1
 399 0 l 1,17,-1
 271 0 l 1,18,-1
 271 880 l 1,19,-1
 100 880 l 1,20,-1
 100 1000 l 1,21,-1
 271 1000 l 1,0,1
EndSplineSet
EndChar

StartChar: g
Encoding: 103 103 75
Width: 1008
GlyphClass: 1
Flags: W
LayerCount: 2
Fore
SplineSet
514 1019 m 0,0,1
 659 1019 659 1019 781 883 c 1,2,-1
 781 1000 l 1,3,-1
 908 1000 l 1,4,-1
 908 -25 l 2,5,6
 908 -194 908 -194 794.5 -301 c 128,-1,7
 681 -408 681 -408 516.941697679 -408 c 0,8,9
 352.883395358 -408 352.883395358 -408 251.987845031 -317.776884109 c 0,10,11
 151.092294703 -227.553768218 151.092294703 -227.553768218 130 -101 c 1,12,-1
 261 -117 l 1,13,14
 290.868338558 -226.517241379 290.868338558 -226.517241379 413 -268.5 c 0,15,16
 461 -285 461 -285 521 -285 c 0,17,18
 626 -285 626 -285 703.5 -218 c 128,-1,19
 781 -151 781 -151 781 -44 c 2,20,-1
 781 128 l 1,21,22
 753.978723404 87.4680851064 753.978723404 87.4680851064 707.989361702 51.2340425532 c 0,23,24
 621.384615385 -17 621.384615385 -17 520.192307692 -17 c 128,-1,25
 419 -17 419 -17 338.5 30 c 128,-1,26
 258 77 258 77 207 152.5 c 128,-1,27
 156 228 156 228 128 317.5 c 128,-1,28
 100 407 100 407 100 497 c 128,-1,29
 100 587 100 587 129 678 c 128,-1,30
 158 769 158 769 209.5 845.5 c 128,-1,31
 261 922 261 922 341 970.5 c 128,-1,32
 421 1019 421 1019 514 1019 c 0,0,1
514 105 m 256,33,34
 582 105 582 105 637.5 143.5 c 128,-1,35
 693 182 693 182 725 242 c 0,36,37
 790 363.875 790 363.875 790 519.131048387 c 0,38,39
 790 674.387096774 790 674.387096774 698 802 c 0,40,41
 628.069767442 899 628.069767442 899 514 899 c 0,42,43
 444 899 444 899 387 858.5 c 128,-1,44
 330 818 330 818 297 755.5 c 128,-1,45
 264 693 264 693 246.5 626 c 128,-1,46
 229 559 229 559 229 497 c 128,-1,47
 229 435 229 435 246.5 369 c 128,-1,48
 264 303 264 303 297 242.5 c 128,-1,49
 330 182 330 182 387 143.5 c 128,-1,50
 444 105 444 105 514 105 c 256,33,34
EndSplineSet
EndChar

StartChar: h
Encoding: 104 104 76
Width: 973
GlyphClass: 1
Flags: W
LayerCount: 2
Fore
SplineSet
688.5 847.5 m 128,-1,1
 630 893 630 893 535 893 c 128,-1,2
 440 893 440 893 333.5 812 c 128,-1,3
 227 731 227 731 227 650 c 2,4,-1
 227 0 l 1,5,-1
 100 0 l 1,6,-1
 100 1372 l 1,7,-1
 227 1372 l 1,8,-1
 227 868 l 1,9,10
 378 1019 378 1019 543 1019 c 0,11,12
 677 1019 677 1019 775 935 c 128,-1,13
 873 851 873 851 873 718 c 2,14,-1
 873 0 l 1,15,-1
 747 0 l 1,16,-1
 747 712 l 2,17,0
 747 802 747 802 688.5 847.5 c 128,-1,1
EndSplineSet
EndChar

StartChar: i
Encoding: 105 105 77
Width: 344
GlyphClass: 1
Flags: W
LayerCount: 2
Fore
SplineSet
121.5 1254.5 m 128,-1,1
 143 1276 143 1276 173.5 1276 c 128,-1,2
 204 1276 204 1276 224 1254.5 c 128,-1,3
 244 1233 244 1233 244 1203 c 128,-1,4
 244 1173 244 1173 223.5 1152.5 c 128,-1,5
 203 1132 203 1132 173 1132 c 128,-1,6
 143 1132 143 1132 121.5 1152 c 128,-1,7
 100 1172 100 1172 100 1202.5 c 128,-1,0
 100 1233 100 1233 121.5 1254.5 c 128,-1,1
235 0 m 1,8,-1
 108 0 l 1,9,-1
 108 1000 l 1,10,-1
 235 1000 l 1,11,-1
 235 0 l 1,8,-1
EndSplineSet
EndChar

StartChar: j
Encoding: 106 106 78
Width: 587
GlyphClass: 1
Flags: W
LayerCount: 2
Fore
SplineSet
365 1254.5 m 128,-1,1
 386 1276 386 1276 415.5 1276 c 128,-1,2
 445 1276 445 1276 466 1254.5 c 128,-1,3
 487 1233 487 1233 487 1203 c 128,-1,4
 487 1173 487 1173 466 1152.5 c 128,-1,5
 445 1132 445 1132 415.5 1132 c 128,-1,6
 386 1132 386 1132 365 1152 c 128,-1,7
 344 1172 344 1172 344 1202.5 c 128,-1,0
 344 1233 344 1233 365 1254.5 c 128,-1,1
139 -262 m 1,8,9
 193 -289 193 -289 237 -289 c 128,-1,10
 281 -289 281 -289 308.295454545 -275.352272727 c 0,11,12
 335.590909091 -261.704545455 335.590909091 -261.704545455 342.795454545 -226.402272727 c 128,-1,13
 350 -191.1 350 -191.1 350 -132 c 2,14,-1
 350 1000 l 1,15,-1
 477 1000 l 1,16,-1
 477 -132 l 2,17,18
 477 -271 477 -271 425 -339.5 c 128,-1,19
 373 -408 373 -408 253 -408 c 0,20,21
 185 -408 185 -408 100 -375 c 1,22,-1
 139 -262 l 1,8,9
EndSplineSet
EndChar

StartChar: k
Encoding: 107 107 79
Width: 917
GlyphClass: 1
Flags: W
LayerCount: 2
Fore
SplineSet
817 63 m 1,0,-1
 719 -6 l 1,1,-1
 359 516 l 1,2,-1
 221 390 l 1,3,-1
 221 0 l 1,4,-1
 100 0 l 1,5,-1
 100 1372 l 1,6,-1
 227 1372 l 1,7,-1
 227 563 l 1,8,-1
 701 1016 l 1,9,-1
 785 925 l 1,10,-1
 450 607 l 1,11,-1
 817 63 l 1,0,-1
EndSplineSet
EndChar

StartChar: l
Encoding: 108 108 80
Width: 327
GlyphClass: 1
Flags: W
LayerCount: 2
Fore
SplineSet
227 0 m 1,0,-1
 100 0 l 1,1,-1
 100 1372 l 1,2,-1
 227 1372 l 1,3,-1
 227 0 l 1,0,-1
EndSplineSet
EndChar

StartChar: m
Encoding: 109 109 81
Width: 1504
GlyphClass: 1
Flags: W
LayerCount: 2
Fore
SplineSet
483 1019 m 0,0,1
 685.243902439 1019 685.243902439 1019 783 852 c 1,2,3
 850 943 850 943 920 981 c 128,-1,4
 990 1019 990 1019 1079 1019 c 128,-1,5
 1168 1019 1168 1019 1241.5 970.5 c 128,-1,6
 1315 922 1315 922 1359.5 845.5 c 128,-1,7
 1404 769 1404 769 1404 691 c 2,8,-1
 1404 0 l 1,9,-1
 1277 0 l 1,10,-1
 1277 676 l 2,11,12
 1277 744 1277 744 1215.5 820 c 128,-1,13
 1154 896 1154 896 1086 896 c 0,14,15
 986 896 986 896 901.5 818.5 c 128,-1,16
 817 741 817 741 817 642 c 2,17,-1
 817 0 l 1,18,-1
 688 0 l 1,19,-1
 688 683 l 2,20,21
 688 758 688 758 623.5 827 c 128,-1,22
 559 896 559 896 478.5 896 c 128,-1,23
 398 896 398 896 312.5 810.5 c 128,-1,24
 227 725 227 725 227 638 c 2,25,-1
 227 0 l 1,26,-1
 100 0 l 1,27,-1
 100 1000 l 1,28,-1
 227 1000 l 1,29,-1
 227 880 l 1,30,31
 334.676056338 1019 334.676056338 1019 483 1019 c 0,0,1
EndSplineSet
EndChar

StartChar: n
Encoding: 110 110 82
Width: 971
GlyphClass: 1
Flags: W
LayerCount: 2
Fore
SplineSet
679.5 824.5 m 128,-1,1
 612 896 612 896 538 896 c 128,-1,2
 464 896 464 896 394 856 c 128,-1,3
 324 816 324 816 275.5 751 c 128,-1,4
 227 686 227 686 227 622 c 2,5,-1
 227 0 l 1,6,-1
 100 0 l 1,7,-1
 100 1000 l 1,8,-1
 227 1000 l 1,9,-1
 227 875 l 1,10,11
 284 951 284 951 352.5 985 c 128,-1,12
 421 1019 421 1019 541 1019 c 128,-1,13
 661 1019 661 1019 766 915.5 c 128,-1,14
 871 812 871 812 871 676 c 2,15,-1
 871 0 l 1,16,-1
 747 0 l 1,17,-1
 747 669 l 2,18,0
 747 753 747 753 679.5 824.5 c 128,-1,1
EndSplineSet
EndChar

StartChar: o
Encoding: 111 111 83
Width: 1069
GlyphClass: 1
Flags: W
LayerCount: 2
Fore
SplineSet
531 1019 m 256,0,1
 762.985074627 1019 762.985074627 1019 894 788 c 0,2,3
 969 655.763157895 969 655.763157895 969 480.294422984 c 0,4,5
 969 304.825688073 969 304.825688073 853.5 148 c 0,6,7
 799 74 799 74 714.5 28.5 c 128,-1,8
 630 -17 630 -17 531.5 -17 c 128,-1,9
 433 -17 433 -17 349.5 30.5 c 128,-1,10
 266 78 266 78 213 153 c 0,11,12
 100 312.905660377 100 312.905660377 100 502.141509434 c 0,13,14
 100 691.377358491 100 691.377358491 211 849.5 c 0,15,16
 264 925 264 925 347.5 972 c 128,-1,17
 431 1019 431 1019 531 1019 c 256,0,1
407.5 140.5 m 128,-1,19
 466 103 466 103 544.5 103 c 128,-1,20
 623 103 623 103 696.5 166.5 c 128,-1,21
 770 230 770 230 806 319.5 c 128,-1,22
 842 409 842 409 842 501 c 128,-1,23
 842 593 842 593 808 681.5 c 128,-1,24
 774 770 774 770 701 833 c 128,-1,25
 628 896 628 896 545 896 c 128,-1,26
 462 896 462 896 403 858 c 128,-1,27
 344 820 344 820 306.5 761 c 128,-1,28
 269 702 269 702 248 633 c 128,-1,29
 227 564 227 564 227 499 c 128,-1,30
 227 434 227 434 249.5 365 c 128,-1,31
 272 296 272 296 310.5 237 c 128,-1,18
 349 178 349 178 407.5 140.5 c 128,-1,19
EndSplineSet
EndChar

StartChar: p
Encoding: 112 112 84
Width: 1011
GlyphClass: 1
Flags: W
LayerCount: 2
Fore
SplineSet
499 -17 m 0,0,1
 363 -17 363 -17 227 109 c 1,2,-1
 227 -394 l 1,3,-1
 100 -394 l 1,4,-1
 100 1000 l 1,5,-1
 227 1000 l 1,6,-1
 227 886 l 1,7,8
 296 953 296 953 358 986 c 128,-1,9
 420 1019 420 1019 508.5 1019 c 128,-1,10
 597 1019 597 1019 677.5 971.5 c 128,-1,11
 758 924 758 924 807.5 848 c 0,12,13
 911 689.090909091 911 689.090909091 911 522.833125778 c 0,14,15
 911 356.575342466 911 356.575342466 834.6 215.287671233 c 0,16,17
 758.2 74 758.2 74 638.5 15.5 c 0,18,19
 572 -17 572 -17 499 -17 c 0,0,1
379 143.5 m 128,-1,21
 434 104 434 104 501.5 104 c 128,-1,22
 569 104 569 104 625.5 143.5 c 128,-1,23
 682 183 682 183 715 244 c 0,24,25
 782 367.848484848 782 367.848484848 782 503.424242424 c 0,26,27
 782 639 782 639 712 761.5 c 0,28,29
 678 821 678 821 622.5 858.5 c 128,-1,30
 567 896 567 896 498.5 896 c 128,-1,31
 430 896 430 896 374.5 857 c 128,-1,32
 319 818 319 818 286.5 757.5 c 0,33,34
 219 631.846153846 219 631.846153846 219 501.614253394 c 0,35,36
 219 371.382352941 219 371.382352941 290 244 c 0,37,20
 324 183 324 183 379 143.5 c 128,-1,21
EndSplineSet
EndChar

StartChar: q
Encoding: 113 113 85
Width: 1010
GlyphClass: 1
Flags: W
LayerCount: 2
Fore
SplineSet
501 1019 m 0,0,1
 652 1019 652 1019 782 887 c 1,2,-1
 782 1000 l 1,3,-1
 910 1000 l 1,4,-1
 910 -394 l 1,5,-1
 782 -394 l 1,6,-1
 782 107 l 1,7,8
 656 -17 656 -17 501 -17 c 0,9,10
 292.666666667 -17 292.666666667 -17 169 221.5 c 0,11,12
 100 354.571428571 100 354.571428571 100 504.800865801 c 128,-1,13
 100 655.03030303 100 655.03030303 168.066933722 793.226804829 c 128,-1,14
 236.133867444 931.423306628 236.133867444 931.423306628 357.5 988 c 0,15,16
 424 1019 424 1019 501 1019 c 0,0,1
501 896 m 256,17,18
 432 896 432 896 377 857.5 c 128,-1,19
 322 819 322 819 290.5 758 c 0,20,21
 227 635.031746032 227 635.031746032 227 514.718253968 c 0,22,23
 227 320.661290323 227 320.661290323 319 197.5 c 0,24,25
 388.843373494 104 388.843373494 104 501 104 c 0,26,27
 566 104 566 104 622.5 144 c 128,-1,28
 679 184 679 184 714.5 245 c 0,29,30
 790 374.732394366 790 374.732394366 790 501.675020713 c 128,-1,31
 790 628.617647059 790 628.617647059 719 756 c 0,32,33
 685 817 685 817 627.5 856.5 c 128,-1,34
 570 896 570 896 501 896 c 256,17,18
EndSplineSet
EndChar

StartChar: r
Encoding: 114 114 86
Width: 734
GlyphClass: 1
Flags: W
LayerCount: 2
Fore
SplineSet
227 893 m 1,0,1
 314 1019 314 1019 421.5 1019 c 128,-1,2
 529 1019 529 1019 634 946 c 1,3,-1
 559 853 l 1,4,5
 505 895 505 895 450.5 895 c 128,-1,6
 396 895 396 895 352 860.5 c 128,-1,7
 308 826 308 826 281.5 773.5 c 0,8,9
 227 665.528301887 227 665.528301887 227 560 c 2,10,-1
 227 0 l 1,11,-1
 100 0 l 1,12,-1
 100 1000 l 1,13,-1
 227 1000 l 1,14,-1
 227 893 l 1,0,1
EndSplineSet
EndChar

StartChar: s
Encoding: 115 115 87
Width: 976
GlyphClass: 1
Flags: W
LayerCount: 2
Fore
SplineSet
152 641.5 m 128,-1,1
 125 696 125 696 125 760.5 c 128,-1,2
 125 825 125 825 150 870 c 0,3,4
 193.944444444 949.1 193.944444444 949.1 291.027777778 984.05 c 128,-1,5
 388.111111111 1019 388.111111111 1019 472.555555556 1019 c 128,-1,6
 557 1019 557 1019 633.5 988.5 c 128,-1,7
 710 958 710 958 767.5 897.5 c 128,-1,8
 825 837 825 837 831 765 c 1,9,-1
 717 733 l 1,10,11
 708 790 708 790 663.5 829 c 0,12,13
 587.051282051 896 587.051282051 896 471 896 c 0,14,15
 405.148148148 896 405.148148148 896 351.074074074 876 c 0,16,17
 250 838.616438356 250 838.616438356 250 772.808219178 c 128,-1,18
 250 707 250 707 284.5 666 c 128,-1,19
 319 625 319 625 374 604 c 128,-1,20
 429 583 429 583 553.428571429 553.285714286 c 0,21,22
 677.857142857 523.571428571 677.857142857 523.571428571 752 486.5 c 0,23,24
 876 424.5 876 424.5 876 276 c 0,25,26
 876 207 876 207 836.5 149 c 128,-1,27
 797 91 797 91 736.5 56 c 0,28,29
 610.314285714 -17 610.314285714 -17 475 -17 c 0,30,31
 275.142857143 -17 275.142857143 -17 162.5 135 c 0,32,33
 121 191 121 191 100 265 c 1,34,-1
 217 300 l 1,35,36
 265 187 265 187 318.5 145 c 128,-1,37
 372 103 372 103 493.894117647 103 c 128,-1,38
 615.788235294 103 615.788235294 103 704 184.5 c 0,39,40
 750 227 750 227 750 274.5 c 128,-1,41
 750 322 750 322 723 352.5 c 128,-1,42
 696 383 696 383 652 399.5 c 128,-1,43
 608 416 608 416 552 432.5 c 128,-1,44
 496 449 496 449 437.5 462 c 128,-1,45
 379 475 379 475 323 499.5 c 128,-1,46
 267 524 267 524 223 555.5 c 128,-1,0
 179 587 179 587 152 641.5 c 128,-1,1
EndSplineSet
EndChar

StartChar: t
Encoding: 116 116 88
Width: 686
GlyphClass: 1
Flags: W
LayerCount: 2
Fore
SplineSet
411 111.5 m 128,-1,1
 430 104 430 104 459.5 104 c 128,-1,2
 489 104 489 104 555 119 c 1,3,-1
 586 3 l 1,4,5
 532 -17 532 -17 474.5 -17 c 128,-1,6
 417 -17 417 -17 395 -14 c 0,7,8
 332.909090909 -5.53305785124 332.909090909 -5.53305785124 284.454545455 37.4152892562 c 128,-1,9
 236 80.3636363636 236 80.3636363636 236 176 c 2,10,-1
 236 879 l 1,11,-1
 100 879 l 1,12,-1
 100 1000 l 1,13,-1
 236 1000 l 1,14,-1
 236 1262 l 1,15,-1
 363 1262 l 1,16,-1
 363 1000 l 1,17,-1
 547 1000 l 1,18,-1
 547 879 l 1,19,-1
 363 879 l 1,20,-1
 363 189 l 2,21,22
 363 148 363 148 377.5 133.5 c 128,-1,0
 392 119 392 119 411 111.5 c 128,-1,1
EndSplineSet
EndChar

StartChar: u
Encoding: 117 117 89
Width: 975
GlyphClass: 1
Flags: W
LayerCount: 2
Fore
SplineSet
288.5 173.5 m 128,-1,1
 350 104 350 104 443 104 c 128,-1,2
 536 104 536 104 621.5 168.5 c 128,-1,3
 707 233 707 233 747 329 c 1,4,-1
 747 1000 l 1,5,-1
 875 1000 l 1,6,-1
 875 0 l 1,7,-1
 745 0 l 1,8,-1
 745 124 l 1,9,10
 673 56 673 56 603 19.5 c 128,-1,11
 533 -17 533 -17 447 -17 c 128,-1,12
 361 -17 361 -17 281 29.5 c 128,-1,13
 201 76 201 76 150.5 153 c 128,-1,14
 100 230 100 230 100 313 c 2,15,-1
 100 1000 l 1,16,-1
 227 1000 l 1,17,-1
 227 329 l 2,18,0
 227 243 227 243 288.5 173.5 c 128,-1,1
EndSplineSet
EndChar

StartChar: v
Encoding: 118 118 90
Width: 1042
GlyphClass: 1
Flags: W
LayerCount: 2
Fore
SplineSet
521 218 m 1,0,1
 727 778 727 778 806 1000 c 1,2,-1
 942 1000 l 1,3,-1
 575 0 l 1,4,-1
 465 0 l 1,5,-1
 100 1000 l 1,6,-1
 233 1000 l 1,7,-1
 521 218 l 1,0,1
EndSplineSet
EndChar

StartChar: w
Encoding: 119 119 91
Width: 1509
GlyphClass: 1
Flags: W
LayerCount: 2
Fore
SplineSet
235 1000 m 1,0,-1
 462 191 l 1,1,-1
 684 1000 l 1,2,-1
 827 1000 l 1,3,-1
 1042 180 l 1,4,-1
 1275 1000 l 1,5,-1
 1409 1000 l 1,6,-1
 1124 0 l 1,7,-1
 961 0 l 1,8,-1
 757 776 l 1,9,-1
 541 0 l 1,10,-1
 386 0 l 1,11,-1
 100 1000 l 1,12,-1
 235 1000 l 1,0,-1
EndSplineSet
EndChar

StartChar: x
Encoding: 120 120 92
Width: 1038
GlyphClass: 1
Flags: W
LayerCount: 2
Fore
SplineSet
938 0 m 1,0,-1
 784 0 l 1,1,-1
 520 410 l 1,2,-1
 255 0 l 1,3,-1
 100 0 l 1,4,-1
 442 501 l 1,5,-1
 100 1000 l 1,6,-1
 255 1000 l 1,7,-1
 520 604 l 1,8,-1
 784 1000 l 1,9,-1
 937 1000 l 1,10,-1
 599 501 l 1,11,-1
 938 0 l 1,0,-1
EndSplineSet
EndChar

StartChar: y
Encoding: 121 121 93
Width: 1077
GlyphClass: 1
Flags: W
LayerCount: 2
Fore
SplineSet
188 -229 m 1,0,1
 235 -281 235 -281 283 -281 c 0,2,3
 366 -281 366 -281 408 -179 c 1,4,-1
 494 39 l 1,5,-1
 139 1000 l 1,6,-1
 272 1000 l 1,7,-1
 562 223 l 1,8,-1
 839 1000 l 1,9,-1
 977 1000 l 1,10,-1
 544 -198 l 1,11,12
 464 -408 464 -408 282 -408 c 0,13,14
 190 -408 190 -408 100 -316 c 1,15,-1
 188 -229 l 1,0,1
EndSplineSet
EndChar

StartChar: z
Encoding: 122 122 94
Width: 1051
GlyphClass: 1
Flags: W
LayerCount: 2
Fore
SplineSet
951 0 m 1,0,-1
 100 0 l 1,1,-1
 100 123 l 1,2,-1
 756 879 l 1,3,-1
 140 879 l 1,4,-1
 140 1000 l 1,5,-1
 921 1000 l 1,6,-1
 921 874 l 1,7,-1
 266 121 l 1,8,-1
 951 121 l 1,9,-1
 951 0 l 1,0,-1
EndSplineSet
EndChar

StartChar: braceleft
Encoding: 123 123 95
Width: 658
GlyphClass: 1
Flags: W
LayerCount: 2
Fore
SplineSet
100 676 m 1,0,1
 183 687 183 687 229 739 c 128,-1,2
 275 791 275 791 275 864 c 2,3,-1
 275 1133 l 2,4,5
 275 1275 275 1275 337.5 1335.5 c 128,-1,6
 400 1396 400 1396 558 1396 c 1,7,-1
 558 1301 l 1,8,9
 476 1301 476 1301 431.5 1276.5 c 128,-1,10
 387 1252 387 1252 387 1185 c 2,11,-1
 387 912 l 2,12,13
 387 762.37037037 387 762.37037037 335.485655738 701.316332726 c 0,14,15
 283.971311475 640.262295082 283.971311475 640.262295082 220 617 c 1,16,17
 383 554.676470588 383 554.676470588 383 320 c 2,18,-1
 383 49 l 2,19,20
 383 -27.5925925926 383 -27.5925925926 432.590909091 -47.7962962963 c 0,21,22
 482.181818182 -68 482.181818182 -68 554 -68 c 1,23,-1
 554 -163 l 1,24,25
 399 -163 399 -163 335.5 -103 c 128,-1,26
 272 -43 272 -43 272 100 c 2,27,-1
 272 368 l 2,28,29
 272 443 272 443 224.5 495.5 c 128,-1,30
 177 548 177 548 100 556 c 1,31,-1
 100 676 l 1,0,1
EndSplineSet
EndChar

StartChar: bar
Encoding: 124 124 96
Width: 312
GlyphClass: 1
Flags: W
LayerCount: 2
Fore
SplineSet
212 -173 m 1,0,-1
 100 -173 l 1,1,-1
 100 1372 l 1,2,-1
 212 1372 l 1,3,-1
 212 -173 l 1,0,-1
EndSplineSet
EndChar

StartChar: braceright
Encoding: 125 125 97
Width: 658
GlyphClass: 1
Flags: W
LayerCount: 2
Fore
SplineSet
271 1185 m 2,0,1
 271 1252 271 1252 226.5 1276.5 c 128,-1,2
 182 1301 182 1301 100 1301 c 1,3,-1
 100 1396 l 1,4,5
 255 1396 255 1396 319 1336 c 128,-1,6
 383 1276 383 1276 383 1133 c 2,7,-1
 383 864 l 2,8,9
 383 789 383 789 430.5 738 c 128,-1,10
 478 687 478 687 558 676 c 1,11,-1
 558 556 l 1,12,13
 486 548 486 548 436.5 498.5 c 128,-1,14
 387 449 387 449 387 368 c 2,15,-1
 387 100 l 2,16,17
 387 -45 387 -45 321.5 -104 c 128,-1,18
 256 -163 256 -163 103 -163 c 1,19,-1
 103 -68 l 1,20,21
 229.76 -68 229.76 -68 260 -14 c 0,22,23
 274 11 274 11 274 49 c 2,24,-1
 274 320 l 2,25,26
 274 524.2 274 524.2 392 595 c 0,27,28
 412 607 412 607 437 617 c 1,29,30
 317.840036563 660.330895795 317.840036563 660.330895795 285.5 783 c 0,31,32
 271 838 271 838 271 912 c 2,33,-1
 271 1185 l 2,0,1
EndSplineSet
EndChar

StartChar: asciitilde
Encoding: 126 126 98
Width: 1046
GlyphClass: 1
Flags: W
LayerCount: 2
Fore
SplineSet
100 516 m 1,0,1
 168.3125 584.3125 168.3125 584.3125 261.5 614.5 c 0,2,3
 297 626 297 626 335 626 c 0,4,5
 409.509090909 626 409.509090909 626 526 551.5 c 128,-1,6
 642.490909091 477 642.490909091 477 730.995454545 477 c 128,-1,7
 819.5 477 819.5 477 932 577 c 0,8,9
 941 585 941 585 946 591 c 1,10,-1
 946 436 l 1,11,12
 905 395 905 395 838 362.5 c 128,-1,13
 771 330 771 330 721.5 330 c 0,14,15
 633.6 330 633.6 330 516 403.5 c 128,-1,16
 398.4 477 398.4 477 335.2 477 c 128,-1,17
 272 477 272 477 207 443 c 128,-1,18
 142 409 142 409 100 365 c 1,19,-1
 100 516 l 1,0,1
EndSplineSet
EndChar

StartChar: exclamdown
Encoding: 161 161 100
Width: 356
GlyphClass: 1
Flags: W
LayerCount: 2
Fore
SplineSet
100 1069 m 1,0,-1
 100 1229 l 1,1,-1
 256 1229 l 1,2,-1
 256 1069 l 1,3,-1
 100 1069 l 1,0,-1
213 922 m 1,4,5
 245 553 245 553 245 129 c 2,6,-1
 245 0 l 1,7,-1
 110 0 l 1,8,-1
 110 129 l 2,9,10
 110 542 110 542 143 922 c 1,11,-1
 213 922 l 1,4,5
EndSplineSet
EndChar

StartChar: cent
Encoding: 162 162 101
Width: 936
GlyphClass: 1
Flags: W
LayerCount: 2
Fore
SplineSet
289 43 m 1,0,1
 100 181.6 100 181.6 100 454 c 0,2,3
 100 541 100 541 132 631 c 128,-1,4
 164 721 164 721 217.5 781.5 c 128,-1,5
 271 842 271 842 340.5 876.5 c 128,-1,6
 410 911 410 911 459.5 911 c 128,-1,7
 509 911 509 911 531 907 c 1,8,-1
 589 1103 l 1,9,-1
 685 1075 l 1,10,-1
 629 874 l 1,11,12
 753 807 753 807 820 643 c 1,13,-1
 726 604 l 1,14,15
 668 710 668 710 596 760 c 1,16,-1
 416 105 l 1,17,18
 520 78 520 78 605 131.5 c 128,-1,19
 690 185 690 185 732 317 c 1,20,-1
 836 306 l 1,21,22
 801.333333333 167.333333333 801.333333333 167.333333333 707.5 73.5 c 0,23,24
 671 37 671 37 611.5 10.5 c 128,-1,25
 552 -16 552 -16 491.5 -16 c 128,-1,26
 431 -16 431 -16 384 -2 c 1,27,-1
 322 -212 l 1,28,-1
 225 -180 l 1,29,-1
 289 43 l 1,0,1
249 261.541666667 m 128,-1,31
 284 193 284 193 320 159 c 1,32,-1
 502 805 l 1,33,34
 417 819 417 819 349 766.5 c 128,-1,35
 281 714 281 714 247.5 626 c 128,-1,36
 214 538 214 538 214 434.041666667 c 128,-1,30
 214 330.083333333 214 330.083333333 249 261.541666667 c 128,-1,31
EndSplineSet
EndChar

StartChar: sterling
Encoding: 163 163 102
Width: 1057
GlyphClass: 1
Flags: W
LayerCount: 2
Fore
SplineSet
578 136 m 128,-1,1
 695 100 695 100 752 100 c 128,-1,2
 809 100 809 100 912 147 c 1,3,-1
 957 36 l 1,4,5
 836 -15 836 -15 764.5 -15 c 128,-1,6
 693 -15 693 -15 578.5 22 c 128,-1,7
 464 59 464 59 399 59 c 0,8,9
 270 59 270 59 154 -12 c 1,10,-1
 100 119 l 1,11,12
 155.173431734 158.409594096 155.173431734 158.409594096 200.586715867 219.204797048 c 0,13,14
 285 332.209677419 285 332.209677419 285 446 c 0,15,16
 285 498 285 498 274 540 c 1,17,-1
 112 540 l 1,18,-1
 112 650 l 1,19,-1
 241 650 l 1,20,21
 197 790 197 790 197 871 c 0,22,23
 197 1025 197 1025 305.5 1118.5 c 128,-1,24
 414 1212 414 1212 565 1212 c 0,25,26
 771.949579832 1212 771.949579832 1212 869.5 1048.5 c 0,27,28
 905 989 905 989 919 909 c 1,29,30
 857 899 857 899 799 889 c 1,31,32
 783 981 783 981 719.5 1042 c 128,-1,33
 656 1103 656 1103 564 1103 c 128,-1,34
 472 1103 472 1103 395.5 1035 c 128,-1,35
 319 967 319 967 319 880.9 c 128,-1,36
 319 794.8 319 794.8 332.5 748.9 c 128,-1,37
 346 703 346 703 364 650 c 1,38,-1
 652 650 l 1,39,-1
 652 540 l 1,40,-1
 395 540 l 1,41,42
 408 513 408 513 408 462.159090909 c 0,43,44
 408 411.318181818 408 411.318181818 386.604477612 324.763568521 c 128,-1,45
 365.208955224 238.208955224 365.208955224 238.208955224 278 151 c 1,46,47
 339 172 339 172 400 172 c 128,-1,0
 461 172 461 172 578 136 c 128,-1,1
EndSplineSet
EndChar

StartChar: currency
Encoding: 164 164 103
Width: 1024
GlyphClass: 1
Flags: W
LayerCount: 2
Fore
SplineSet
216 432 m 1,0,1
 155 527 155 527 155 633.5 c 128,-1,2
 155 740 155 740 216 839 c 1,3,-1
 100 953 l 1,4,-1
 193 1054 l 1,5,-1
 309 935 l 1,6,7
 403 998 403 998 513.5 998 c 128,-1,8
 624 998 624 998 713 935 c 1,9,-1
 832 1054 l 1,10,-1
 924 954 l 1,11,-1
 806 839 l 1,12,13
 869 745 869 745 869 638.5 c 128,-1,14
 869 532 869 532 806 432 c 1,15,-1
 924 316 l 1,16,-1
 832 217 l 1,17,-1
 713 337 l 1,18,19
 619 271 619 271 507.5 271 c 128,-1,20
 396 271 396 271 309 337 c 1,21,-1
 193 217 l 1,22,-1
 100 317 l 1,23,-1
 216 432 l 1,0,1
506 859 m 256,24,25
 405 859 405 859 345 795 c 128,-1,26
 285 731 285 731 285 633.5 c 128,-1,27
 285 536 285 536 350 473.5 c 128,-1,28
 415 411 415 411 516 411 c 128,-1,29
 617 411 617 411 676 474.5 c 128,-1,30
 735 538 735 538 735 637 c 128,-1,31
 735 736 735 736 670 797.5 c 128,-1,32
 605 859 605 859 506 859 c 256,24,25
EndSplineSet
EndChar

StartChar: yen
Encoding: 165 165 104
Width: 1125
GlyphClass: 1
Flags: W
LayerCount: 2
Fore
SplineSet
493 0 m 1,0,-1
 493 270 l 1,1,-1
 151 270 l 1,2,-1
 151 377 l 1,3,-1
 493 377 l 1,4,-1
 493 503 l 1,5,-1
 151 503 l 1,6,-1
 151 619 l 1,7,-1
 434 619 l 1,8,-1
 100 1193 l 1,9,-1
 253 1193 l 1,10,-1
 562 650 l 1,11,-1
 868 1193 l 1,12,-1
 1025 1193 l 1,13,-1
 691 619 l 1,14,-1
 975 619 l 1,15,-1
 975 503 l 1,16,-1
 633 503 l 1,17,-1
 633 377 l 1,18,-1
 975 377 l 1,19,-1
 975 270 l 1,20,-1
 633 270 l 1,21,-1
 633 0 l 1,22,-1
 493 0 l 1,0,-1
EndSplineSet
EndChar

StartChar: brokenbar
Encoding: 166 166 105
Width: 328
GlyphClass: 1
Flags: W
LayerCount: 2
Fore
SplineSet
228 1266 m 1,0,-1
 228 600 l 1,1,-1
 100 600 l 1,2,-1
 100 1266 l 1,3,-1
 228 1266 l 1,0,-1
228 300 m 1,4,-1
 228 -368 l 1,5,-1
 100 -368 l 1,6,-1
 100 300 l 1,7,-1
 228 300 l 1,4,-1
EndSplineSet
EndChar

StartChar: section
Encoding: 167 167 106
Width: 910
GlyphClass: 1
Flags: W
LayerCount: 2
Fore
SplineSet
155 -300 m 1,0,1
 155 -268 155 -268 166 -247.5 c 128,-1,2
 177 -227 177 -227 188 -221 c 128,-1,3
 199 -215 199 -215 215 -210 c 1,4,5
 293 -303 293 -303 410 -303 c 0,6,7
 491.53125 -303 491.53125 -303 544.265625 -280.5 c 0,8,9
 640 -239.653333333 640 -239.653333333 640 -135.037192982 c 128,-1,10
 640 -30.4210526316 640 -30.4210526316 532.5 42 c 0,11,12
 485 74 485 74 376.871069182 126.65408805 c 0,13,14
 268.742138365 179.308176101 268.742138365 179.308176101 207.5 222.5 c 0,15,16
 100 298.315789474 100 298.315789474 100 409.157894737 c 128,-1,17
 100 520 100 520 151.5 599.5 c 128,-1,18
 203 679 203 679 263 727 c 1,19,20
 229 766 229 766 213 787.5 c 0,21,22
 169 846.625 169 846.625 169 918 c 0,23,24
 169 1058 169 1058 266.5 1145.5 c 128,-1,25
 364 1233 364 1233 501 1233 c 0,26,27
 569.068965517 1233 569.068965517 1233 632.034482759 1211 c 0,28,29
 751 1169.43373494 751 1169.43373494 751 1104 c 1,30,31
 747 1082 747 1082 719.5 1066.5 c 128,-1,32
 692 1051 692 1051 669 1051 c 1,33,34
 644 1093 644 1093 605 1106 c 128,-1,35
 566 1119 566 1119 485 1119 c 128,-1,36
 404 1119 404 1119 344 1055 c 128,-1,37
 284 991 284 991 284 929 c 128,-1,38
 284 867 284 867 313 824 c 128,-1,39
 342 781 342 781 388.5 749 c 128,-1,40
 435 717 435 717 537.04206501 661.423518164 c 0,41,42
 639.084130019 605.847036329 639.084130019 605.847036329 705.5 553 c 0,43,44
 810 469.849462366 810 469.849462366 810 338.924731183 c 128,-1,45
 810 208 810 208 641 88 c 1,46,47
 686 53 686 53 718.5 -11.5 c 128,-1,48
 751 -76 751 -76 751 -151 c 128,-1,49
 751 -226 751 -226 701.5 -289 c 0,50,51
 604.071428571 -413 604.071428571 -413 425.035714286 -413 c 128,-1,52
 246 -413 246 -413 155 -300 c 1,0,1
344 654 m 1,53,54
 215 546 215 546 215 420 c 0,55,56
 215 326.422535211 215 326.422535211 320.5 265.5 c 0,57,58
 375.634955752 233.661504425 375.634955752 233.661504425 457.317477876 199.830752212 c 128,-1,59
 539 166 539 166 561 150 c 1,60,61
 652 234 652 234 677.5 267 c 128,-1,62
 703 300 703 300 703 355.5 c 128,-1,63
 703 411 703 411 663 455 c 128,-1,64
 623 499 623 499 513.5 556 c 128,-1,65
 404 613 404 613 344 654 c 1,53,54
EndSplineSet
EndChar

StartChar: dieresis
Encoding: 168 168 107
Width: 670
GlyphClass: 1
Flags: W
LayerCount: 2
Fore
SplineSet
234 1208 m 1,0,-1
 100 1208 l 1,1,-1
 100 1355 l 1,2,-1
 234 1355 l 1,3,-1
 234 1208 l 1,0,-1
570 1208 m 1,4,-1
 438 1208 l 1,5,-1
 438 1355 l 1,6,-1
 570 1355 l 1,7,-1
 570 1208 l 1,4,-1
EndSplineSet
EndChar

StartChar: copyright
Encoding: 169 169 108
Width: 1474
GlyphClass: 1
Flags: W
LayerCount: 2
Fore
SplineSet
100 627 m 256,0,1
 100 799 100 799 187.5 947 c 128,-1,2
 275 1095 275 1095 422 1181.5 c 128,-1,3
 569 1268 569 1268 718 1268 c 128,-1,4
 867 1268 867 1268 985 1217 c 128,-1,5
 1103 1166 1103 1166 1188 1080 c 128,-1,6
 1273 994 1273 994 1323.5 875.5 c 128,-1,7
 1374 757 1374 757 1374 627 c 128,-1,8
 1374 497 1374 497 1323.5 378.5 c 128,-1,9
 1273 260 1273 260 1188 174 c 128,-1,10
 1103 88 1103 88 985.5 37 c 128,-1,11
 868 -14 868 -14 715 -14 c 128,-1,12
 562 -14 562 -14 414.5 74.5 c 128,-1,13
 267 163 267 163 183.5 310 c 128,-1,14
 100 457 100 457 100 627 c 256,0,1
1204.5 357 m 128,-1,16
 1277 482 1277 482 1277 625.5 c 128,-1,17
 1277 769 1277 769 1204 894 c 128,-1,18
 1131 1019 1131 1019 1008 1093 c 128,-1,19
 885 1167 885 1167 760 1167 c 128,-1,20
 635 1167 635 1167 534.5 1124.5 c 128,-1,21
 434 1082 434 1082 360.5 1009.5 c 128,-1,22
 287 937 287 937 243 837 c 128,-1,23
 199 737 199 737 199 627.5 c 128,-1,24
 199 518 199 518 242 417.5 c 128,-1,25
 285 317 285 317 357.5 244 c 128,-1,26
 430 171 430 171 529.5 127.5 c 128,-1,27
 629 84 629 84 756 84 c 128,-1,28
 883 84 883 84 1007.5 158 c 128,-1,15
 1132 232 1132 232 1204.5 357 c 128,-1,16
570.5 429 m 128,-1,30
 627 350 627 350 720 350 c 128,-1,31
 813 350 813 350 872.5 397.5 c 128,-1,32
 932 445 932 445 948 517 c 1,33,-1
 1044 488 l 1,34,35
 1020 381 1020 381 934 318 c 128,-1,36
 848 255 848 255 742.5 255 c 128,-1,37
 637 255 637 255 560 306 c 0,38,39
 407 407.337662338 407 407.337662338 407 625 c 0,40,41
 407 778 407 778 498.5 883.5 c 128,-1,42
 590 989 590 989 745 989 c 0,43,44
 842 989 842 989 924 935 c 128,-1,45
 1006 881 1006 881 1031 788 c 1,46,-1
 938 765 l 1,47,48
 914 823 914 823 863 861.5 c 128,-1,49
 812 900 812 900 744 900 c 0,50,51
 633 900 633 900 573.5 816.5 c 128,-1,52
 514 733 514 733 514 620.5 c 128,-1,29
 514 508 514 508 570.5 429 c 128,-1,30
EndSplineSet
EndChar

StartChar: ordfeminine
Encoding: 170 170 109
Width: 685
GlyphClass: 1
Flags: W
LayerCount: 2
Fore
SplineSet
553 1027 m 1,0,1
 553 1027 553 1027 551 873 c 128,-1,2
 549 719 549 719 585 634 c 1,3,-1
 505 609 l 1,4,5
 485 647 485 647 477 681 c 1,6,7
 394 609 394 609 300 609 c 0,8,9
 161.142857143 609 161.142857143 609 116 688 c 0,10,11
 100 716 100 716 100 755 c 0,12,13
 100 832.298507463 100 832.298507463 161.50832968 882.790419887 c 128,-1,14
 223.01665936 933.28233231 223.01665936 933.28233231 421 961 c 0,15,16
 442 964 442 964 463 970 c 1,17,18
 463 1043 463 1043 441 1077 c 128,-1,19
 419 1111 419 1111 357.5 1111 c 128,-1,20
 296 1111 296 1111 250.5 1078 c 128,-1,21
 205 1045 205 1045 188 992 c 1,22,-1
 104 1011 l 1,23,24
 123 1097 123 1097 193 1144.5 c 128,-1,25
 263 1192 263 1192 349.5 1192 c 128,-1,26
 436 1192 436 1192 494.5 1151 c 128,-1,27
 553 1110 553 1110 553 1027 c 1,0,1
296 693 m 0,28,29
 340 693 340 693 388.5 720 c 128,-1,30
 437 747 437 747 463 782 c 1,31,-1
 463 883 l 1,32,33
 461.209884831 882.674524515 461.209884831 882.674524515 429.838105252 880.189793572 c 0,34,35
 189 861.114755422 189 861.114755422 189 753 c 0,36,37
 189 693 189 693 296 693 c 0,28,29
EndSplineSet
EndChar

StartChar: guillemotleft
Encoding: 171 171 110
Width: 885
GlyphClass: 1
Flags: W
LayerCount: 2
Fore
SplineSet
563 500 m 1,0,-1
 785 112 l 1,1,-1
 665 112 l 1,2,-1
 400 500 l 1,3,-1
 665 888 l 1,4,-1
 785 888 l 1,5,-1
 563 500 l 1,0,-1
263 500 m 1,6,-1
 485 112 l 1,7,-1
 365 112 l 1,8,-1
 100 500 l 1,9,-1
 365 888 l 1,10,-1
 485 888 l 1,11,-1
 263 500 l 1,6,-1
EndSplineSet
EndChar

StartChar: logicalnot
Encoding: 172 172 111
Width: 727
GlyphClass: 1
Flags: W
LayerCount: 2
Fore
SplineSet
527 385 m 1,0,-1
 527 535 l 1,1,-1
 100 535 l 1,2,-1
 100 660 l 1,3,-1
 627 660 l 1,4,-1
 627 385 l 1,5,-1
 527 385 l 1,0,-1
EndSplineSet
EndChar

StartChar: uni00AD
Encoding: 173 173 112
Width: 727
GlyphClass: 1
Flags: W
LayerCount: 2
Fore
SplineSet
100 660 m 1,0,-1
 627 660 l 1,1,-1
 627 535 l 1,2,-1
 100 535 l 1,3,-1
 100 660 l 1,0,-1
EndSplineSet
EndChar

StartChar: registered
Encoding: 174 174 113
Width: 1474
GlyphClass: 1
Flags: W
LayerCount: 2
Fore
SplineSet
186.5 303.5 m 128,-1,1
 100 451 100 451 100 603 c 128,-1,2
 100 755 100 755 151.5 873.5 c 128,-1,3
 203 992 203 992 289 1078.5 c 128,-1,4
 375 1165 375 1165 492.5 1216.5 c 128,-1,5
 610 1268 610 1268 738.5 1268 c 128,-1,6
 867 1268 867 1268 985 1217 c 128,-1,7
 1103 1166 1103 1166 1188 1080 c 128,-1,8
 1273 994 1273 994 1323.5 875.5 c 128,-1,9
 1374 757 1374 757 1374 603.5 c 128,-1,10
 1374 450 1374 450 1287.5 302 c 128,-1,11
 1201 154 1201 154 1055 70 c 128,-1,12
 909 -14 909 -14 738 -14 c 128,-1,13
 567 -14 567 -14 420 71 c 128,-1,0
 273 156 273 156 186.5 303.5 c 128,-1,1
1205 357 m 128,-1,15
 1277 482 1277 482 1277 606.5 c 128,-1,16
 1277 731 1277 731 1234 830.5 c 128,-1,17
 1191 930 1191 930 1119.5 1003.5 c 128,-1,18
 1048 1077 1048 1077 949 1122 c 128,-1,19
 850 1167 850 1167 742.5 1167 c 128,-1,20
 635 1167 635 1167 534.5 1124.5 c 128,-1,21
 434 1082 434 1082 360.5 1009.5 c 128,-1,22
 287 937 287 937 243 837 c 128,-1,23
 199 737 199 737 199 627.5 c 128,-1,24
 199 518 199 518 242 417.5 c 128,-1,25
 285 317 285 317 357.5 244 c 128,-1,26
 430 171 430 171 529.5 127.5 c 128,-1,27
 629 84 629 84 756.5 84 c 128,-1,28
 884 84 884 84 1008.5 158 c 128,-1,14
 1133 232 1133 232 1205 357 c 128,-1,15
953.5 918.5 m 128,-1,30
 1017 871 1017 871 1017 788 c 128,-1,31
 1017 705 1017 705 960.5 653 c 128,-1,32
 904 601 904 601 818 595 c 1,33,34
 904.660909411 565.498413817 904.660909411 565.498413817 1007 387 c 0,35,36
 1050 312 1050 312 1063 291 c 1,37,-1
 937 291 l 1,38,39
 923 316 923 316 893 375.5 c 128,-1,40
 863 435 863 435 836 475 c 0,41,42
 765 581 765 581 675 581 c 2,43,-1
 603 581 l 1,44,-1
 603 291 l 1,45,-1
 504 291 l 1,46,-1
 504 966 l 1,47,-1
 733 966 l 2,48,29
 890 966 890 966 953.5 918.5 c 128,-1,30
909 777 m 256,49,50
 909 882 909 882 733 882 c 2,51,-1
 603 882 l 1,52,-1
 603 669 l 1,53,-1
 741 669 l 2,54,55
 833.181818182 669 833.181818182 669 871 695 c 128,-1,56
 909 721.125 909 721.125 909 777 c 256,49,50
EndSplineSet
EndChar

StartChar: macron
Encoding: 175 175 114
Width: 1182
GlyphClass: 1
Flags: W
LayerCount: 2
Fore
SplineSet
1082 1258 m 1,0,-1
 100 1258 l 1,1,-1
 100 1372 l 1,2,-1
 1082 1372 l 1,3,-1
 1082 1258 l 1,0,-1
EndSplineSet
EndChar

StartChar: degree
Encoding: 176 176 115
Width: 698
GlyphClass: 1
Flags: W
LayerCount: 2
Fore
SplineSet
349 788 m 256,0,1
 246 788 246 788 173 861 c 128,-1,2
 100 934 100 934 100 1037.5 c 0,3,4
 100 1141 100 1141 173 1212 c 128,-1,5
 246 1283 246 1283 349.5 1283 c 0,6,7
 453 1283 453 1283 525.5 1212 c 128,-1,8
 598 1141 598 1141 598 1037.5 c 0,9,10
 598 934 598 934 526 861 c 128,-1,11
 454 788 454 788 349 788 c 256,0,1
349 1179 m 256,12,13
 288 1179 288 1179 246.5 1137 c 128,-1,14
 205 1095 205 1095 205 1037 c 128,-1,15
 205 979 205 979 247 935.5 c 128,-1,16
 289 892 289 892 349.5 892 c 0,17,18
 410 892 410 892 452 935 c 128,-1,19
 494 978 494 978 494 1036.5 c 0,20,21
 494 1095 494 1095 452 1137 c 128,-1,22
 410 1179 410 1179 349 1179 c 256,12,13
EndSplineSet
EndChar

StartChar: plusminus
Encoding: 177 177 116
Width: 1215
GlyphClass: 1
Flags: W
LayerCount: 2
Fore
SplineSet
565 1003 m 1,0,-1
 654 1003 l 1,1,-1
 654 707 l 1,2,-1
 1115 707 l 1,3,-1
 1115 616 l 1,4,-1
 654 616 l 1,5,-1
 654 322 l 1,6,-1
 565 322 l 1,7,-1
 565 616 l 1,8,-1
 100 616 l 1,9,-1
 100 707 l 1,10,-1
 565 707 l 1,11,-1
 565 1003 l 1,0,-1
100 127 m 1,12,-1
 1115 127 l 1,13,-1
 1115 35 l 1,14,-1
 100 35 l 1,15,-1
 100 127 l 1,12,-1
EndSplineSet
EndChar

StartChar: twosuperior
Encoding: 178 178 117
Width: 646
GlyphClass: 1
Flags: W
LayerCount: 2
Fore
SplineSet
485 1192 m 128,-1,1
 545 1145 545 1145 545 1071 c 128,-1,2
 545 997 545 997 504 936 c 128,-1,3
 463 875 463 875 413 834 c 0,4,5
 259.850393701 708.417322835 259.850393701 708.417322835 241 677 c 1,6,-1
 546 677 l 1,7,-1
 546 597 l 1,8,-1
 100 597 l 1,9,10
 105.624789994 701.996079895 105.624789994 701.996079895 226 799.5 c 0,11,12
 276 840 276 840 326 879.5 c 0,13,14
 445 973.51 445 973.51 445 1054 c 0,15,16
 445 1096 445 1096 415 1127.5 c 128,-1,17
 385 1159 385 1159 347 1159 c 0,18,19
 309 1159 309 1159 266.166666667 1137.58333333 c 128,-1,20
 223.333333333 1116.16666667 223.333333333 1116.16666667 211 1036 c 1,21,22
 193 1037 193 1037 163 1038.5 c 128,-1,23
 133 1040 133 1040 115 1042 c 1,24,25
 146.774193548 1239 146.774193548 1239 336 1239 c 0,26,0
 425 1239 425 1239 485 1192 c 128,-1,1
EndSplineSet
EndChar

StartChar: threesuperior
Encoding: 179 179 118
Width: 640
GlyphClass: 1
Flags: W
LayerCount: 2
Fore
SplineSet
381 1135.5 m 128,-1,1
 350 1164 350 1164 309.5 1164 c 128,-1,2
 269 1164 269 1164 245 1141.5 c 128,-1,3
 221 1119 221 1119 199 1056 c 1,4,-1
 109 1073 l 1,5,6
 159 1244 159 1244 310 1244 c 0,7,8
 388 1244 388 1244 450.5 1198.5 c 128,-1,9
 513 1153 513 1153 513 1075.5 c 128,-1,10
 513 998 513 998 444 948 c 1,11,12
 540 898 540 898 540 801.5 c 128,-1,13
 540 705 540 705 469.5 648.5 c 128,-1,14
 399 592 399 592 295.287671233 592 c 0,15,16
 191.575342466 592 191.575342466 592 131 692.5 c 0,17,18
 109 729 109 729 100 779 c 1,19,-1
 184 783 l 1,20,21
 216 673 216 673 305 673 c 0,22,23
 364 673 364 673 401.5 708.5 c 128,-1,24
 439 744 439 744 439 798 c 0,25,26
 439 903 439 903 317 903 c 2,27,-1
 288.5 903 l 2,28,29
 275 903 275 903 261 902 c 1,30,31
 262 906 262 906 262.5 911.5 c 128,-1,32
 263 917 263 917 264 921 c 2,33,-1
 271 958 l 2,34,35
 272 962 272 962 272.5 967.5 c 128,-1,36
 273 973 273 973 274 977 c 1,37,38
 331 977 331 977 371.5 1002 c 128,-1,39
 412 1027 412 1027 412 1067 c 128,-1,0
 412 1107 412 1107 381 1135.5 c 128,-1,1
EndSplineSet
EndChar

StartChar: acute
Encoding: 180 180 119
Width: 495
GlyphClass: 1
Flags: W
LayerCount: 2
Fore
SplineSet
207 1319 m 1,0,-1
 395 1319 l 1,1,-1
 211 1091 l 1,2,-1
 100 1091 l 1,3,-1
 207 1319 l 1,0,-1
EndSplineSet
EndChar

StartChar: uni00B5
Encoding: 181 181 120
Width: 1249
GlyphClass: 1
Flags: W
LayerCount: 2
Fore
SplineSet
681 12.5 m 128,-1,1
 603 -19 603 -19 493 -19 c 128,-1,2
 383 -19 383 -19 305 79 c 1,3,-1
 223 -304 l 1,4,-1
 100 -304 l 1,5,-1
 378 1000 l 1,6,-1
 502 1000 l 1,7,-1
 364 351 l 2,8,9
 345 264 345 264 397 184 c 128,-1,10
 449 104 449 104 540 104 c 128,-1,11
 631 104 631 104 747 179 c 128,-1,12
 863 254 863 254 884 351 c 2,13,-1
 1022 1000 l 1,14,-1
 1149 1000 l 1,15,-1
 960 113 l 1,16,-1
 1071 112 l 1,17,-1
 1051 0 l 1,18,-1
 936 0 l 2,19,20
 855.755404317 0 855.755404317 0 835.407957441 8.00477993652 c 128,-1,21
 815.060510566 16.009559873 815.060510566 16.009559873 820.530255283 47.0047799365 c 128,-1,22
 826 78 826 78 836 125 c 1,23,0
 759 44 759 44 681 12.5 c 128,-1,1
EndSplineSet
EndChar

StartChar: paragraph
Encoding: 182 182 121
Width: 999
GlyphClass: 1
Flags: W
LayerCount: 2
Fore
SplineSet
445 1070 m 2,0,-1
 899 1070 l 1,1,-1
 899 965 l 1,2,-1
 793 965 l 1,3,-1
 793 -290 l 1,4,-1
 690 -290 l 1,5,-1
 690 965 l 1,6,-1
 504 965 l 1,7,-1
 504 -290 l 1,8,-1
 406 -290 l 1,9,-1
 406 483 l 1,10,11
 274 485 274 485 187 566 c 128,-1,12
 100 647 100 647 100 785.439393939 c 128,-1,13
 100 923.878787879 100 923.878787879 204.826086957 996.939393939 c 128,-1,14
 309.652173913 1070 309.652173913 1070 445 1070 c 2,0,-1
406 967 m 1,15,16
 323 965 323 965 270.5 912.5 c 128,-1,17
 218 860 218 860 218 778 c 128,-1,18
 218 696 218 696 267 642 c 128,-1,19
 316 588 316 588 406 586 c 1,20,-1
 406 967 l 1,15,16
EndSplineSet
EndChar

StartChar: periodcentered
Encoding: 183 183 122
Width: 368
GlyphClass: 1
Flags: W
LayerCount: 2
Fore
SplineSet
100 587 m 1,0,-1
 100 776 l 1,1,-1
 268 776 l 1,2,-1
 268 587 l 1,3,-1
 100 587 l 1,0,-1
EndSplineSet
EndChar

StartChar: cedilla
Encoding: 184 184 123
Width: 626
GlyphClass: 1
Flags: W
LayerCount: 2
Fore
SplineSet
392.5 -173 m 128,-1,1
 364 -154 364 -154 347 -154 c 128,-1,2
 330 -154 330 -154 271 -160 c 1,3,-1
 271 -20 l 1,4,-1
 319 -20 l 1,5,-1
 319 -103 l 1,6,7
 397 -78 397 -78 461.5 -116.5 c 128,-1,8
 526 -155 526 -155 526 -229.5 c 128,-1,9
 526 -304 526 -304 477 -344 c 128,-1,10
 428 -384 428 -384 341.5 -384 c 128,-1,11
 255 -384 255 -384 100 -317 c 1,12,-1
 123 -258 l 1,13,14
 144.363148649 -266.011180743 144.363148649 -266.011180743 170.71114767 -277.091384419 c 128,-1,15
 197.05914669 -288.171588094 197.05914669 -288.171588094 233.390684456 -302.085794047 c 128,-1,16
 269.722222222 -316 269.722222222 -316 315 -316 c 0,17,18
 421 -316 421 -316 421 -235 c 0,19,0
 421 -192 421 -192 392.5 -173 c 128,-1,1
EndSplineSet
EndChar

StartChar: onesuperior
Encoding: 185 185 124
Width: 462
GlyphClass: 1
Flags: W
LayerCount: 2
Fore
SplineSet
100 1073 m 1,0,1
 150 1087 150 1087 210 1135.5 c 128,-1,2
 270 1184 270 1184 292 1229 c 1,3,-1
 362 1229 l 1,4,-1
 362 591 l 1,5,-1
 262 591 l 1,6,-1
 262 1072 l 1,7,8
 190 1020 190 1020 100 985 c 1,9,-1
 100 1073 l 1,0,1
EndSplineSet
EndChar

StartChar: ordmasculine
Encoding: 186 186 125
Width: 775
GlyphClass: 1
Flags: W
LayerCount: 2
Fore
SplineSet
599 1138.5 m 128,-1,1
 675 1046 675 1046 675 898.207317073 c 0,2,3
 675 750.414634146 675 750.414634146 588.460526316 670.207317073 c 0,4,5
 501.921052632 590 501.921052632 590 388.460526316 590 c 128,-1,6
 275 590 275 590 187.5 675 c 128,-1,7
 100 760 100 760 100 900 c 0,8,9
 100 1040 100 1040 170.586956522 1135.5 c 0,10,11
 241.173913043 1231 241.173913043 1231 382.086956522 1231 c 128,-1,0
 523 1231 523 1231 599 1138.5 c 128,-1,1
392 653 m 256,12,13
 520.683168317 653 520.683168317 653 563.5 792.5 c 0,14,15
 579 843 579 843 579 887.5 c 128,-1,16
 579 932 579 932 577 955.5 c 128,-1,17
 575 979 575 979 564 1020 c 128,-1,18
 553 1061 553 1061 535 1091.5 c 128,-1,19
 517 1122 517 1122 479.5 1145 c 128,-1,20
 442 1168 442 1168 392 1168 c 0,21,22
 304 1168 304 1168 250.5 1099 c 128,-1,23
 197 1030 197 1030 197 927.777777778 c 0,24,25
 197 825.555555556 197 825.555555556 217.5 782.277777778 c 128,-1,26
 238 739 238 739 258 712 c 0,27,28
 301.703703704 653 301.703703704 653 392 653 c 256,12,13
EndSplineSet
EndChar

StartChar: guillemotright
Encoding: 187 187 126
Width: 885
GlyphClass: 1
Flags: W
LayerCount: 2
Fore
SplineSet
520 888 m 1,0,-1
 785 500 l 1,1,-1
 520 112 l 1,2,-1
 400 112 l 1,3,-1
 622 500 l 1,4,-1
 400 888 l 1,5,-1
 520 888 l 1,0,-1
220 888 m 1,6,-1
 485 500 l 1,7,-1
 220 112 l 1,8,-1
 100 112 l 1,9,-1
 322 500 l 1,10,-1
 100 888 l 1,11,-1
 220 888 l 1,6,-1
EndSplineSet
EndChar

StartChar: onequarter
Encoding: 188 188 127
Width: 1500
GlyphClass: 1
Flags: W
LayerCount: 2
Fore
SplineSet
230 -45 m 1,0,-1
 1160 1265 l 1,1,-1
 1276 1265 l 1,2,-1
 344 -45 l 1,3,-1
 230 -45 l 1,0,-1
100 1073 m 1,4,5
 150 1087 150 1087 210 1135.5 c 128,-1,6
 270 1184 270 1184 292 1229 c 1,7,-1
 362 1229 l 1,8,-1
 362 591 l 1,9,-1
 262 591 l 1,10,-1
 262 1072 l 1,11,12
 190 1020 190 1020 100 985 c 1,13,-1
 100 1073 l 1,4,5
1201 0 m 1,14,-1
 1201 132 l 1,15,-1
 879 132 l 1,16,-1
 879 228 l 1,17,-1
 1221 629 l 1,18,-1
 1301 629 l 1,19,-1
 1301 212 l 1,20,-1
 1400 212 l 1,21,-1
 1400 132 l 1,22,-1
 1301 132 l 1,23,-1
 1301 0 l 1,24,-1
 1201 0 l 1,14,-1
1201 212 m 1,25,-1
 1201 458 l 1,26,-1
 988 212 l 1,27,-1
 1201 212 l 1,25,-1
EndSplineSet
EndChar

StartChar: onehalf
Encoding: 189 189 128
Width: 1460
GlyphClass: 1
Flags: W
LayerCount: 2
Fore
SplineSet
185 -45 m 1,0,-1
 1115 1265 l 1,1,-1
 1231 1265 l 1,2,-1
 299 -45 l 1,3,-1
 185 -45 l 1,0,-1
100 1073 m 1,4,5
 150 1087 150 1087 210 1135.5 c 128,-1,6
 270 1184 270 1184 292 1229 c 1,7,-1
 362 1229 l 1,8,-1
 362 591 l 1,9,-1
 262 591 l 1,10,-1
 262 1072 l 1,11,12
 190 1020 190 1020 100 985 c 1,13,-1
 100 1073 l 1,4,5
1299 596 m 128,-1,15
 1359 549 1359 549 1359 475 c 128,-1,16
 1359 401 1359 401 1318 340 c 128,-1,17
 1277 279 1277 279 1227 238 c 0,18,19
 1073.8503937 112.417322835 1073.8503937 112.417322835 1055 81 c 1,20,-1
 1360 81 l 1,21,-1
 1360 1 l 1,22,-1
 914 1 l 1,23,24
 919.624789994 105.996079895 919.624789994 105.996079895 1040 203.5 c 0,25,26
 1090 244 1090 244 1140 283.5 c 0,27,28
 1259 377.51 1259 377.51 1259 458 c 0,29,30
 1259 500 1259 500 1229 531.5 c 128,-1,31
 1199 563 1199 563 1161 563 c 0,32,33
 1123 563 1123 563 1080.16666667 541.583333333 c 128,-1,34
 1037.33333333 520.166666667 1037.33333333 520.166666667 1025 440 c 1,35,36
 1007 441 1007 441 977 442.5 c 128,-1,37
 947 444 947 444 929 446 c 1,38,39
 960.774193548 643 960.774193548 643 1150 643 c 0,40,14
 1239 643 1239 643 1299 596 c 128,-1,15
EndSplineSet
EndChar

StartChar: threequarters
Encoding: 190 190 129
Width: 1471
GlyphClass: 1
Flags: W
LayerCount: 2
Fore
SplineSet
201 -45 m 1,0,-1
 1131 1265 l 1,1,-1
 1247 1265 l 1,2,-1
 315 -45 l 1,3,-1
 201 -45 l 1,0,-1
381 1135.5 m 128,-1,5
 350 1164 350 1164 309.5 1164 c 128,-1,6
 269 1164 269 1164 245 1141.5 c 128,-1,7
 221 1119 221 1119 199 1056 c 1,8,-1
 109 1073 l 1,9,10
 159 1244 159 1244 310 1244 c 0,11,12
 388 1244 388 1244 450.5 1198.5 c 128,-1,13
 513 1153 513 1153 513 1075.5 c 128,-1,14
 513 998 513 998 444 948 c 1,15,16
 540 898 540 898 540 801.5 c 128,-1,17
 540 705 540 705 469.5 648.5 c 128,-1,18
 399 592 399 592 295.287671233 592 c 0,19,20
 191.575342466 592 191.575342466 592 131 692.5 c 0,21,22
 109 729 109 729 100 779 c 1,23,-1
 184 783 l 1,24,25
 216 673 216 673 305 673 c 0,26,27
 364 673 364 673 401.5 708.5 c 128,-1,28
 439 744 439 744 439 798 c 0,29,30
 439 903 439 903 317 903 c 2,31,-1
 288.5 903 l 2,32,33
 275 903 275 903 261 902 c 1,34,35
 262 906 262 906 262.5 911.5 c 128,-1,36
 263 917 263 917 264 921 c 2,37,-1
 271 958 l 2,38,39
 272 962 272 962 272.5 967.5 c 128,-1,40
 273 973 273 973 274 977 c 1,41,42
 331 977 331 977 371.5 1002 c 128,-1,43
 412 1027 412 1027 412 1067 c 128,-1,4
 412 1107 412 1107 381 1135.5 c 128,-1,5
1172 0 m 1,44,-1
 1172 132 l 1,45,-1
 850 132 l 1,46,-1
 850 228 l 1,47,-1
 1192 629 l 1,48,-1
 1272 629 l 1,49,-1
 1272 212 l 1,50,-1
 1371 212 l 1,51,-1
 1371 132 l 1,52,-1
 1272 132 l 1,53,-1
 1272 0 l 1,54,-1
 1172 0 l 1,44,-1
1172 212 m 1,55,-1
 1172 458 l 1,56,-1
 959 212 l 1,57,-1
 1172 212 l 1,55,-1
EndSplineSet
EndChar

StartChar: questiondown
Encoding: 191 191 130
Width: 973
GlyphClass: 1
Flags: W
LayerCount: 2
Fore
SplineSet
403 1083 m 1,0,-1
 403 1243 l 1,1,-1
 560 1243 l 1,2,-1
 560 1083 l 1,3,-1
 403 1083 l 1,0,-1
855 440 m 128,-1,5
 873 389 873 389 873 319 c 128,-1,6
 873 249 873 249 839.5 185.5 c 128,-1,7
 806 122 806 122 751 82.5 c 0,8,9
 636.126582278 -1.04083408559e-17 636.126582278 -1.04083408559e-17 492.541552009 -5.20417042793e-18 c 0,10,11
 348.956521739 0 348.956521739 0 273.680508061 45.5617977528 c 0,12,13
 198.404494382 91.1235955056 198.404494382 91.1235955056 147 202.5 c 0,14,15
 126 248 126 248 100 321 c 1,16,17
 153 343 153 343 228 343 c 1,18,19
 244.615085158 249.540145985 244.615085158 249.540145985 287.307542579 195.270072993 c 0,20,21
 365.4 96 365.4 96 475.2 96 c 128,-1,22
 585 96 585 96 665 164 c 128,-1,23
 745 232 745 232 745 325.161290323 c 0,24,25
 745 418.322580645 745 418.322580645 632.5 540.5 c 0,26,27
 586 591 586 591 539 646.5 c 0,28,29
 426 779.936170213 426 779.936170213 426 938 c 1,30,-1
 539 938 l 1,31,32
 540.929464732 804.866933467 540.929464732 804.866933467 607.5 722.5 c 0,33,34
 647.578282828 672.911616162 647.578282828 672.911616162 713.289141414 616.455808081 c 128,-1,35
 779 560 779 560 808 525.5 c 128,-1,4
 837 491 837 491 855 440 c 128,-1,5
EndSplineSet
EndChar

StartChar: Agrave
Encoding: 192 192 131
Width: 1402
GlyphClass: 1
Flags: W
LayerCount: 2
Fore
SplineSet
848 1463 m 1,0,-1
 738 1463 l 1,1,-1
 554 1691 l 1,2,-1
 741 1691 l 1,3,-1
 848 1463 l 1,0,-1
100 0 m 1,4,-1
 606 1372 l 1,5,-1
 798 1372 l 1,6,-1
 1302 0 l 1,7,-1
 1146 0 l 1,8,-1
 992 420 l 1,9,-1
 407 420 l 1,10,-1
 256 0 l 1,11,-1
 100 0 l 1,4,-1
460 550 m 1,12,-1
 943 550 l 1,13,-1
 703 1216 l 1,14,-1
 460 550 l 1,12,-1
EndSplineSet
EndChar

StartChar: Aacute
Encoding: 193 193 132
Width: 1402
GlyphClass: 1
Flags: W
LayerCount: 2
Fore
SplineSet
661 1691 m 1,0,-1
 849 1691 l 1,1,-1
 665 1463 l 1,2,-1
 554 1463 l 1,3,-1
 661 1691 l 1,0,-1
100 0 m 1,4,-1
 606 1372 l 1,5,-1
 798 1372 l 1,6,-1
 1302 0 l 1,7,-1
 1146 0 l 1,8,-1
 992 420 l 1,9,-1
 407 420 l 1,10,-1
 256 0 l 1,11,-1
 100 0 l 1,4,-1
460 550 m 1,12,-1
 943 550 l 1,13,-1
 703 1216 l 1,14,-1
 460 550 l 1,12,-1
EndSplineSet
EndChar

StartChar: Acircumflex
Encoding: 194 194 133
Width: 1402
GlyphClass: 1
Flags: W
LayerCount: 2
Fore
SplineSet
702 1578 m 1,0,-1
 604 1462 l 1,1,-1
 454 1462 l 1,2,-1
 625 1672 l 1,3,-1
 779 1672 l 1,4,-1
 949 1462 l 1,5,-1
 798 1462 l 1,6,-1
 702 1578 l 1,0,-1
100 0 m 1,7,-1
 606 1372 l 1,8,-1
 798 1372 l 1,9,-1
 1302 0 l 1,10,-1
 1146 0 l 1,11,-1
 992 420 l 1,12,-1
 407 420 l 1,13,-1
 256 0 l 1,14,-1
 100 0 l 1,7,-1
460 550 m 1,15,-1
 943 550 l 1,16,-1
 703 1216 l 1,17,-1
 460 550 l 1,15,-1
EndSplineSet
EndChar

StartChar: Atilde
Encoding: 195 195 134
Width: 1402
GlyphClass: 1
Flags: W
LayerCount: 2
Fore
SplineSet
379 1459 m 1,0,1
 388.083333333 1677 388.083333333 1677 560.5 1677 c 0,2,3
 609 1677 609 1677 700 1633 c 128,-1,4
 791 1589 791 1589 848 1589 c 0,5,6
 889 1589 889 1589 896 1677 c 1,7,-1
 1023 1677 l 1,8,9
 1018.37022398 1533.47694335 1018.37022398 1533.47694335 939.5 1483 c 0,10,11
 902 1459 902 1459 849 1459 c 128,-1,12
 796 1459 796 1459 703 1498.5 c 128,-1,13
 610 1538 610 1538 556 1538 c 0,14,15
 512 1538 512 1538 506 1459 c 1,16,-1
 379 1459 l 1,0,1
100 0 m 1,17,-1
 606 1372 l 1,18,-1
 798 1372 l 1,19,-1
 1302 0 l 1,20,-1
 1146 0 l 1,21,-1
 992 420 l 1,22,-1
 407 420 l 1,23,-1
 256 0 l 1,24,-1
 100 0 l 1,17,-1
460 550 m 1,25,-1
 943 550 l 1,26,-1
 703 1216 l 1,27,-1
 460 550 l 1,25,-1
EndSplineSet
EndChar

StartChar: Adieresis
Encoding: 196 196 135
Width: 1402
GlyphClass: 1
Flags: W
LayerCount: 2
Fore
SplineSet
600 1580 m 1,0,-1
 466 1580 l 1,1,-1
 466 1727 l 1,2,-1
 600 1727 l 1,3,-1
 600 1580 l 1,0,-1
936 1580 m 1,4,-1
 804 1580 l 1,5,-1
 804 1727 l 1,6,-1
 936 1727 l 1,7,-1
 936 1580 l 1,4,-1
100 0 m 1,8,-1
 606 1372 l 1,9,-1
 798 1372 l 1,10,-1
 1302 0 l 1,11,-1
 1146 0 l 1,12,-1
 992 420 l 1,13,-1
 407 420 l 1,14,-1
 256 0 l 1,15,-1
 100 0 l 1,8,-1
460 550 m 1,16,-1
 943 550 l 1,17,-1
 703 1216 l 1,18,-1
 460 550 l 1,16,-1
EndSplineSet
EndChar

StartChar: Aring
Encoding: 197 197 136
Width: 1402
GlyphClass: 1
Flags: W
LayerCount: 2
Fore
SplineSet
828.5 1626 m 128,-1,1
 877 1578 877 1578 877 1492 c 128,-1,2
 877 1406 877 1406 803 1357 c 1,3,-1
 1302 0 l 1,4,-1
 1146 0 l 1,5,-1
 992 420 l 1,6,-1
 407 420 l 1,7,-1
 256 0 l 1,8,-1
 100 0 l 1,9,-1
 601 1359 l 1,10,11
 530 1408 530 1408 530 1493 c 128,-1,12
 530 1578 530 1578 578.5 1626 c 128,-1,13
 627 1674 627 1674 703.5 1674 c 128,-1,0
 780 1674 780 1674 828.5 1626 c 128,-1,1
767 1565.5 m 128,-1,15
 742 1590 742 1590 703.5 1590 c 128,-1,16
 665 1590 665 1590 640 1565.5 c 128,-1,17
 615 1541 615 1541 615 1502.5 c 128,-1,18
 615 1464 615 1464 640 1438.5 c 128,-1,19
 665 1413 665 1413 703.5 1413 c 128,-1,20
 742 1413 742 1413 767 1438.5 c 128,-1,21
 792 1464 792 1464 792 1502.5 c 128,-1,14
 792 1541 792 1541 767 1565.5 c 128,-1,15
460 550 m 1,22,-1
 943 550 l 1,23,-1
 703 1216 l 1,24,-1
 460 550 l 1,22,-1
EndSplineSet
EndChar

StartChar: AE
Encoding: 198 198 137
Width: 1657
GlyphClass: 1
Flags: W
LayerCount: 2
Fore
SplineSet
263 0 m 1,0,-1
 100 0 l 1,1,-1
 774 1372 l 1,2,-1
 1528 1372 l 1,3,-1
 1528 1241 l 1,4,-1
 993 1241 l 1,5,-1
 993 773 l 1,6,-1
 1424 773 l 1,7,-1
 1424 645 l 1,8,-1
 993 645 l 1,9,-1
 993 130 l 1,10,-1
 1557 130 l 1,11,-1
 1557 0 l 1,12,-1
 839 0 l 1,13,-1
 839 645 l 1,14,-1
 573 645 l 1,15,-1
 263 0 l 1,0,-1
635 773 m 1,16,-1
 839 773 l 1,17,-1
 839 1199 l 1,18,-1
 635 773 l 1,16,-1
EndSplineSet
EndChar

StartChar: Ccedilla
Encoding: 199 199 138
Width: 1359
GlyphClass: 1
Flags: W
LayerCount: 2
Fore
SplineSet
788.5 -175 m 128,-1,1
 760 -156 760 -156 743 -156 c 128,-1,2
 726 -156 726 -156 667 -162 c 1,3,-1
 667 -22 l 1,4,5
 362.49218224 -5.45066207825 362.49218224 -5.45066207825 216.5 204.5 c 0,6,7
 100 372.038095238 100 372.038095238 100 670 c 0,8,9
 100 1255.07692308 100 1255.07692308 525 1369.5 c 0,10,11
 616 1394 616 1394 685 1394 c 128,-1,12
 754 1394 754 1394 777 1393 c 0,13,14
 986.742511521 1383.88076037 986.742511521 1383.88076037 1131.7104187 1242.49230769 c 0,15,16
 1218.32468354 1158.01666667 1218.32468354 1158.01666667 1259 1005 c 1,17,-1
 1121 973 l 1,18,19
 1037 1264 1037 1264 727 1264 c 0,20,21
 476.4921875 1264 476.4921875 1264 353.5 1091 c 0,22,23
 250 945.417582418 250 945.417582418 250 673 c 0,24,25
 250 220 250 220 572 128 c 0,26,27
 642 108 642 108 727 108 c 0,28,29
 1050 108 1050 108 1121 446 c 1,30,-1
 1259 417 l 1,31,32
 1174 -24 1174 -24 715 -24 c 1,33,-1
 715 -105 l 1,34,35
 793 -80 793 -80 857.5 -118.5 c 128,-1,36
 922 -157 922 -157 922 -231.5 c 128,-1,37
 922 -306 922 -306 873 -346 c 128,-1,38
 824 -386 824 -386 737.5 -386 c 128,-1,39
 651 -386 651 -386 496 -319 c 1,40,-1
 519 -260 l 1,41,42
 540.363148649 -268.011180743 540.363148649 -268.011180743 566.71114767 -279.091384419 c 128,-1,43
 593.05914669 -290.171588094 593.05914669 -290.171588094 629.390684456 -304.085794047 c 128,-1,44
 665.722222222 -318 665.722222222 -318 711 -318 c 0,45,46
 817 -318 817 -318 817 -237 c 0,47,0
 817 -194 817 -194 788.5 -175 c 128,-1,1
EndSplineSet
EndChar

StartChar: Egrave
Encoding: 200 200 139
Width: 1201
GlyphClass: 1
Flags: W
LayerCount: 2
Fore
SplineSet
748 1463 m 1,0,-1
 638 1463 l 1,1,-1
 454 1691 l 1,2,-1
 641 1691 l 1,3,-1
 748 1463 l 1,0,-1
1101 0 m 1,4,-1
 100 0 l 1,5,-1
 100 1372 l 1,6,-1
 1078 1372 l 1,7,-1
 1078 1243 l 1,8,-1
 251 1243 l 1,9,-1
 251 773 l 1,10,-1
 1009 773 l 1,11,-1
 1009 645 l 1,12,-1
 251 645 l 1,13,-1
 251 129 l 1,14,-1
 1101 129 l 1,15,-1
 1101 0 l 1,4,-1
EndSplineSet
EndChar

StartChar: Eacute
Encoding: 201 201 140
Width: 1201
GlyphClass: 1
Flags: W
LayerCount: 2
Fore
SplineSet
560 1691 m 1,0,-1
 748 1691 l 1,1,-1
 564 1463 l 1,2,-1
 453 1463 l 1,3,-1
 560 1691 l 1,0,-1
1101 0 m 1,4,-1
 100 0 l 1,5,-1
 100 1372 l 1,6,-1
 1078 1372 l 1,7,-1
 1078 1243 l 1,8,-1
 251 1243 l 1,9,-1
 251 773 l 1,10,-1
 1009 773 l 1,11,-1
 1009 645 l 1,12,-1
 251 645 l 1,13,-1
 251 129 l 1,14,-1
 1101 129 l 1,15,-1
 1101 0 l 1,4,-1
EndSplineSet
EndChar

StartChar: Ecircumflex
Encoding: 202 202 141
Width: 1201
GlyphClass: 1
Flags: W
LayerCount: 2
Fore
SplineSet
601 1578 m 1,0,-1
 503 1462 l 1,1,-1
 353 1462 l 1,2,-1
 524 1672 l 1,3,-1
 678 1672 l 1,4,-1
 848 1462 l 1,5,-1
 697 1462 l 1,6,-1
 601 1578 l 1,0,-1
1101 0 m 1,7,-1
 100 0 l 1,8,-1
 100 1372 l 1,9,-1
 1078 1372 l 1,10,-1
 1078 1243 l 1,11,-1
 251 1243 l 1,12,-1
 251 773 l 1,13,-1
 1009 773 l 1,14,-1
 1009 645 l 1,15,-1
 251 645 l 1,16,-1
 251 129 l 1,17,-1
 1101 129 l 1,18,-1
 1101 0 l 1,7,-1
EndSplineSet
EndChar

StartChar: Edieresis
Encoding: 203 203 142
Width: 1201
GlyphClass: 1
Flags: W
LayerCount: 2
Fore
SplineSet
500 1580 m 1,0,-1
 366 1580 l 1,1,-1
 366 1727 l 1,2,-1
 500 1727 l 1,3,-1
 500 1580 l 1,0,-1
836 1580 m 1,4,-1
 704 1580 l 1,5,-1
 704 1727 l 1,6,-1
 836 1727 l 1,7,-1
 836 1580 l 1,4,-1
1101 0 m 1,8,-1
 100 0 l 1,9,-1
 100 1372 l 1,10,-1
 1078 1372 l 1,11,-1
 1078 1243 l 1,12,-1
 251 1243 l 1,13,-1
 251 773 l 1,14,-1
 1009 773 l 1,15,-1
 1009 645 l 1,16,-1
 251 645 l 1,17,-1
 251 129 l 1,18,-1
 1101 129 l 1,19,-1
 1101 0 l 1,8,-1
EndSplineSet
EndChar

StartChar: Igrave
Encoding: 204 204 143
Width: 352
GlyphClass: 1
Flags: W
LayerCount: 2
Fore
SplineSet
323 1463 m 1,0,-1
 213 1463 l 1,1,-1
 29 1691 l 1,2,-1
 216 1691 l 1,3,-1
 323 1463 l 1,0,-1
252 0 m 1,4,-1
 100 0 l 1,5,-1
 100 1372 l 1,6,-1
 252 1372 l 1,7,-1
 252 0 l 1,4,-1
EndSplineSet
EndChar

StartChar: Iacute
Encoding: 205 205 144
Width: 352
GlyphClass: 1
Flags: W
LayerCount: 2
Fore
SplineSet
135 1691 m 1,0,-1
 323 1691 l 1,1,-1
 139 1463 l 1,2,-1
 28 1463 l 1,3,-1
 135 1691 l 1,0,-1
252 0 m 1,4,-1
 100 0 l 1,5,-1
 100 1372 l 1,6,-1
 252 1372 l 1,7,-1
 252 0 l 1,4,-1
EndSplineSet
EndChar

StartChar: Icircumflex
Encoding: 206 206 145
Width: 352
GlyphClass: 1
Flags: W
LayerCount: 2
Fore
SplineSet
176 1578 m 1,0,-1
 78 1462 l 1,1,-1
 -72 1462 l 1,2,-1
 99 1672 l 1,3,-1
 253 1672 l 1,4,-1
 423 1462 l 1,5,-1
 272 1462 l 1,6,-1
 176 1578 l 1,0,-1
252 0 m 1,7,-1
 100 0 l 1,8,-1
 100 1372 l 1,9,-1
 252 1372 l 1,10,-1
 252 0 l 1,7,-1
EndSplineSet
EndChar

StartChar: Idieresis
Encoding: 207 207 146
Width: 352
GlyphClass: 1
Flags: W
LayerCount: 2
Fore
SplineSet
75 1580 m 1,0,-1
 -59 1580 l 1,1,-1
 -59 1727 l 1,2,-1
 75 1727 l 1,3,-1
 75 1580 l 1,0,-1
411 1580 m 1,4,-1
 279 1580 l 1,5,-1
 279 1727 l 1,6,-1
 411 1727 l 1,7,-1
 411 1580 l 1,4,-1
252 0 m 1,8,-1
 100 0 l 1,9,-1
 100 1372 l 1,10,-1
 252 1372 l 1,11,-1
 252 0 l 1,8,-1
EndSplineSet
EndChar

StartChar: Eth
Encoding: 208 208 147
Width: 1421
GlyphClass: 1
Flags: W
LayerCount: 2
Fore
SplineSet
1308.5 850.5 m 0,0,1
 1321 770 1321 770 1321 706.5 c 128,-1,2
 1321 643 1321 643 1314.16513761 554.146788991 c 0,3,4
 1307.33027523 465.293577982 1307.33027523 465.293577982 1260.67544799 331.839072154 c 128,-1,5
 1214.02062075 198.384566327 1214.02062075 198.384566327 1097.76299855 99.1922831633 c 128,-1,6
 981.505376344 1.04083408559e-17 981.505376344 1.04083408559e-17 780 0 c 2,7,-1
 222 0 l 1,8,-1
 222 619 l 1,9,-1
 100 619 l 1,10,-1
 100 752 l 1,11,-1
 222 752 l 1,12,-1
 222 1372 l 1,13,-1
 793 1372 l 2,14,15
 1056.46153846 1372 1056.46153846 1372 1202 1152 c 0,16,17
 1279.98924122 1034.10928652 1279.98924122 1034.10928652 1308.5 850.5 c 0,0,1
786 1243 m 2,18,-1
 372 1243 l 1,19,-1
 372 752 l 1,20,-1
 679 752 l 1,21,-1
 679 619 l 1,22,-1
 372 619 l 1,23,-1
 372 129 l 1,24,-1
 747 129 l 2,25,26
 947 129 947 129 1058.5 275.5 c 128,-1,27
 1170 422 1170 422 1170 675.5 c 128,-1,28
 1170 929 1170 929 1077.37 1086 c 128,-1,29
 984.74 1243 984.74 1243 786 1243 c 2,18,-1
EndSplineSet
EndChar

StartChar: Ntilde
Encoding: 209 209 148
Width: 1265
GlyphClass: 1
Flags: W
LayerCount: 2
Fore
SplineSet
311 1459 m 1,0,1
 320.083333333 1677 320.083333333 1677 492.5 1677 c 0,2,3
 541 1677 541 1677 632 1633 c 128,-1,4
 723 1589 723 1589 780 1589 c 0,5,6
 821 1589 821 1589 828 1677 c 1,7,-1
 955 1677 l 1,8,9
 950.370223979 1533.47694335 950.370223979 1533.47694335 871.5 1483 c 0,10,11
 834 1459 834 1459 781 1459 c 128,-1,12
 728 1459 728 1459 635 1498.5 c 128,-1,13
 542 1538 542 1538 488 1538 c 0,14,15
 444 1538 444 1538 438 1459 c 1,16,-1
 311 1459 l 1,0,1
1165 0 m 1,17,-1
 1001 0 l 1,18,-1
 251 1128 l 1,19,-1
 251 0 l 1,20,-1
 100 0 l 1,21,-1
 100 1372 l 1,22,-1
 265 1372 l 1,23,-1
 1015 243 l 1,24,-1
 1015 1372 l 1,25,-1
 1165 1372 l 1,26,-1
 1165 0 l 1,17,-1
EndSplineSet
EndChar

StartChar: Ograve
Encoding: 210 210 149
Width: 1470
GlyphClass: 1
Flags: W
LayerCount: 2
Fore
SplineSet
882 1463 m 1,0,-1
 772 1463 l 1,1,-1
 588 1691 l 1,2,-1
 775 1691 l 1,3,-1
 882 1463 l 1,0,-1
341.585403814 1270.47739944 m 0,4,5
 500.219626845 1394 500.219626845 1394 718.5 1394 c 0,6,7
 1088.23463687 1394 1088.23463687 1394 1265 1095.5 c 0,8,9
 1370 918.188679245 1370 918.188679245 1370 686 c 0,10,11
 1370 278.556962025 1370 278.556962025 1105 84 c 0,12,13
 952.448275862 -28 952.448275862 -28 750.21993625 -28 c 0,14,15
 547.991596639 -28 547.991596639 -28 384.5 88.5 c 0,16,17
 100 291.22754491 100 291.22754491 100 686.795664113 c 0,18,19
 100 1082.36378332 100 1082.36378332 341.585403814 1270.47739944 c 0,4,5
599.5 126.5 m 128,-1,21
 670 104 670 104 753 104 c 128,-1,22
 836 104 836 104 920.5 141 c 128,-1,23
 1005 178 1005 178 1072.5 248 c 128,-1,24
 1140 318 1140 318 1180 431.5 c 128,-1,25
 1220 545 1220 545 1220 686 c 128,-1,26
 1220 827 1220 827 1178 940 c 128,-1,27
 1136 1053 1136 1053 1066.5 1122 c 0,28,29
 923.471014493 1264 923.471014493 1264 736.257246377 1264 c 0,30,31
 549.043478261 1264 549.043478261 1264 406 1123 c 0,32,33
 336 1054 336 1054 293.5 940.5 c 128,-1,34
 251 827 251 827 251 700 c 128,-1,35
 251 573 251 573 279 476.5 c 128,-1,36
 307 380 307 380 355 312.5 c 128,-1,37
 403 245 403 245 466 197 c 128,-1,20
 529 149 529 149 599.5 126.5 c 128,-1,21
EndSplineSet
EndChar

StartChar: Oacute
Encoding: 211 211 150
Width: 1470
GlyphClass: 1
Flags: W
LayerCount: 2
Fore
SplineSet
695 1691 m 1,0,-1
 883 1691 l 1,1,-1
 699 1463 l 1,2,-1
 588 1463 l 1,3,-1
 695 1691 l 1,0,-1
341.585403814 1270.47739944 m 0,4,5
 500.219626845 1394 500.219626845 1394 718.5 1394 c 0,6,7
 1088.23463687 1394 1088.23463687 1394 1265 1095.5 c 0,8,9
 1370 918.188679245 1370 918.188679245 1370 686 c 0,10,11
 1370 278.556962025 1370 278.556962025 1105 84 c 0,12,13
 952.448275862 -28 952.448275862 -28 750.21993625 -28 c 0,14,15
 547.991596639 -28 547.991596639 -28 384.5 88.5 c 0,16,17
 100 291.22754491 100 291.22754491 100 686.795664113 c 0,18,19
 100 1082.36378332 100 1082.36378332 341.585403814 1270.47739944 c 0,4,5
599.5 126.5 m 128,-1,21
 670 104 670 104 753 104 c 128,-1,22
 836 104 836 104 920.5 141 c 128,-1,23
 1005 178 1005 178 1072.5 248 c 128,-1,24
 1140 318 1140 318 1180 431.5 c 128,-1,25
 1220 545 1220 545 1220 686 c 128,-1,26
 1220 827 1220 827 1178 940 c 128,-1,27
 1136 1053 1136 1053 1066.5 1122 c 0,28,29
 923.471014493 1264 923.471014493 1264 736.257246377 1264 c 0,30,31
 549.043478261 1264 549.043478261 1264 406 1123 c 0,32,33
 336 1054 336 1054 293.5 940.5 c 128,-1,34
 251 827 251 827 251 700 c 128,-1,35
 251 573 251 573 279 476.5 c 128,-1,36
 307 380 307 380 355 312.5 c 128,-1,37
 403 245 403 245 466 197 c 128,-1,20
 529 149 529 149 599.5 126.5 c 128,-1,21
EndSplineSet
EndChar

StartChar: Ocircumflex
Encoding: 212 212 151
Width: 1470
GlyphClass: 1
Flags: W
LayerCount: 2
Fore
SplineSet
736 1578 m 1,0,-1
 638 1462 l 1,1,-1
 488 1462 l 1,2,-1
 659 1672 l 1,3,-1
 813 1672 l 1,4,-1
 983 1462 l 1,5,-1
 832 1462 l 1,6,-1
 736 1578 l 1,0,-1
341.585403814 1270.47739944 m 0,7,8
 500.219626845 1394 500.219626845 1394 718.5 1394 c 0,9,10
 1088.23463687 1394 1088.23463687 1394 1265 1095.5 c 0,11,12
 1370 918.188679245 1370 918.188679245 1370 686 c 0,13,14
 1370 278.556962025 1370 278.556962025 1105 84 c 0,15,16
 952.448275862 -28 952.448275862 -28 750.21993625 -28 c 0,17,18
 547.991596639 -28 547.991596639 -28 384.5 88.5 c 0,19,20
 100 291.22754491 100 291.22754491 100 686.795664113 c 0,21,22
 100 1082.36378332 100 1082.36378332 341.585403814 1270.47739944 c 0,7,8
599.5 126.5 m 128,-1,24
 670 104 670 104 753 104 c 128,-1,25
 836 104 836 104 920.5 141 c 128,-1,26
 1005 178 1005 178 1072.5 248 c 128,-1,27
 1140 318 1140 318 1180 431.5 c 128,-1,28
 1220 545 1220 545 1220 686 c 128,-1,29
 1220 827 1220 827 1178 940 c 128,-1,30
 1136 1053 1136 1053 1066.5 1122 c 0,31,32
 923.471014493 1264 923.471014493 1264 736.257246377 1264 c 0,33,34
 549.043478261 1264 549.043478261 1264 406 1123 c 0,35,36
 336 1054 336 1054 293.5 940.5 c 128,-1,37
 251 827 251 827 251 700 c 128,-1,38
 251 573 251 573 279 476.5 c 128,-1,39
 307 380 307 380 355 312.5 c 128,-1,40
 403 245 403 245 466 197 c 128,-1,23
 529 149 529 149 599.5 126.5 c 128,-1,24
EndSplineSet
EndChar

StartChar: Otilde
Encoding: 213 213 152
Width: 1470
GlyphClass: 1
Flags: W
LayerCount: 2
Fore
SplineSet
413 1459 m 1,0,1
 422.083333333 1677 422.083333333 1677 594.5 1677 c 0,2,3
 643 1677 643 1677 734 1633 c 128,-1,4
 825 1589 825 1589 882 1589 c 0,5,6
 923 1589 923 1589 930 1677 c 1,7,-1
 1057 1677 l 1,8,9
 1052.37022398 1533.47694335 1052.37022398 1533.47694335 973.5 1483 c 0,10,11
 936 1459 936 1459 883 1459 c 128,-1,12
 830 1459 830 1459 737 1498.5 c 128,-1,13
 644 1538 644 1538 590 1538 c 0,14,15
 546 1538 546 1538 540 1459 c 1,16,-1
 413 1459 l 1,0,1
341.585403814 1270.47739944 m 0,17,18
 500.219626845 1394 500.219626845 1394 718.5 1394 c 0,19,20
 1088.23463687 1394 1088.23463687 1394 1265 1095.5 c 0,21,22
 1370 918.188679245 1370 918.188679245 1370 686 c 0,23,24
 1370 278.556962025 1370 278.556962025 1105 84 c 0,25,26
 952.448275862 -28 952.448275862 -28 750.21993625 -28 c 128,-1,27
 547.991596639 -28 547.991596639 -28 384.5 88.5 c 0,28,29
 100 291.22754491 100 291.22754491 100 686.795664113 c 128,-1,30
 100 1082.36378332 100 1082.36378332 341.585403814 1270.47739944 c 0,17,18
599.5 126.5 m 128,-1,32
 670 104 670 104 753 104 c 128,-1,33
 836 104 836 104 920.5 141 c 128,-1,34
 1005 178 1005 178 1072.5 248 c 128,-1,35
 1140 318 1140 318 1180 431.5 c 128,-1,36
 1220 545 1220 545 1220 686 c 128,-1,37
 1220 827 1220 827 1178 940 c 128,-1,38
 1136 1053 1136 1053 1066.5 1122 c 0,39,40
 923.471014493 1264 923.471014493 1264 736.257246377 1264 c 128,-1,41
 549.043478261 1264 549.043478261 1264 406 1123 c 0,42,43
 336 1054 336 1054 293.5 940.5 c 128,-1,44
 251 827 251 827 251 700 c 128,-1,45
 251 573 251 573 279 476.5 c 128,-1,46
 307 380 307 380 355 312.5 c 128,-1,47
 403 245 403 245 466 197 c 128,-1,31
 529 149 529 149 599.5 126.5 c 128,-1,32
EndSplineSet
EndChar

StartChar: Odieresis
Encoding: 214 214 153
Width: 1470
GlyphClass: 1
Flags: W
LayerCount: 2
Fore
SplineSet
634 1580 m 1,0,-1
 500 1580 l 1,1,-1
 500 1727 l 1,2,-1
 634 1727 l 1,3,-1
 634 1580 l 1,0,-1
970 1580 m 1,4,-1
 838 1580 l 1,5,-1
 838 1727 l 1,6,-1
 970 1727 l 1,7,-1
 970 1580 l 1,4,-1
341.585403814 1270.47739944 m 0,8,9
 500.219626845 1394 500.219626845 1394 718.5 1394 c 0,10,11
 1088.23463687 1394 1088.23463687 1394 1265 1095.5 c 0,12,13
 1370 918.188679245 1370 918.188679245 1370 686 c 0,14,15
 1370 278.556962025 1370 278.556962025 1105 84 c 0,16,17
 952.448275862 -28 952.448275862 -28 750.21993625 -28 c 0,18,19
 547.991596639 -28 547.991596639 -28 384.5 88.5 c 0,20,21
 100 291.22754491 100 291.22754491 100 686.795664113 c 0,22,23
 100 1082.36378332 100 1082.36378332 341.585403814 1270.47739944 c 0,8,9
599.5 126.5 m 128,-1,25
 670 104 670 104 753 104 c 128,-1,26
 836 104 836 104 920.5 141 c 128,-1,27
 1005 178 1005 178 1072.5 248 c 128,-1,28
 1140 318 1140 318 1180 431.5 c 128,-1,29
 1220 545 1220 545 1220 686 c 128,-1,30
 1220 827 1220 827 1178 940 c 128,-1,31
 1136 1053 1136 1053 1066.5 1122 c 0,32,33
 923.471014493 1264 923.471014493 1264 736.257246377 1264 c 0,34,35
 549.043478261 1264 549.043478261 1264 406 1123 c 0,36,37
 336 1054 336 1054 293.5 940.5 c 128,-1,38
 251 827 251 827 251 700 c 128,-1,39
 251 573 251 573 279 476.5 c 128,-1,40
 307 380 307 380 355 312.5 c 128,-1,41
 403 245 403 245 466 197 c 128,-1,24
 529 149 529 149 599.5 126.5 c 128,-1,25
EndSplineSet
EndChar

StartChar: multiply
Encoding: 215 215 154
Width: 932
GlyphClass: 1
Flags: W
LayerCount: 2
Fore
SplineSet
100 347 m 1,0,-1
 368 616 l 1,1,-1
 100 888 l 1,2,-1
 199 987 l 1,3,-1
 465 717 l 1,4,-1
 732 987 l 1,5,-1
 830 888 l 1,6,-1
 563 618 l 1,7,-1
 832 347 l 1,8,-1
 732 247 l 1,9,-1
 465 517 l 1,10,-1
 197 247 l 1,11,-1
 100 347 l 1,0,-1
EndSplineSet
EndChar

StartChar: Oslash
Encoding: 216 216 155
Width: 1470
GlyphClass: 1
Flags: W
LayerCount: 2
Fore
SplineSet
1199 1189 m 1,0,1
 1370 991.4 1370 991.4 1370 686 c 0,2,3
 1370 278.556962025 1370 278.556962025 1105 84 c 0,4,5
 952.448275862 -28 952.448275862 -28 757.224137931 -28 c 128,-1,6
 562 -28 562 -28 402 76 c 1,7,-1
 347 0 l 1,8,-1
 131 0 l 1,9,-1
 269 192 l 1,10,11
 100 387 100 387 100 686 c 0,12,13
 100 1082.36378332 100 1082.36378332 341.585403814 1270.47739944 c 0,14,15
 500.219626845 1394 500.219626845 1394 739 1394 c 0,16,17
 923 1394 923 1394 1067 1304 c 1,18,-1
 1116 1372 l 1,19,-1
 1330 1372 l 1,20,-1
 1199 1189 l 1,0,1
735 1264 m 0,21,22
 549.043478261 1264 549.043478261 1264 406 1123 c 0,23,24
 336 1054 336 1054 293.5 940.5 c 128,-1,25
 251 827 251 827 251 686 c 0,26,27
 251 466 251 466 355 312 c 1,28,-1
 985 1189 l 1,29,30
 873 1264 873 1264 735 1264 c 0,21,22
743 104 m 0,31,32
 933.642857143 104 933.642857143 104 1072.5 248 c 0,33,34
 1140 318 1140 318 1180 431.5 c 128,-1,35
 1220 545 1220 545 1220 686 c 0,36,37
 1220 915 1220 915 1111 1067 c 1,38,-1
 480 186 l 1,39,40
 597 104 597 104 743 104 c 0,31,32
EndSplineSet
EndChar

StartChar: Ugrave
Encoding: 217 217 156
Width: 1251
GlyphClass: 1
Flags: W
LayerCount: 2
Fore
SplineSet
773 1463 m 1,0,-1
 663 1463 l 1,1,-1
 479 1691 l 1,2,-1
 666 1691 l 1,3,-1
 773 1463 l 1,0,-1
622 108 m 0,4,5
 878.5 108 878.5 108 958 267 c 0,6,7
 1000 351 1000 351 1000 476 c 2,8,-1
 1000 1372 l 1,9,-1
 1151 1372 l 1,10,-1
 1151 470 l 2,11,12
 1151 266.037037037 1151 266.037037037 1035.5 132 c 0,13,14
 901.074468085 -24 901.074468085 -24 626 -24 c 0,15,16
 300.54 -24 300.54 -24 169.5 184 c 0,17,18
 100 294.317460317 100 294.317460317 100 470 c 2,19,-1
 100 1372 l 1,20,-1
 251 1372 l 1,21,-1
 251 476 l 2,22,23
 251 277.0625 251 277.0625 349.007246377 192.53125 c 128,-1,24
 447.014492754 108 447.014492754 108 622 108 c 0,4,5
EndSplineSet
EndChar

StartChar: Uacute
Encoding: 218 218 157
Width: 1251
GlyphClass: 1
Flags: W
LayerCount: 2
Fore
SplineSet
585 1691 m 1,0,-1
 773 1691 l 1,1,-1
 589 1463 l 1,2,-1
 478 1463 l 1,3,-1
 585 1691 l 1,0,-1
622 108 m 0,4,5
 878.5 108 878.5 108 958 267 c 0,6,7
 1000 351 1000 351 1000 476 c 2,8,-1
 1000 1372 l 1,9,-1
 1151 1372 l 1,10,-1
 1151 470 l 2,11,12
 1151 266.037037037 1151 266.037037037 1035.5 132 c 0,13,14
 901.074468085 -24 901.074468085 -24 626 -24 c 0,15,16
 300.54 -24 300.54 -24 169.5 184 c 0,17,18
 100 294.317460317 100 294.317460317 100 470 c 2,19,-1
 100 1372 l 1,20,-1
 251 1372 l 1,21,-1
 251 476 l 2,22,23
 251 277.0625 251 277.0625 349.007246377 192.53125 c 128,-1,24
 447.014492754 108 447.014492754 108 622 108 c 0,4,5
EndSplineSet
EndChar

StartChar: Ucircumflex
Encoding: 219 219 158
Width: 1251
GlyphClass: 1
Flags: W
LayerCount: 2
Fore
SplineSet
626 1578 m 1,0,-1
 528 1462 l 1,1,-1
 378 1462 l 1,2,-1
 549 1672 l 1,3,-1
 703 1672 l 1,4,-1
 873 1462 l 1,5,-1
 722 1462 l 1,6,-1
 626 1578 l 1,0,-1
622 108 m 0,7,8
 878.5 108 878.5 108 958 267 c 0,9,10
 1000 351 1000 351 1000 476 c 2,11,-1
 1000 1372 l 1,12,-1
 1151 1372 l 1,13,-1
 1151 470 l 2,14,15
 1151 266.037037037 1151 266.037037037 1035.5 132 c 0,16,17
 901.074468085 -24 901.074468085 -24 626 -24 c 0,18,19
 300.54 -24 300.54 -24 169.5 184 c 0,20,21
 100 294.317460317 100 294.317460317 100 470 c 2,22,-1
 100 1372 l 1,23,-1
 251 1372 l 1,24,-1
 251 476 l 2,25,26
 251 277.0625 251 277.0625 349.007246377 192.53125 c 128,-1,27
 447.014492754 108 447.014492754 108 622 108 c 0,7,8
EndSplineSet
EndChar

StartChar: Udieresis
Encoding: 220 220 159
Width: 1251
GlyphClass: 1
Flags: W
LayerCount: 2
Fore
SplineSet
525 1580 m 1,0,-1
 391 1580 l 1,1,-1
 391 1727 l 1,2,-1
 525 1727 l 1,3,-1
 525 1580 l 1,0,-1
861 1580 m 1,4,-1
 729 1580 l 1,5,-1
 729 1727 l 1,6,-1
 861 1727 l 1,7,-1
 861 1580 l 1,4,-1
622 108 m 0,8,9
 878.5 108 878.5 108 958 267 c 0,10,11
 1000 351 1000 351 1000 476 c 2,12,-1
 1000 1372 l 1,13,-1
 1151 1372 l 1,14,-1
 1151 470 l 2,15,16
 1151 266.037037037 1151 266.037037037 1035.5 132 c 0,17,18
 901.074468085 -24 901.074468085 -24 626 -24 c 0,19,20
 300.54 -24 300.54 -24 169.5 184 c 0,21,22
 100 294.317460317 100 294.317460317 100 470 c 2,23,-1
 100 1372 l 1,24,-1
 251 1372 l 1,25,-1
 251 476 l 2,26,27
 251 277.0625 251 277.0625 349.007246377 192.53125 c 128,-1,28
 447.014492754 108 447.014492754 108 622 108 c 0,8,9
EndSplineSet
EndChar

StartChar: Yacute
Encoding: 221 221 160
Width: 1394
GlyphClass: 1
Flags: W
LayerCount: 2
Fore
SplineSet
657 1691 m 1,0,-1
 845 1691 l 1,1,-1
 661 1463 l 1,2,-1
 550 1463 l 1,3,-1
 657 1691 l 1,0,-1
1294 1372 m 1,4,-1
 775 569 l 1,5,-1
 775 0 l 1,6,-1
 621 0 l 1,7,-1
 621 569 l 1,8,-1
 100 1372 l 1,9,-1
 270 1372 l 1,10,-1
 700 704 l 1,11,-1
 1123 1372 l 1,12,-1
 1294 1372 l 1,4,-1
EndSplineSet
EndChar

StartChar: Thorn
Encoding: 222 222 161
Width: 1060
GlyphClass: 1
Flags: W
LayerCount: 2
Fore
SplineSet
960 686.5 m 0,0,1
 960 404.08 960 404.08 732 322 c 0,2,3
 601.444444444 275 601.444444444 275 391 275 c 2,4,-1
 250 275 l 1,5,-1
 250 0 l 1,6,-1
 100 0 l 1,7,-1
 100 1372 l 1,8,-1
 250 1372 l 1,9,-1
 250 1096 l 1,10,-1
 383 1096 l 2,11,12
 718.101123596 1096 718.101123596 1096 849 979.5 c 0,13,14
 960 880.71 960 880.71 960 686.5 c 0,0,1
784.5 563.5 m 0,15,16
 808 616 808 616 808 688.5 c 0,17,18
 808 837.845360825 808 837.845360825 708.532258065 901.422680412 c 128,-1,19
 609.064516129 965 609.064516129 965 471 965 c 2,20,-1
 250 965 l 1,21,-1
 250 406 l 1,22,-1
 473 406 l 2,23,24
 714 406 714 406 784.5 563.5 c 0,15,16
EndSplineSet
EndChar

StartChar: germandbls
Encoding: 223 223 162
Width: 1130
GlyphClass: 1
Flags: W
LayerCount: 2
Fore
SplineSet
613.5 1205.5 m 128,-1,1
 554 1250 554 1250 483.5 1250 c 0,2,3
 342.06122449 1250 342.06122449 1250 292.030612245 1153.8627451 c 128,-1,4
 242 1057.7254902 242 1057.7254902 242 909 c 2,5,-1
 242 8 l 1,6,-1
 100 8 l 1,7,-1
 100 917 l 2,8,9
 100 1370 100 1370 487 1370 c 0,10,11
 662.576 1370 662.576 1370 762 1250.5 c 0,12,13
 814 1188 814 1188 814 1121.5 c 0,14,15
 814 1011.32692308 814 1011.32692308 745 906.5 c 128,-1,16
 676 801.673076923 676 801.673076923 676 739.433312655 c 128,-1,17
 676 677.193548387 676 677.193548387 746 623 c 0,18,19
 777 599 777 599 841.476086957 556.581521739 c 0,20,21
 905.952173913 514.163043478 905.952173913 514.163043478 967.976086957 449.137973352 c 128,-1,22
 1030 384.112903226 1030 384.112903226 1030 269.056451613 c 128,-1,23
 1030 154 1030 154 936.5 69 c 128,-1,24
 843 -16 843 -16 729.5 -16 c 128,-1,25
 616 -16 616 -16 524 44 c 128,-1,26
 432 104 432 104 385 192 c 1,27,-1
 514 252 l 1,28,29
 594.85 105 594.85 105 717 105 c 0,30,31
 784 105 784 105 832 154 c 128,-1,32
 880 203 880 203 880 259 c 128,-1,33
 880 315 880 315 853.5 354 c 128,-1,34
 827 393 827 393 788 420 c 128,-1,35
 749 447 749 447 702.5 478.5 c 128,-1,36
 656 510 656 510 617 539 c 0,37,38
 525 607.41025641 525 607.41025641 525 701.490842491 c 128,-1,39
 525 795.571428571 525 795.571428571 599 896 c 128,-1,40
 673 996.428571429 673 996.428571429 673 1078.71428571 c 128,-1,0
 673 1161 673 1161 613.5 1205.5 c 128,-1,1
EndSplineSet
EndChar

StartChar: agrave
Encoding: 224 224 163
Width: 1035
GlyphClass: 1
Flags: W
LayerCount: 2
Fore
SplineSet
665 1091 m 1,0,-1
 555 1091 l 1,1,-1
 371 1319 l 1,2,-1
 558 1319 l 1,3,-1
 665 1091 l 1,0,-1
866 837 m 0,4,5
 883 792 883 792 883 764 c 128,-1,6
 883 736 883 736 876 423 c 1,7,8
 876 165 876 165 935 18 c 1,9,-1
 822 -16 l 1,10,11
 815 1 815 1 775 131 c 1,12,13
 623.979591837 -17 623.979591837 -17 443 -17 c 0,14,15
 197.311827957 -17 197.311827957 -17 125 117.5 c 0,16,17
 100 164 100 164 100 216.460589676 c 128,-1,18
 100 268.921179353 100 268.921179353 109.259574567 305.913670666 c 0,19,20
 128.128392134 381.295597218 128.128392134 381.295597218 174.248904642 425.893045967 c 0,21,22
 282.540160959 530.608138902 282.540160959 530.608138902 549.059742752 575.338698084 c 0,23,24
 696 600 696 600 755 618 c 1,25,26
 751.778280543 756.533936652 751.778280543 756.533936652 743.889140271 778.766968326 c 128,-1,27
 736 801 736 801 726 824 c 128,-1,28
 716 847 716 847 700 857.5 c 128,-1,29
 684 868 684 868 655.02173913 883.5 c 128,-1,30
 626.043478261 899 626.043478261 899 532.02173913 899 c 128,-1,31
 438 899 438 899 352 844 c 128,-1,32
 266 789 266 789 231 686 c 1,33,-1
 112 711 l 1,34,35
 131 807 131 807 195 878 c 0,36,37
 322.098591549 1019 322.098591549 1019 536 1019 c 0,38,39
 665.720930233 1019 665.720930233 1019 750.642449971 968.282981267 c 128,-1,40
 835.563969709 917.565962535 835.563969709 917.565962535 866 837 c 0,4,5
439 105 m 0,41,42
 612 105 612 105 755 274 c 1,43,-1
 755 488 l 1,44,45
 748 487 748 487 626.5 470.5 c 128,-1,46
 505 454 505 454 429.615384615 432.461538462 c 128,-1,47
 354.230769231 410.923076923 354.230769231 410.923076923 291.115384615 363.586538462 c 128,-1,48
 228 316.25 228 316.25 228 226 c 0,49,50
 228 112.822222222 228 112.822222222 381.5 106 c 0,51,52
 404 105 404 105 439 105 c 0,41,42
EndSplineSet
EndChar

StartChar: aacute
Encoding: 225 225 164
Width: 1035
GlyphClass: 1
Flags: W
LayerCount: 2
Fore
SplineSet
477 1319 m 1,0,-1
 665 1319 l 1,1,-1
 481 1091 l 1,2,-1
 370 1091 l 1,3,-1
 477 1319 l 1,0,-1
866 837 m 0,4,5
 883 792 883 792 883 764 c 128,-1,6
 883 736 883 736 876 423 c 1,7,8
 876 165 876 165 935 18 c 1,9,-1
 822 -16 l 1,10,11
 815 1 815 1 775 131 c 1,12,13
 623.979591837 -17 623.979591837 -17 443 -17 c 0,14,15
 197.311827957 -17 197.311827957 -17 125 117.5 c 0,16,17
 100 164 100 164 100 216.460589676 c 128,-1,18
 100 268.921179353 100 268.921179353 109.259574567 305.913670666 c 0,19,20
 128.128392134 381.295597218 128.128392134 381.295597218 174.248904642 425.893045967 c 0,21,22
 282.540160959 530.608138902 282.540160959 530.608138902 549.059742752 575.338698084 c 0,23,24
 696 600 696 600 755 618 c 1,25,26
 751.778280543 756.533936652 751.778280543 756.533936652 743.889140271 778.766968326 c 128,-1,27
 736 801 736 801 726 824 c 128,-1,28
 716 847 716 847 700 857.5 c 128,-1,29
 684 868 684 868 655.02173913 883.5 c 128,-1,30
 626.043478261 899 626.043478261 899 532.02173913 899 c 128,-1,31
 438 899 438 899 352 844 c 128,-1,32
 266 789 266 789 231 686 c 1,33,-1
 112 711 l 1,34,35
 131 807 131 807 195 878 c 0,36,37
 322.098591549 1019 322.098591549 1019 536 1019 c 0,38,39
 665.720930233 1019 665.720930233 1019 750.642449971 968.282981267 c 128,-1,40
 835.563969709 917.565962535 835.563969709 917.565962535 866 837 c 0,4,5
439 105 m 0,41,42
 612 105 612 105 755 274 c 1,43,-1
 755 488 l 1,44,45
 748 487 748 487 626.5 470.5 c 128,-1,46
 505 454 505 454 429.615384615 432.461538462 c 128,-1,47
 354.230769231 410.923076923 354.230769231 410.923076923 291.115384615 363.586538462 c 128,-1,48
 228 316.25 228 316.25 228 226 c 0,49,50
 228 112.822222222 228 112.822222222 381.5 106 c 0,51,52
 404 105 404 105 439 105 c 0,41,42
EndSplineSet
EndChar

StartChar: acircumflex
Encoding: 226 226 165
Width: 1035
GlyphClass: 1
Flags: W
LayerCount: 2
Fore
SplineSet
518 1206 m 1,0,-1
 420 1090 l 1,1,-1
 270 1090 l 1,2,-1
 441 1300 l 1,3,-1
 595 1300 l 1,4,-1
 765 1090 l 1,5,-1
 614 1090 l 1,6,-1
 518 1206 l 1,0,-1
866 837 m 0,7,8
 883 792 883 792 883 764 c 128,-1,9
 883 736 883 736 876 423 c 1,10,11
 876 165 876 165 935 18 c 1,12,-1
 822 -16 l 1,13,14
 815 1 815 1 775 131 c 1,15,16
 623.979591837 -17 623.979591837 -17 443 -17 c 0,17,18
 197.311827957 -17 197.311827957 -17 125 117.5 c 0,19,20
 100 164 100 164 100 216.460589676 c 128,-1,21
 100 268.921179353 100 268.921179353 109.259574567 305.913670666 c 0,22,23
 128.128392134 381.295597218 128.128392134 381.295597218 174.248904642 425.893045967 c 0,24,25
 282.540160959 530.608138902 282.540160959 530.608138902 549.059742752 575.338698084 c 0,26,27
 696 600 696 600 755 618 c 1,28,29
 751.778280543 756.533936652 751.778280543 756.533936652 743.889140271 778.766968326 c 128,-1,30
 736 801 736 801 726 824 c 128,-1,31
 716 847 716 847 700 857.5 c 128,-1,32
 684 868 684 868 655.02173913 883.5 c 128,-1,33
 626.043478261 899 626.043478261 899 532.02173913 899 c 128,-1,34
 438 899 438 899 352 844 c 128,-1,35
 266 789 266 789 231 686 c 1,36,-1
 112 711 l 1,37,38
 131 807 131 807 195 878 c 0,39,40
 322.098591549 1019 322.098591549 1019 536 1019 c 0,41,42
 665.720930233 1019 665.720930233 1019 750.642449971 968.282981267 c 128,-1,43
 835.563969709 917.565962535 835.563969709 917.565962535 866 837 c 0,7,8
439 105 m 0,44,45
 612 105 612 105 755 274 c 1,46,-1
 755 488 l 1,47,48
 748 487 748 487 626.5 470.5 c 128,-1,49
 505 454 505 454 429.615384615 432.461538462 c 128,-1,50
 354.230769231 410.923076923 354.230769231 410.923076923 291.115384615 363.586538462 c 128,-1,51
 228 316.25 228 316.25 228 226 c 0,52,53
 228 112.822222222 228 112.822222222 381.5 106 c 0,54,55
 404 105 404 105 439 105 c 0,44,45
EndSplineSet
EndChar

StartChar: atilde
Encoding: 227 227 166
Width: 1035
GlyphClass: 1
Flags: W
LayerCount: 2
Fore
SplineSet
196 1087 m 1,0,1
 205.083333333 1305 205.083333333 1305 377.5 1305 c 0,2,3
 426 1305 426 1305 517 1261 c 128,-1,4
 608 1217 608 1217 665 1217 c 0,5,6
 706 1217 706 1217 713 1305 c 1,7,-1
 840 1305 l 1,8,9
 835.370223979 1161.47694335 835.370223979 1161.47694335 756.5 1111 c 0,10,11
 719 1087 719 1087 666 1087 c 128,-1,12
 613 1087 613 1087 520 1126.5 c 128,-1,13
 427 1166 427 1166 373 1166 c 0,14,15
 329 1166 329 1166 323 1087 c 1,16,-1
 196 1087 l 1,0,1
866 837 m 0,17,18
 883 792 883 792 883 764 c 128,-1,19
 883 736 883 736 876 423 c 1,20,21
 876 165 876 165 935 18 c 1,22,-1
 822 -16 l 1,23,24
 815 1 815 1 775 131 c 1,25,26
 623.979591837 -17 623.979591837 -17 443 -17 c 0,27,28
 197.311827957 -17 197.311827957 -17 125 117.5 c 0,29,30
 100 164 100 164 100 216.460589676 c 128,-1,31
 100 268.921179353 100 268.921179353 109.259574567 305.913670666 c 0,32,33
 128.128392134 381.295597218 128.128392134 381.295597218 174.248904642 425.893045967 c 0,34,35
 282.540160959 530.608138902 282.540160959 530.608138902 549.059742752 575.338698084 c 0,36,37
 696 600 696 600 755 618 c 1,38,39
 751.778280543 756.533936652 751.778280543 756.533936652 743.889140271 778.766968326 c 128,-1,40
 736 801 736 801 726 824 c 128,-1,41
 716 847 716 847 700 857.5 c 128,-1,42
 684 868 684 868 655.02173913 883.5 c 128,-1,43
 626.043478261 899 626.043478261 899 532.02173913 899 c 128,-1,44
 438 899 438 899 352 844 c 128,-1,45
 266 789 266 789 231 686 c 1,46,-1
 112 711 l 1,47,48
 131 807 131 807 195 878 c 0,49,50
 322.098591549 1019 322.098591549 1019 536 1019 c 0,51,52
 665.720930233 1019 665.720930233 1019 750.642449971 968.282981267 c 128,-1,53
 835.563969709 917.565962535 835.563969709 917.565962535 866 837 c 0,17,18
439 105 m 0,54,55
 612 105 612 105 755 274 c 1,56,-1
 755 488 l 1,57,58
 748 487 748 487 626.5 470.5 c 128,-1,59
 505 454 505 454 429.615384615 432.461538462 c 128,-1,60
 354.230769231 410.923076923 354.230769231 410.923076923 291.115384615 363.586538462 c 128,-1,61
 228 316.25 228 316.25 228 226 c 0,62,63
 228 112.822222222 228 112.822222222 381.5 106 c 0,64,65
 404 105 404 105 439 105 c 0,54,55
EndSplineSet
EndChar

StartChar: adieresis
Encoding: 228 228 167
Width: 1035
GlyphClass: 1
Flags: W
LayerCount: 2
Fore
SplineSet
417 1208 m 1,0,-1
 283 1208 l 1,1,-1
 283 1355 l 1,2,-1
 417 1355 l 1,3,-1
 417 1208 l 1,0,-1
753 1208 m 1,4,-1
 621 1208 l 1,5,-1
 621 1355 l 1,6,-1
 753 1355 l 1,7,-1
 753 1208 l 1,4,-1
866 837 m 0,8,9
 883 792 883 792 883 764 c 128,-1,10
 883 736 883 736 876 423 c 1,11,12
 876 165 876 165 935 18 c 1,13,-1
 822 -16 l 1,14,15
 815 1 815 1 775 131 c 1,16,17
 623.979591837 -17 623.979591837 -17 443 -17 c 0,18,19
 197.311827957 -17 197.311827957 -17 125 117.5 c 0,20,21
 100 164 100 164 100 216.460589676 c 128,-1,22
 100 268.921179353 100 268.921179353 109.259574567 305.913670666 c 0,23,24
 128.128392134 381.295597218 128.128392134 381.295597218 174.248904642 425.893045967 c 0,25,26
 282.540160959 530.608138902 282.540160959 530.608138902 549.059742752 575.338698084 c 0,27,28
 696 600 696 600 755 618 c 1,29,30
 751.778280543 756.533936652 751.778280543 756.533936652 743.889140271 778.766968326 c 128,-1,31
 736 801 736 801 726 824 c 128,-1,32
 716 847 716 847 700 857.5 c 128,-1,33
 684 868 684 868 655.02173913 883.5 c 128,-1,34
 626.043478261 899 626.043478261 899 532.02173913 899 c 128,-1,35
 438 899 438 899 352 844 c 128,-1,36
 266 789 266 789 231 686 c 1,37,-1
 112 711 l 1,38,39
 131 807 131 807 195 878 c 0,40,41
 322.098591549 1019 322.098591549 1019 536 1019 c 0,42,43
 665.720930233 1019 665.720930233 1019 750.642449971 968.282981267 c 128,-1,44
 835.563969709 917.565962535 835.563969709 917.565962535 866 837 c 0,8,9
439 105 m 0,45,46
 612 105 612 105 755 274 c 1,47,-1
 755 488 l 1,48,49
 748 487 748 487 626.5 470.5 c 128,-1,50
 505 454 505 454 429.615384615 432.461538462 c 128,-1,51
 354.230769231 410.923076923 354.230769231 410.923076923 291.115384615 363.586538462 c 128,-1,52
 228 316.25 228 316.25 228 226 c 0,53,54
 228 112.822222222 228 112.822222222 381.5 106 c 0,55,56
 404 105 404 105 439 105 c 0,45,46
EndSplineSet
EndChar

StartChar: aring
Encoding: 229 229 168
Width: 1035
GlyphClass: 1
Flags: W
LayerCount: 2
Fore
SplineSet
530 1086 m 256,0,1
 452 1086 452 1086 404 1135 c 128,-1,2
 356 1184 356 1184 356 1259.5 c 128,-1,3
 356 1335 356 1335 404.5 1383 c 128,-1,4
 453 1431 453 1431 529.5 1431 c 128,-1,5
 606 1431 606 1431 654.5 1383 c 128,-1,6
 703 1335 703 1335 703 1259.5 c 128,-1,7
 703 1184 703 1184 655 1135 c 128,-1,8
 607 1086 607 1086 530 1086 c 256,0,1
593 1322.5 m 128,-1,10
 568 1347 568 1347 529.5 1347 c 128,-1,11
 491 1347 491 1347 466 1322.5 c 128,-1,12
 441 1298 441 1298 441 1259.5 c 128,-1,13
 441 1221 441 1221 466 1195.5 c 128,-1,14
 491 1170 491 1170 529.5 1170 c 128,-1,15
 568 1170 568 1170 593 1195.5 c 128,-1,16
 618 1221 618 1221 618 1259.5 c 128,-1,9
 618 1298 618 1298 593 1322.5 c 128,-1,10
866 837 m 0,17,18
 883 792 883 792 883 764 c 128,-1,19
 883 736 883 736 876 423 c 1,20,21
 876 165 876 165 935 18 c 1,22,-1
 822 -16 l 1,23,24
 815 1 815 1 775 131 c 1,25,26
 623.979591837 -17 623.979591837 -17 443 -17 c 0,27,28
 197.311827957 -17 197.311827957 -17 125 117.5 c 0,29,30
 100 164 100 164 100 216.460589676 c 128,-1,31
 100 268.921179353 100 268.921179353 109.259574567 305.913670666 c 0,32,33
 128.128392134 381.295597218 128.128392134 381.295597218 174.248904642 425.893045967 c 0,34,35
 282.540160959 530.608138902 282.540160959 530.608138902 549.059742752 575.338698084 c 0,36,37
 696 600 696 600 755 618 c 1,38,39
 751.778280543 756.533936652 751.778280543 756.533936652 743.889140271 778.766968326 c 128,-1,40
 736 801 736 801 726 824 c 128,-1,41
 716 847 716 847 700 857.5 c 128,-1,42
 684 868 684 868 655.02173913 883.5 c 128,-1,43
 626.043478261 899 626.043478261 899 532.02173913 899 c 128,-1,44
 438 899 438 899 352 844 c 128,-1,45
 266 789 266 789 231 686 c 1,46,-1
 112 711 l 1,47,48
 131 807 131 807 195 878 c 0,49,50
 322.098591549 1019 322.098591549 1019 536 1019 c 0,51,52
 665.720930233 1019 665.720930233 1019 750.642449971 968.282981267 c 128,-1,53
 835.563969709 917.565962535 835.563969709 917.565962535 866 837 c 0,17,18
439 105 m 0,54,55
 612 105 612 105 755 274 c 1,56,-1
 755 488 l 1,57,58
 748 487 748 487 626.5 470.5 c 128,-1,59
 505 454 505 454 429.615384615 432.461538462 c 128,-1,60
 354.230769231 410.923076923 354.230769231 410.923076923 291.115384615 363.586538462 c 128,-1,61
 228 316.25 228 316.25 228 226 c 0,62,63
 228 112.822222222 228 112.822222222 381.5 106 c 0,64,65
 404 105 404 105 439 105 c 0,54,55
EndSplineSet
EndChar

StartChar: ae
Encoding: 230 230 169
Width: 1556
GlyphClass: 1
Flags: W
LayerCount: 2
Fore
SplineSet
485 901 m 0,0,1
 406 901 406 901 335.5 840.5 c 128,-1,2
 265 780 265 780 223 685 c 1,3,-1
 110 705 l 1,4,5
 132 827 132 827 246.5 923 c 128,-1,6
 361 1019 361 1019 490 1019 c 0,7,8
 579 1019 579 1019 660.5 975.5 c 128,-1,9
 742 932 742 932 777 855 c 1,10,11
 802.593172119 898.311522048 802.593172119 898.311522048 849.79658606 940.655761024 c 0,12,13
 939.360655738 1021 939.360655738 1021 1054.68032787 1021 c 128,-1,14
 1170 1021 1170 1021 1264 953.5 c 128,-1,15
 1358 886 1358 886 1407 784.5 c 128,-1,16
 1456 683 1456 683 1456 573 c 2,17,-1
 1456 446 l 1,18,-1
 805 446 l 1,19,20
 805 301 805 301 884.5 199.5 c 128,-1,21
 964 98 964 98 1093 98 c 0,22,23
 1191 98 1191 98 1258.5 154.5 c 128,-1,24
 1326 211 1326 211 1353 298 c 1,25,-1
 1441 265 l 1,26,27
 1415 143 1415 143 1324 63 c 128,-1,28
 1233 -17 1233 -17 1112 -17 c 128,-1,29
 991 -17 991 -17 896 45.5 c 128,-1,30
 801 108 801 108 746 206 c 1,31,32
 703 107 703 107 611 45 c 128,-1,33
 519 -17 519 -17 386.5 -17 c 128,-1,34
 254 -17 254 -17 177 37.5 c 128,-1,35
 100 92 100 92 100 238.771428571 c 128,-1,36
 100 385.542857143 100 385.542857143 199 460.5 c 0,37,38
 266.217821782 511.393493635 266.217821782 511.393493635 348.334938288 534.073459146 c 128,-1,39
 430.452054795 556.753424658 430.452054795 556.753424658 526.726027397 572.876712329 c 128,-1,40
 623 589 623 589 683 606 c 1,41,-1
 683 751 l 1,42,43
 613 901 613 901 485 901 c 0,0,1
1341 568 m 1,44,45
 1332.0020517 747.958965942 1332.0020517 747.958965942 1210.5 846.5 c 0,46,47
 1147 898 1147 898 1055 898 c 128,-1,48
 963 898 963 898 884 811 c 128,-1,49
 805 724 805 724 805 568 c 1,50,-1
 1341 568 l 1,44,45
535.806818182 144.045454545 m 128,-1,52
 593.363636364 190.090909091 593.363636364 190.090909091 683 285 c 1,53,-1
 683 488 l 1,54,55
 644 477 644 477 600.522290216 470.345248502 c 128,-1,56
 557.044580431 463.690497005 557.044580431 463.690497005 533.467532241 459.72096323 c 0,57,58
 378.985297842 433.711666305 378.985297842 433.711666305 318.891061453 393.210908774 c 0,59,60
 226 330.606596234 226 330.606596234 226 237.16294724 c 128,-1,61
 226 143.719298246 226 143.719298246 278.12 120.859649123 c 128,-1,62
 330.24 98 330.24 98 404.245 98 c 128,-1,51
 478.25 98 478.25 98 535.806818182 144.045454545 c 128,-1,52
EndSplineSet
EndChar

StartChar: ccedilla
Encoding: 231 231 170
Width: 1023
GlyphClass: 1
Flags: W
LayerCount: 2
Fore
SplineSet
622.5 -163 m 128,-1,1
 594 -144 594 -144 577 -144 c 128,-1,2
 560 -144 560 -144 501 -150 c 1,3,-1
 501 -16 l 1,4,5
 411 -10 411 -10 334.5 35 c 128,-1,6
 258 80 258 80 207.5 150.5 c 0,7,8
 100 300.574257426 100 300.574257426 100 488 c 0,9,10
 100 720.435897436 100 720.435897436 226.565217391 869.717948718 c 0,11,12
 353.130434783 1019 353.130434783 1019 528.509661836 1019 c 0,13,14
 703.888888889 1019 703.888888889 1019 827.5 856.5 c 0,15,16
 872 798 872 798 903 719 c 1,17,-1
 799 675 l 1,18,19
 673 903 673 903 513 903 c 0,20,21
 442 903 442 903 385 862.5 c 128,-1,22
 328 822 328 822 295 758.5 c 0,23,24
 228 629.575757576 228 629.575757576 228 492.445021645 c 0,25,26
 228 355.314285714 228 355.314285714 300 236 c 0,27,28
 335 178 335 178 394.5 141.5 c 128,-1,29
 454 105 454 105 528 105 c 0,30,31
 669.882978723 105 669.882978723 105 756.5 243 c 0,32,33
 786 290 786 290 806 353 c 1,34,-1
 923 342 l 1,35,36
 860.624052004 106.357529794 860.624052004 106.357529794 684.5 19 c 0,37,38
 622 -12 622 -12 549 -16 c 1,39,-1
 549 -93 l 1,40,41
 627 -68 627 -68 691.5 -106.5 c 128,-1,42
 756 -145 756 -145 756 -219.5 c 128,-1,43
 756 -294 756 -294 707 -334 c 128,-1,44
 658 -374 658 -374 571.5 -374 c 128,-1,45
 485 -374 485 -374 330 -307 c 1,46,-1
 353 -248 l 1,47,48
 374.363148649 -256.011180743 374.363148649 -256.011180743 400.71114767 -267.091384419 c 128,-1,49
 427.05914669 -278.171588094 427.05914669 -278.171588094 463.390684456 -292.085794047 c 128,-1,50
 499.722222222 -306 499.722222222 -306 545 -306 c 0,51,52
 651 -306 651 -306 651 -225 c 0,53,0
 651 -182 651 -182 622.5 -163 c 128,-1,1
EndSplineSet
EndChar

StartChar: egrave
Encoding: 232 232 171
Width: 1064
GlyphClass: 1
Flags: W
LayerCount: 2
Fore
SplineSet
679 1091 m 1,0,-1
 569 1091 l 1,1,-1
 385 1319 l 1,2,-1
 572 1319 l 1,3,-1
 679 1091 l 1,0,-1
530 105 m 0,4,5
 636 105 636 105 725 159 c 128,-1,6
 814 213 814 213 844 303 c 1,7,-1
 960 270 l 1,8,9
 926 137 926 137 801.5 60 c 128,-1,10
 677 -17 677 -17 548 -17 c 0,11,12
 307.940397351 -17 307.940397351 -17 203.970198675 139.995 c 128,-1,13
 100 296.99 100 296.99 100 509 c 0,14,15
 100 766.010204082 100 766.010204082 248 912.5 c 0,16,17
 355.597938144 1019 355.597938144 1019 529 1019 c 0,18,19
 653 1019 653 1019 753.5 957 c 128,-1,20
 854 895 854 895 909 793.5 c 128,-1,21
 964 692 964 692 964 573 c 2,22,-1
 964 447 l 1,23,-1
 230 447 l 1,24,25
 234 298 234 298 311.5 201.5 c 128,-1,26
 389 105 389 105 530 105 c 0,4,5
836 569 m 1,27,28
 833 654 833 654 794 729 c 128,-1,29
 755 804 755 804 685 851 c 128,-1,30
 615 898 615 898 529 898 c 0,31,32
 410 898 410 898 323 795 c 128,-1,33
 236 692 236 692 230 569 c 1,34,-1
 836 569 l 1,27,28
EndSplineSet
EndChar

StartChar: eacute
Encoding: 233 233 172
Width: 1064
GlyphClass: 1
Flags: W
LayerCount: 2
Fore
SplineSet
492 1319 m 1,0,-1
 680 1319 l 1,1,-1
 496 1091 l 1,2,-1
 385 1091 l 1,3,-1
 492 1319 l 1,0,-1
530 105 m 0,4,5
 636 105 636 105 725 159 c 128,-1,6
 814 213 814 213 844 303 c 1,7,-1
 960 270 l 1,8,9
 926 137 926 137 801.5 60 c 128,-1,10
 677 -17 677 -17 548 -17 c 0,11,12
 307.940397351 -17 307.940397351 -17 203.970198675 139.995 c 128,-1,13
 100 296.99 100 296.99 100 509 c 0,14,15
 100 766.010204082 100 766.010204082 248 912.5 c 0,16,17
 355.597938144 1019 355.597938144 1019 529 1019 c 0,18,19
 653 1019 653 1019 753.5 957 c 128,-1,20
 854 895 854 895 909 793.5 c 128,-1,21
 964 692 964 692 964 573 c 2,22,-1
 964 447 l 1,23,-1
 230 447 l 1,24,25
 234 298 234 298 311.5 201.5 c 128,-1,26
 389 105 389 105 530 105 c 0,4,5
836 569 m 1,27,28
 833 654 833 654 794 729 c 128,-1,29
 755 804 755 804 685 851 c 128,-1,30
 615 898 615 898 529 898 c 0,31,32
 410 898 410 898 323 795 c 128,-1,33
 236 692 236 692 230 569 c 1,34,-1
 836 569 l 1,27,28
EndSplineSet
EndChar

StartChar: ecircumflex
Encoding: 234 234 173
Width: 1064
GlyphClass: 1
Flags: W
LayerCount: 2
Fore
SplineSet
533 1206 m 1,0,-1
 435 1090 l 1,1,-1
 285 1090 l 1,2,-1
 456 1300 l 1,3,-1
 610 1300 l 1,4,-1
 780 1090 l 1,5,-1
 629 1090 l 1,6,-1
 533 1206 l 1,0,-1
530 105 m 0,7,8
 636 105 636 105 725 159 c 128,-1,9
 814 213 814 213 844 303 c 1,10,-1
 960 270 l 1,11,12
 926 137 926 137 801.5 60 c 128,-1,13
 677 -17 677 -17 548 -17 c 0,14,15
 307.940397351 -17 307.940397351 -17 203.970198675 139.995 c 128,-1,16
 100 296.99 100 296.99 100 509 c 0,17,18
 100 766.010204082 100 766.010204082 248 912.5 c 0,19,20
 355.597938144 1019 355.597938144 1019 529 1019 c 0,21,22
 653 1019 653 1019 753.5 957 c 128,-1,23
 854 895 854 895 909 793.5 c 128,-1,24
 964 692 964 692 964 573 c 2,25,-1
 964 447 l 1,26,-1
 230 447 l 1,27,28
 234 298 234 298 311.5 201.5 c 128,-1,29
 389 105 389 105 530 105 c 0,7,8
836 569 m 1,30,31
 833 654 833 654 794 729 c 128,-1,32
 755 804 755 804 685 851 c 128,-1,33
 615 898 615 898 529 898 c 0,34,35
 410 898 410 898 323 795 c 128,-1,36
 236 692 236 692 230 569 c 1,37,-1
 836 569 l 1,30,31
EndSplineSet
EndChar

StartChar: edieresis
Encoding: 235 235 174
Width: 1064
GlyphClass: 1
Flags: W
LayerCount: 2
Fore
SplineSet
431 1208 m 1,0,-1
 297 1208 l 1,1,-1
 297 1355 l 1,2,-1
 431 1355 l 1,3,-1
 431 1208 l 1,0,-1
767 1208 m 1,4,-1
 635 1208 l 1,5,-1
 635 1355 l 1,6,-1
 767 1355 l 1,7,-1
 767 1208 l 1,4,-1
530 105 m 0,8,9
 636 105 636 105 725 159 c 128,-1,10
 814 213 814 213 844 303 c 1,11,-1
 960 270 l 1,12,13
 926 137 926 137 801.5 60 c 128,-1,14
 677 -17 677 -17 548 -17 c 0,15,16
 307.940397351 -17 307.940397351 -17 203.970198675 139.995 c 128,-1,17
 100 296.99 100 296.99 100 509 c 0,18,19
 100 766.010204082 100 766.010204082 248 912.5 c 0,20,21
 355.597938144 1019 355.597938144 1019 529 1019 c 0,22,23
 653 1019 653 1019 753.5 957 c 128,-1,24
 854 895 854 895 909 793.5 c 128,-1,25
 964 692 964 692 964 573 c 2,26,-1
 964 447 l 1,27,-1
 230 447 l 1,28,29
 234 298 234 298 311.5 201.5 c 128,-1,30
 389 105 389 105 530 105 c 0,8,9
836 569 m 1,31,32
 833 654 833 654 794 729 c 128,-1,33
 755 804 755 804 685 851 c 128,-1,34
 615 898 615 898 529 898 c 0,35,36
 410 898 410 898 323 795 c 128,-1,37
 236 692 236 692 230 569 c 1,38,-1
 836 569 l 1,31,32
EndSplineSet
EndChar

StartChar: igrave
Encoding: 236 236 175
Width: 327
GlyphClass: 1
Flags: W
LayerCount: 2
Fore
SplineSet
310 1091 m 1,0,-1
 200 1091 l 1,1,-1
 16 1319 l 1,2,-1
 203 1319 l 1,3,-1
 310 1091 l 1,0,-1
227 0 m 1,4,-1
 100 0 l 1,5,-1
 100 1000 l 1,6,-1
 227 1000 l 1,7,-1
 227 0 l 1,4,-1
EndSplineSet
EndChar

StartChar: iacute
Encoding: 237 237 176
Width: 327
GlyphClass: 1
Flags: W
LayerCount: 2
Fore
SplineSet
123 1319 m 1,0,-1
 311 1319 l 1,1,-1
 127 1091 l 1,2,-1
 16 1091 l 1,3,-1
 123 1319 l 1,0,-1
227 0 m 1,4,-1
 100 0 l 1,5,-1
 100 1000 l 1,6,-1
 227 1000 l 1,7,-1
 227 0 l 1,4,-1
EndSplineSet
EndChar

StartChar: icircumflex
Encoding: 238 238 177
Width: 327
GlyphClass: 1
Flags: W
LayerCount: 2
Fore
SplineSet
164 1206 m 1,0,-1
 66 1090 l 1,1,-1
 -84 1090 l 1,2,-1
 87 1300 l 1,3,-1
 241 1300 l 1,4,-1
 411 1090 l 1,5,-1
 260 1090 l 1,6,-1
 164 1206 l 1,0,-1
227 0 m 1,7,-1
 100 0 l 1,8,-1
 100 1000 l 1,9,-1
 227 1000 l 1,10,-1
 227 0 l 1,7,-1
EndSplineSet
EndChar

StartChar: idieresis
Encoding: 239 239 178
Width: 327
GlyphClass: 1
Flags: W
LayerCount: 2
Fore
SplineSet
62 1208 m 1,0,-1
 -72 1208 l 1,1,-1
 -72 1355 l 1,2,-1
 62 1355 l 1,3,-1
 62 1208 l 1,0,-1
398 1208 m 1,4,-1
 266 1208 l 1,5,-1
 266 1355 l 1,6,-1
 398 1355 l 1,7,-1
 398 1208 l 1,4,-1
227 0 m 1,8,-1
 100 0 l 1,9,-1
 100 1000 l 1,10,-1
 227 1000 l 1,11,-1
 227 0 l 1,8,-1
EndSplineSet
EndChar

StartChar: eth
Encoding: 240 240 179
Width: 1073
GlyphClass: 1
Flags: W
LayerCount: 2
Fore
SplineSet
755 927 m 1,0,1
 681 1069 681 1069 594 1193 c 1,2,-1
 358 1055 l 1,3,-1
 297 1157 l 1,4,-1
 519 1283 l 1,5,6
 422 1378 422 1378 354 1430 c 1,7,-1
 508 1430 l 1,8,9
 544 1405 544 1405 611 1338 c 1,10,-1
 848 1476 l 1,11,-1
 909 1373 l 1,12,-1
 689 1248 l 1,13,14
 873.549595885 991.681116826 873.549595885 991.681116826 945 699.5 c 0,15,16
 973 585 973 585 973 476 c 128,-1,17
 973 367 973 367 918.5 261.5 c 128,-1,18
 864 156 864 156 761.5 87.5 c 128,-1,19
 659 19 659 19 547 19 c 128,-1,20
 435 19 435 19 350.5 63 c 128,-1,21
 266 107 266 107 213 177 c 0,22,23
 100 326.245283019 100 326.245283019 100 502.532553619 c 128,-1,24
 100 678.819824219 100 678.819824219 212.5 826 c 0,25,26
 266 896 266 896 350 939 c 128,-1,27
 434 982 434 982 510 982 c 128,-1,28
 586 982 586 982 755 927 c 1,0,1
375.5 196 m 128,-1,30
 447 136 447 136 535.5 136 c 128,-1,31
 624 136 624 136 697 194 c 128,-1,32
 770 252 770 252 806.5 334.5 c 128,-1,33
 843 417 843 417 843 481.5 c 0,34,35
 843 661.830985915 843 661.830985915 729.145453563 780.496287836 c 0,36,37
 652.864864865 860 652.864864865 860 534 860 c 0,38,39
 464 860 464 860 404.5 824 c 128,-1,40
 345 788 345 788 308.5 733 c 0,41,42
 232 617.726027397 232 617.726027397 232 499 c 0,43,44
 232 421 232 421 268 338.5 c 128,-1,29
 304 256 304 256 375.5 196 c 128,-1,30
EndSplineSet
EndChar

StartChar: ntilde
Encoding: 241 241 180
Width: 971
GlyphClass: 1
Flags: W
LayerCount: 2
Fore
SplineSet
164 1087 m 1,0,1
 173.083333333 1305 173.083333333 1305 345.5 1305 c 0,2,3
 394 1305 394 1305 485 1261 c 128,-1,4
 576 1217 576 1217 633 1217 c 0,5,6
 674 1217 674 1217 681 1305 c 1,7,-1
 808 1305 l 1,8,9
 803.370223979 1161.47694335 803.370223979 1161.47694335 724.5 1111 c 0,10,11
 687 1087 687 1087 634 1087 c 128,-1,12
 581 1087 581 1087 488 1126.5 c 128,-1,13
 395 1166 395 1166 341 1166 c 0,14,15
 297 1166 297 1166 291 1087 c 1,16,-1
 164 1087 l 1,0,1
679.5 824.5 m 128,-1,18
 612 896 612 896 538 896 c 128,-1,19
 464 896 464 896 394 856 c 128,-1,20
 324 816 324 816 275.5 751 c 128,-1,21
 227 686 227 686 227 622 c 2,22,-1
 227 0 l 1,23,-1
 100 0 l 1,24,-1
 100 1000 l 1,25,-1
 227 1000 l 1,26,-1
 227 875 l 1,27,28
 284 951 284 951 352.5 985 c 128,-1,29
 421 1019 421 1019 541 1019 c 128,-1,30
 661 1019 661 1019 766 915.5 c 128,-1,31
 871 812 871 812 871 676 c 2,32,-1
 871 0 l 1,33,-1
 747 0 l 1,34,-1
 747 669 l 2,35,17
 747 753 747 753 679.5 824.5 c 128,-1,18
EndSplineSet
EndChar

StartChar: ograve
Encoding: 242 242 181
Width: 1069
GlyphClass: 1
Flags: W
LayerCount: 2
Fore
SplineSet
682 1091 m 1,0,-1
 572 1091 l 1,1,-1
 388 1319 l 1,2,-1
 575 1319 l 1,3,-1
 682 1091 l 1,0,-1
531 1019 m 256,4,5
 762.985074627 1019 762.985074627 1019 894 788 c 0,6,7
 969 655.763157895 969 655.763157895 969 480.294422984 c 0,8,9
 969 304.825688073 969 304.825688073 853.5 148 c 0,10,11
 799 74 799 74 714.5 28.5 c 128,-1,12
 630 -17 630 -17 531.5 -17 c 128,-1,13
 433 -17 433 -17 349.5 30.5 c 128,-1,14
 266 78 266 78 213 153 c 0,15,16
 100 312.905660377 100 312.905660377 100 502.141509434 c 0,17,18
 100 691.377358491 100 691.377358491 211 849.5 c 0,19,20
 264 925 264 925 347.5 972 c 128,-1,21
 431 1019 431 1019 531 1019 c 256,4,5
407.5 140.5 m 128,-1,23
 466 103 466 103 544.5 103 c 128,-1,24
 623 103 623 103 696.5 166.5 c 128,-1,25
 770 230 770 230 806 319.5 c 128,-1,26
 842 409 842 409 842 501 c 128,-1,27
 842 593 842 593 808 681.5 c 128,-1,28
 774 770 774 770 701 833 c 128,-1,29
 628 896 628 896 545 896 c 128,-1,30
 462 896 462 896 403 858 c 128,-1,31
 344 820 344 820 306.5 761 c 128,-1,32
 269 702 269 702 248 633 c 128,-1,33
 227 564 227 564 227 499 c 128,-1,34
 227 434 227 434 249.5 365 c 128,-1,35
 272 296 272 296 310.5 237 c 128,-1,22
 349 178 349 178 407.5 140.5 c 128,-1,23
EndSplineSet
EndChar

StartChar: oacute
Encoding: 243 243 182
Width: 1069
GlyphClass: 1
Flags: W
LayerCount: 2
Fore
SplineSet
494 1319 m 1,0,-1
 682 1319 l 1,1,-1
 498 1091 l 1,2,-1
 387 1091 l 1,3,-1
 494 1319 l 1,0,-1
531 1019 m 256,4,5
 762.985074627 1019 762.985074627 1019 894 788 c 0,6,7
 969 655.763157895 969 655.763157895 969 480.294422984 c 0,8,9
 969 304.825688073 969 304.825688073 853.5 148 c 0,10,11
 799 74 799 74 714.5 28.5 c 128,-1,12
 630 -17 630 -17 531.5 -17 c 128,-1,13
 433 -17 433 -17 349.5 30.5 c 128,-1,14
 266 78 266 78 213 153 c 0,15,16
 100 312.905660377 100 312.905660377 100 502.141509434 c 0,17,18
 100 691.377358491 100 691.377358491 211 849.5 c 0,19,20
 264 925 264 925 347.5 972 c 128,-1,21
 431 1019 431 1019 531 1019 c 256,4,5
407.5 140.5 m 128,-1,23
 466 103 466 103 544.5 103 c 128,-1,24
 623 103 623 103 696.5 166.5 c 128,-1,25
 770 230 770 230 806 319.5 c 128,-1,26
 842 409 842 409 842 501 c 128,-1,27
 842 593 842 593 808 681.5 c 128,-1,28
 774 770 774 770 701 833 c 128,-1,29
 628 896 628 896 545 896 c 128,-1,30
 462 896 462 896 403 858 c 128,-1,31
 344 820 344 820 306.5 761 c 128,-1,32
 269 702 269 702 248 633 c 128,-1,33
 227 564 227 564 227 499 c 128,-1,34
 227 434 227 434 249.5 365 c 128,-1,35
 272 296 272 296 310.5 237 c 128,-1,22
 349 178 349 178 407.5 140.5 c 128,-1,23
EndSplineSet
EndChar

StartChar: ocircumflex
Encoding: 244 244 183
Width: 1069
GlyphClass: 1
Flags: W
LayerCount: 2
Fore
SplineSet
535 1206 m 1,0,-1
 437 1090 l 1,1,-1
 287 1090 l 1,2,-1
 458 1300 l 1,3,-1
 612 1300 l 1,4,-1
 782 1090 l 1,5,-1
 631 1090 l 1,6,-1
 535 1206 l 1,0,-1
531 1019 m 256,7,8
 762.985074627 1019 762.985074627 1019 894 788 c 0,9,10
 969 655.763157895 969 655.763157895 969 480.294422984 c 0,11,12
 969 304.825688073 969 304.825688073 853.5 148 c 0,13,14
 799 74 799 74 714.5 28.5 c 128,-1,15
 630 -17 630 -17 531.5 -17 c 128,-1,16
 433 -17 433 -17 349.5 30.5 c 128,-1,17
 266 78 266 78 213 153 c 0,18,19
 100 312.905660377 100 312.905660377 100 502.141509434 c 0,20,21
 100 691.377358491 100 691.377358491 211 849.5 c 0,22,23
 264 925 264 925 347.5 972 c 128,-1,24
 431 1019 431 1019 531 1019 c 256,7,8
407.5 140.5 m 128,-1,26
 466 103 466 103 544.5 103 c 128,-1,27
 623 103 623 103 696.5 166.5 c 128,-1,28
 770 230 770 230 806 319.5 c 128,-1,29
 842 409 842 409 842 501 c 128,-1,30
 842 593 842 593 808 681.5 c 128,-1,31
 774 770 774 770 701 833 c 128,-1,32
 628 896 628 896 545 896 c 128,-1,33
 462 896 462 896 403 858 c 128,-1,34
 344 820 344 820 306.5 761 c 128,-1,35
 269 702 269 702 248 633 c 128,-1,36
 227 564 227 564 227 499 c 128,-1,37
 227 434 227 434 249.5 365 c 128,-1,38
 272 296 272 296 310.5 237 c 128,-1,25
 349 178 349 178 407.5 140.5 c 128,-1,26
EndSplineSet
EndChar

StartChar: otilde
Encoding: 245 245 184
Width: 1069
GlyphClass: 1
Flags: W
LayerCount: 2
Fore
SplineSet
213 1087 m 1,0,1
 222.083333333 1305 222.083333333 1305 394.5 1305 c 0,2,3
 443 1305 443 1305 534 1261 c 128,-1,4
 625 1217 625 1217 682 1217 c 0,5,6
 723 1217 723 1217 730 1305 c 1,7,-1
 857 1305 l 1,8,9
 852.370223979 1161.47694335 852.370223979 1161.47694335 773.5 1111 c 0,10,11
 736 1087 736 1087 683 1087 c 128,-1,12
 630 1087 630 1087 537 1126.5 c 128,-1,13
 444 1166 444 1166 390 1166 c 0,14,15
 346 1166 346 1166 340 1087 c 1,16,-1
 213 1087 l 1,0,1
531 1019 m 256,17,18
 762.985074627 1019 762.985074627 1019 894 788 c 0,19,20
 969 655.763157895 969 655.763157895 969 480.294422984 c 128,-1,21
 969 304.825688073 969 304.825688073 853.5 148 c 0,22,23
 799 74 799 74 714.5 28.5 c 128,-1,24
 630 -17 630 -17 531.5 -17 c 128,-1,25
 433 -17 433 -17 349.5 30.5 c 128,-1,26
 266 78 266 78 213 153 c 0,27,28
 100 312.905660377 100 312.905660377 100 502.141509434 c 128,-1,29
 100 691.377358491 100 691.377358491 211 849.5 c 0,30,31
 264 925 264 925 347.5 972 c 128,-1,32
 431 1019 431 1019 531 1019 c 256,17,18
407.5 140.5 m 128,-1,34
 466 103 466 103 544.5 103 c 128,-1,35
 623 103 623 103 696.5 166.5 c 128,-1,36
 770 230 770 230 806 319.5 c 128,-1,37
 842 409 842 409 842 501 c 128,-1,38
 842 593 842 593 808 681.5 c 128,-1,39
 774 770 774 770 701 833 c 128,-1,40
 628 896 628 896 545 896 c 128,-1,41
 462 896 462 896 403 858 c 128,-1,42
 344 820 344 820 306.5 761 c 128,-1,43
 269 702 269 702 248 633 c 128,-1,44
 227 564 227 564 227 499 c 128,-1,45
 227 434 227 434 249.5 365 c 128,-1,46
 272 296 272 296 310.5 237 c 128,-1,33
 349 178 349 178 407.5 140.5 c 128,-1,34
EndSplineSet
EndChar

StartChar: odieresis
Encoding: 246 246 185
Width: 1069
GlyphClass: 1
Flags: W
LayerCount: 2
Fore
SplineSet
434 1208 m 1,0,-1
 300 1208 l 1,1,-1
 300 1355 l 1,2,-1
 434 1355 l 1,3,-1
 434 1208 l 1,0,-1
770 1208 m 1,4,-1
 638 1208 l 1,5,-1
 638 1355 l 1,6,-1
 770 1355 l 1,7,-1
 770 1208 l 1,4,-1
531 1019 m 256,8,9
 762.985074627 1019 762.985074627 1019 894 788 c 0,10,11
 969 655.763157895 969 655.763157895 969 480.294422984 c 0,12,13
 969 304.825688073 969 304.825688073 853.5 148 c 0,14,15
 799 74 799 74 714.5 28.5 c 128,-1,16
 630 -17 630 -17 531.5 -17 c 128,-1,17
 433 -17 433 -17 349.5 30.5 c 128,-1,18
 266 78 266 78 213 153 c 0,19,20
 100 312.905660377 100 312.905660377 100 502.141509434 c 0,21,22
 100 691.377358491 100 691.377358491 211 849.5 c 0,23,24
 264 925 264 925 347.5 972 c 128,-1,25
 431 1019 431 1019 531 1019 c 256,8,9
407.5 140.5 m 128,-1,27
 466 103 466 103 544.5 103 c 128,-1,28
 623 103 623 103 696.5 166.5 c 128,-1,29
 770 230 770 230 806 319.5 c 128,-1,30
 842 409 842 409 842 501 c 128,-1,31
 842 593 842 593 808 681.5 c 128,-1,32
 774 770 774 770 701 833 c 128,-1,33
 628 896 628 896 545 896 c 128,-1,34
 462 896 462 896 403 858 c 128,-1,35
 344 820 344 820 306.5 761 c 128,-1,36
 269 702 269 702 248 633 c 128,-1,37
 227 564 227 564 227 499 c 128,-1,38
 227 434 227 434 249.5 365 c 128,-1,39
 272 296 272 296 310.5 237 c 128,-1,26
 349 178 349 178 407.5 140.5 c 128,-1,27
EndSplineSet
EndChar

StartChar: divide
Encoding: 247 247 186
Width: 785
GlyphClass: 1
Flags: W
LayerCount: 2
Fore
SplineSet
469 740 m 1,0,-1
 315 740 l 1,1,-1
 315 897 l 1,2,-1
 469 897 l 1,3,-1
 469 740 l 1,0,-1
100 562 m 1,4,-1
 685 562 l 1,5,-1
 685 438 l 1,6,-1
 100 438 l 1,7,-1
 100 562 l 1,4,-1
468 102 m 1,8,-1
 314 102 l 1,9,-1
 314 260 l 1,10,-1
 468 260 l 1,11,-1
 468 102 l 1,8,-1
EndSplineSet
EndChar

StartChar: oslash
Encoding: 248 248 187
Width: 1069
GlyphClass: 1
Flags: W
LayerCount: 2
Fore
SplineSet
902.5 772 m 128,-1,1
 969 644 969 644 969 524.5 c 128,-1,2
 969 405 969 405 938.5 313.5 c 128,-1,3
 908 222 908 222 853.5 148 c 128,-1,4
 799 74 799 74 714.5 28.5 c 128,-1,5
 630 -17 630 -17 531 -17 c 0,6,7
 492 -17 492 -17 454 -9 c 1,8,-1
 399 -203 l 1,9,-1
 269 -203 l 1,10,-1
 337 38 l 1,11,12
 224 109 224 109 162 238 c 128,-1,13
 100 367 100 367 100 479.5 c 128,-1,14
 100 592 100 592 129 683 c 128,-1,15
 158 774 158 774 211 849.5 c 128,-1,16
 264 925 264 925 347.5 972 c 128,-1,17
 431 1019 431 1019 531 1019 c 0,18,19
 571 1019 571 1019 611 1011 c 1,20,-1
 664 1197 l 1,21,-1
 794 1197 l 1,22,-1
 728 965 l 1,23,0
 836 900 836 900 902.5 772 c 128,-1,1
531 896 m 0,24,25
 462 896 462 896 403 858 c 128,-1,26
 344 820 344 820 306.5 761 c 0,27,28
 227 635.92 227 635.92 227 499 c 0,29,30
 227 418 227 418 264 323.5 c 128,-1,31
 301 229 301 229 373 166 c 1,32,-1
 578 892 l 1,33,34
 556 896 556 896 531 896 c 0,24,25
531 103 m 0,35,36
 623 103 623 103 696.5 166.5 c 128,-1,37
 770 230 770 230 806 319.5 c 128,-1,38
 842 409 842 409 842 501 c 128,-1,39
 842 593 842 593 804 688.5 c 128,-1,40
 766 784 766 784 693 840 c 1,41,-1
 487 108 l 1,42,43
 510 103 510 103 531 103 c 0,35,36
EndSplineSet
EndChar

StartChar: ugrave
Encoding: 249 249 188
Width: 975
GlyphClass: 1
Flags: W
LayerCount: 2
Fore
SplineSet
635 1091 m 1,0,-1
 525 1091 l 1,1,-1
 341 1319 l 1,2,-1
 528 1319 l 1,3,-1
 635 1091 l 1,0,-1
288.5 173.5 m 128,-1,5
 350 104 350 104 443 104 c 128,-1,6
 536 104 536 104 621.5 168.5 c 128,-1,7
 707 233 707 233 747 329 c 1,8,-1
 747 1000 l 1,9,-1
 875 1000 l 1,10,-1
 875 0 l 1,11,-1
 745 0 l 1,12,-1
 745 124 l 1,13,14
 673 56 673 56 603 19.5 c 128,-1,15
 533 -17 533 -17 447 -17 c 128,-1,16
 361 -17 361 -17 281 29.5 c 128,-1,17
 201 76 201 76 150.5 153 c 128,-1,18
 100 230 100 230 100 313 c 2,19,-1
 100 1000 l 1,20,-1
 227 1000 l 1,21,-1
 227 329 l 2,22,4
 227 243 227 243 288.5 173.5 c 128,-1,5
EndSplineSet
EndChar

StartChar: uacute
Encoding: 250 250 189
Width: 975
GlyphClass: 1
Flags: W
LayerCount: 2
Fore
SplineSet
447 1319 m 1,0,-1
 635 1319 l 1,1,-1
 451 1091 l 1,2,-1
 340 1091 l 1,3,-1
 447 1319 l 1,0,-1
288.5 173.5 m 128,-1,5
 350 104 350 104 443 104 c 128,-1,6
 536 104 536 104 621.5 168.5 c 128,-1,7
 707 233 707 233 747 329 c 1,8,-1
 747 1000 l 1,9,-1
 875 1000 l 1,10,-1
 875 0 l 1,11,-1
 745 0 l 1,12,-1
 745 124 l 1,13,14
 673 56 673 56 603 19.5 c 128,-1,15
 533 -17 533 -17 447 -17 c 128,-1,16
 361 -17 361 -17 281 29.5 c 128,-1,17
 201 76 201 76 150.5 153 c 128,-1,18
 100 230 100 230 100 313 c 2,19,-1
 100 1000 l 1,20,-1
 227 1000 l 1,21,-1
 227 329 l 2,22,4
 227 243 227 243 288.5 173.5 c 128,-1,5
EndSplineSet
EndChar

StartChar: ucircumflex
Encoding: 251 251 190
Width: 975
GlyphClass: 1
Flags: W
LayerCount: 2
Fore
SplineSet
488 1206 m 1,0,-1
 390 1090 l 1,1,-1
 240 1090 l 1,2,-1
 411 1300 l 1,3,-1
 565 1300 l 1,4,-1
 735 1090 l 1,5,-1
 584 1090 l 1,6,-1
 488 1206 l 1,0,-1
288.5 173.5 m 128,-1,8
 350 104 350 104 443 104 c 128,-1,9
 536 104 536 104 621.5 168.5 c 128,-1,10
 707 233 707 233 747 329 c 1,11,-1
 747 1000 l 1,12,-1
 875 1000 l 1,13,-1
 875 0 l 1,14,-1
 745 0 l 1,15,-1
 745 124 l 1,16,17
 673 56 673 56 603 19.5 c 128,-1,18
 533 -17 533 -17 447 -17 c 128,-1,19
 361 -17 361 -17 281 29.5 c 128,-1,20
 201 76 201 76 150.5 153 c 128,-1,21
 100 230 100 230 100 313 c 2,22,-1
 100 1000 l 1,23,-1
 227 1000 l 1,24,-1
 227 329 l 2,25,7
 227 243 227 243 288.5 173.5 c 128,-1,8
EndSplineSet
EndChar

StartChar: udieresis
Encoding: 252 252 191
Width: 975
GlyphClass: 1
Flags: W
LayerCount: 2
Fore
SplineSet
387 1208 m 1,0,-1
 253 1208 l 1,1,-1
 253 1355 l 1,2,-1
 387 1355 l 1,3,-1
 387 1208 l 1,0,-1
723 1208 m 1,4,-1
 591 1208 l 1,5,-1
 591 1355 l 1,6,-1
 723 1355 l 1,7,-1
 723 1208 l 1,4,-1
288.5 173.5 m 128,-1,9
 350 104 350 104 443 104 c 128,-1,10
 536 104 536 104 621.5 168.5 c 128,-1,11
 707 233 707 233 747 329 c 1,12,-1
 747 1000 l 1,13,-1
 875 1000 l 1,14,-1
 875 0 l 1,15,-1
 745 0 l 1,16,-1
 745 124 l 1,17,18
 673 56 673 56 603 19.5 c 128,-1,19
 533 -17 533 -17 447 -17 c 128,-1,20
 361 -17 361 -17 281 29.5 c 128,-1,21
 201 76 201 76 150.5 153 c 128,-1,22
 100 230 100 230 100 313 c 2,23,-1
 100 1000 l 1,24,-1
 227 1000 l 1,25,-1
 227 329 l 2,26,8
 227 243 227 243 288.5 173.5 c 128,-1,9
EndSplineSet
EndChar

StartChar: yacute
Encoding: 253 253 192
Width: 1077
GlyphClass: 1
Flags: W
LayerCount: 2
Fore
SplineSet
498 1319 m 1,0,-1
 686 1319 l 1,1,-1
 502 1091 l 1,2,-1
 391 1091 l 1,3,-1
 498 1319 l 1,0,-1
188 -229 m 1,4,5
 235 -281 235 -281 283 -281 c 0,6,7
 366 -281 366 -281 408 -179 c 1,8,-1
 494 39 l 1,9,-1
 139 1000 l 1,10,-1
 272 1000 l 1,11,-1
 562 223 l 1,12,-1
 839 1000 l 1,13,-1
 977 1000 l 1,14,-1
 544 -198 l 1,15,16
 464 -408 464 -408 282 -408 c 0,17,18
 190 -408 190 -408 100 -316 c 1,19,-1
 188 -229 l 1,4,5
EndSplineSet
EndChar

StartChar: thorn
Encoding: 254 254 193
Width: 927
GlyphClass: 1
Flags: W
LayerCount: 2
Fore
SplineSet
589 25 m 128,-1,1
 512 -16 512 -16 440 -16 c 128,-1,2
 368 -16 368 -16 324.5 4.5 c 128,-1,3
 281 25 281 25 227 65 c 1,4,-1
 227 -366 l 1,5,-1
 100 -366 l 1,6,-1
 100 1374 l 1,7,-1
 227 1374 l 1,8,-1
 227 825 l 1,9,10
 279 881 279 881 325 900 c 128,-1,11
 371 919 371 919 439.5 919 c 128,-1,12
 508 919 508 919 577.5 887.5 c 0,13,14
 699.609247571 832.155520885 699.609247571 832.155520885 763.304623786 700.720617585 c 128,-1,15
 827 569.285714286 827 569.285714286 827 462.642857143 c 128,-1,16
 827 356 827 356 797.5 276.5 c 128,-1,17
 768 197 768 197 717 131.5 c 128,-1,0
 666 66 666 66 589 25 c 128,-1,1
569.5 770 m 128,-1,19
 502 828 502 828 437.5 828 c 128,-1,20
 373 828 373 828 329 800.5 c 128,-1,21
 285 773 285 773 227 713 c 1,22,-1
 227 174 l 1,23,24
 318 89 318 89 433.5 89 c 128,-1,25
 549 89 549 89 631 189.5 c 128,-1,26
 713 290 713 290 713 434 c 0,27,28
 713 530 713 530 675 621 c 128,-1,18
 637 712 637 712 569.5 770 c 128,-1,19
EndSplineSet
EndChar

StartChar: ydieresis
Encoding: 255 255 194
Width: 1077
GlyphClass: 1
Flags: W
LayerCount: 2
Fore
SplineSet
438 1208 m 1,0,-1
 304 1208 l 1,1,-1
 304 1355 l 1,2,-1
 438 1355 l 1,3,-1
 438 1208 l 1,0,-1
774 1208 m 1,4,-1
 642 1208 l 1,5,-1
 642 1355 l 1,6,-1
 774 1355 l 1,7,-1
 774 1208 l 1,4,-1
188 -229 m 1,8,9
 235 -281 235 -281 283 -281 c 0,10,11
 366 -281 366 -281 408 -179 c 1,12,-1
 494 39 l 1,13,-1
 139 1000 l 1,14,-1
 272 1000 l 1,15,-1
 562 223 l 1,16,-1
 839 1000 l 1,17,-1
 977 1000 l 1,18,-1
 544 -198 l 1,19,20
 464 -408 464 -408 282 -408 c 0,21,22
 190 -408 190 -408 100 -316 c 1,23,-1
 188 -229 l 1,8,9
EndSplineSet
EndChar

StartChar: amacron
Encoding: 257 257 195
Width: 1035
GlyphClass: 1
Flags: W
LayerCount: 2
Fore
SplineSet
824 1181 m 1,0,-1
 229 1181 l 1,1,-1
 229 1293 l 1,2,-1
 824 1293 l 1,3,-1
 824 1181 l 1,0,-1
866 837 m 0,4,5
 883 792 883 792 883 764 c 128,-1,6
 883 736 883 736 876 423 c 1,7,8
 876 165 876 165 935 18 c 1,9,-1
 822 -16 l 1,10,11
 815 1 815 1 775 131 c 1,12,13
 623.979591837 -17 623.979591837 -17 443 -17 c 0,14,15
 197.311827957 -17 197.311827957 -17 125 117.5 c 0,16,17
 100 164 100 164 100 216.460589676 c 128,-1,18
 100 268.921179353 100 268.921179353 109.259574567 305.913670666 c 0,19,20
 128.128392134 381.295597218 128.128392134 381.295597218 174.248904642 425.893045967 c 0,21,22
 282.540160959 530.608138902 282.540160959 530.608138902 549.059742752 575.338698084 c 0,23,24
 696 600 696 600 755 618 c 1,25,26
 751.778280543 756.533936652 751.778280543 756.533936652 743.889140271 778.766968326 c 128,-1,27
 736 801 736 801 726 824 c 128,-1,28
 716 847 716 847 700 857.5 c 128,-1,29
 684 868 684 868 655.02173913 883.5 c 128,-1,30
 626.043478261 899 626.043478261 899 532.02173913 899 c 128,-1,31
 438 899 438 899 352 844 c 128,-1,32
 266 789 266 789 231 686 c 1,33,-1
 112 711 l 1,34,35
 131 807 131 807 195 878 c 0,36,37
 322.098591549 1019 322.098591549 1019 536 1019 c 0,38,39
 665.720930233 1019 665.720930233 1019 750.642449971 968.282981267 c 128,-1,40
 835.563969709 917.565962535 835.563969709 917.565962535 866 837 c 0,4,5
439 105 m 0,41,42
 612 105 612 105 755 274 c 1,43,-1
 755 488 l 1,44,45
 748 487 748 487 626.5 470.5 c 128,-1,46
 505 454 505 454 429.615384615 432.461538462 c 128,-1,47
 354.230769231 410.923076923 354.230769231 410.923076923 291.115384615 363.586538462 c 128,-1,48
 228 316.25 228 316.25 228 226 c 0,49,50
 228 112.822222222 228 112.822222222 381.5 106 c 0,51,52
 404 105 404 105 439 105 c 0,41,42
EndSplineSet
EndChar

StartChar: imacron
Encoding: 299 299 196
Width: 327
GlyphClass: 1
Flags: W
LayerCount: 2
Fore
SplineSet
450 1181 m 1,0,-1
 -145 1181 l 1,1,-1
 -145 1293 l 1,2,-1
 450 1293 l 1,3,-1
 450 1181 l 1,0,-1
227 0 m 1,4,-1
 100 0 l 1,5,-1
 100 1000 l 1,6,-1
 227 1000 l 1,7,-1
 227 0 l 1,4,-1
EndSplineSet
EndChar

StartChar: dotlessi
Encoding: 305 305 197
Width: 327
GlyphClass: 1
Flags: W
LayerCount: 2
Fore
SplineSet
227 0 m 1,0,-1
 100 0 l 1,1,-1
 100 1000 l 1,2,-1
 227 1000 l 1,3,-1
 227 0 l 1,0,-1
EndSplineSet
EndChar

StartChar: OE
Encoding: 338 338 198
Width: 2192
GlyphClass: 1
Flags: W
LayerCount: 2
Fore
SplineSet
288.5 153.5 m 0,0,1
 202 241 202 241 151 379 c 128,-1,2
 100 517 100 517 100 686 c 0,3,4
 100 995.645833333 100 995.645833333 242 1183.5 c 0,5,6
 399.606299213 1392 399.606299213 1392 717 1392 c 0,7,8
 953 1392 953 1392 1122 1238 c 1,9,-1
 1122 1372 l 1,10,-1
 2069 1372 l 1,11,-1
 2069 1243 l 1,12,-1
 1272 1243 l 1,13,-1
 1272 773 l 1,14,-1
 2001 773 l 1,15,-1
 2001 645 l 1,16,-1
 1272 645 l 1,17,-1
 1272 129 l 1,18,-1
 2092 129 l 1,19,-1
 2092 0 l 1,20,-1
 1122 0 l 1,21,-1
 1122 127 l 1,22,23
 947 -28 947 -28 707.462857143 -28 c 128,-1,24
 467.925714286 -28 467.925714286 -28 288.5 153.5 c 0,0,1
950 1195 m 128,-1,26
 839 1263 839 1263 733 1263 c 128,-1,27
 627 1263 627 1263 546 1228 c 128,-1,28
 465 1193 465 1193 398 1124.5 c 128,-1,29
 331 1056 331 1056 291 942.5 c 128,-1,30
 251 829 251 829 251 699.5 c 0,31,32
 251 350.275 251 350.275 446.815668203 198.517857143 c 0,33,34
 568.774193548 104 568.774193548 104 706.887096774 104 c 128,-1,35
 845 104 845 104 954.5 173 c 128,-1,36
 1064 242 1064 242 1122 371 c 1,37,-1
 1122 997 l 1,38,25
 1061 1127 1061 1127 950 1195 c 128,-1,26
EndSplineSet
EndChar

StartChar: oe
Encoding: 339 339 199
Width: 1805
GlyphClass: 1
Flags: W
LayerCount: 2
Fore
SplineSet
899 223 m 1,0,1
 770.428571429 -17 770.428571429 -17 513 -17 c 0,2,3
 433 -17 433 -17 349.5 30.5 c 128,-1,4
 266 78 266 78 213 153 c 0,5,6
 100 312.905660377 100 312.905660377 100 502.141509434 c 128,-1,7
 100 691.377358491 100 691.377358491 211 849.5 c 0,8,9
 264 925 264 925 347.5 972 c 128,-1,10
 431 1019 431 1019 531 1019 c 0,11,12
 701.736263736 1019 701.736263736 1019 823.5 885.5 c 0,13,14
 865 840 865 840 897 779 c 1,15,16
 1009 1019 1009 1019 1269 1019 c 0,17,18
 1456 1019 1456 1019 1580.5 887.5 c 128,-1,19
 1705 756 1705 756 1705 573 c 2,20,-1
 1705 447 l 1,21,-1
 971 447 l 1,22,23
 975 298 975 298 1052.5 201.5 c 128,-1,24
 1130 105 1130 105 1271 105 c 0,25,26
 1372 105 1372 105 1463.5 157.5 c 128,-1,27
 1555 210 1555 210 1586 303 c 1,28,-1
 1700 270 l 1,29,30
 1667 136 1667 136 1542.5 59.5 c 128,-1,31
 1418 -17 1418 -17 1270 -17 c 0,32,33
 1010 -17 1010 -17 899 223 c 1,0,1
1578 569 m 1,34,35
 1574 700 1574 700 1487 799 c 128,-1,36
 1400 898 1400 898 1276 898 c 128,-1,37
 1152 898 1152 898 1065 796.5 c 128,-1,38
 978 695 978 695 971 569 c 1,39,-1
 1578 569 l 1,34,35
664 859.5 m 128,-1,41
 603 896 603 896 532.5 896 c 128,-1,42
 462 896 462 896 403 858 c 128,-1,43
 344 820 344 820 306.5 761 c 128,-1,44
 269 702 269 702 248 633 c 128,-1,45
 227 564 227 564 227 499 c 128,-1,46
 227 434 227 434 249.5 365 c 128,-1,47
 272 296 272 296 310.5 237 c 128,-1,48
 349 178 349 178 407.5 140.5 c 128,-1,49
 466 103 466 103 527 103 c 0,50,51
 693.980769231 103 693.980769231 103 785.600602864 279.453012922 c 0,52,53
 842 388.074074074 842 388.074074074 842 478.537037037 c 128,-1,54
 842 569 842 569 821 638 c 128,-1,55
 800 707 800 707 762.5 765 c 128,-1,40
 725 823 725 823 664 859.5 c 128,-1,41
EndSplineSet
EndChar

StartChar: umacron
Encoding: 363 363 200
Width: 975
GlyphClass: 1
Flags: W
LayerCount: 2
Fore
SplineSet
784 1181 m 1,0,-1
 189 1181 l 1,1,-1
 189 1293 l 1,2,-1
 784 1293 l 1,3,-1
 784 1181 l 1,0,-1
288.5 173.5 m 128,-1,5
 350 104 350 104 443 104 c 128,-1,6
 536 104 536 104 621.5 168.5 c 128,-1,7
 707 233 707 233 747 329 c 1,8,-1
 747 1000 l 1,9,-1
 875 1000 l 1,10,-1
 875 0 l 1,11,-1
 745 0 l 1,12,-1
 745 124 l 1,13,14
 673 56 673 56 603 19.5 c 128,-1,15
 533 -17 533 -17 447 -17 c 128,-1,16
 361 -17 361 -17 281 29.5 c 128,-1,17
 201 76 201 76 150.5 153 c 128,-1,18
 100 230 100 230 100 313 c 2,19,-1
 100 1000 l 1,20,-1
 227 1000 l 1,21,-1
 227 329 l 2,22,4
 227 243 227 243 288.5 173.5 c 128,-1,5
EndSplineSet
EndChar

StartChar: Ydieresis
Encoding: 376 376 201
Width: 1394
GlyphClass: 1
Flags: W
LayerCount: 2
Fore
SplineSet
596 1580 m 1,0,-1
 462 1580 l 1,1,-1
 462 1727 l 1,2,-1
 596 1727 l 1,3,-1
 596 1580 l 1,0,-1
932 1580 m 1,4,-1
 800 1580 l 1,5,-1
 800 1727 l 1,6,-1
 932 1727 l 1,7,-1
 932 1580 l 1,4,-1
1294 1372 m 1,8,-1
 775 569 l 1,9,-1
 775 0 l 1,10,-1
 621 0 l 1,11,-1
 621 569 l 1,12,-1
 100 1372 l 1,13,-1
 270 1372 l 1,14,-1
 700 704 l 1,15,-1
 1123 1372 l 1,16,-1
 1294 1372 l 1,8,-1
EndSplineSet
EndChar

StartChar: florin
Encoding: 402 402 202
Width: 1057
GlyphClass: 1
Flags: W
LayerCount: 2
Fore
SplineSet
931 1126 m 1,0,1
 863 1148 863 1148 799 1148 c 0,2,3
 703 1148 703 1148 678 967 c 0,4,5
 672 924 672 924 667 894 c 1,6,-1
 842 894 l 1,7,-1
 824 799 l 1,8,-1
 647 799 l 1,9,-1
 484 -150 l 1,10,11
 450.368421053 -363 450.368421053 -363 277 -363 c 0,12,13
 210 -363 210 -363 100 -341 c 1,14,-1
 127 -234 l 1,15,16
 204 -250 204 -250 243.732142857 -250 c 0,17,18
 283.464285714 -250 283.464285714 -250 319.722107015 -222.561648746 c 128,-1,19
 355.979928315 -195.123297491 355.979928315 -195.123297491 370 -109 c 2,20,-1
 520 799 l 1,21,-1
 347 799 l 1,22,-1
 365 894 l 1,23,-1
 539 894 l 1,24,25
 567.807692308 1047.64102564 567.807692308 1047.64102564 582.403846154 1083.32051282 c 128,-1,26
 597 1119 597 1119 613.462809917 1156.04132231 c 0,27,28
 629.925619835 1193.08264463 629.925619835 1193.08264463 673.109868741 1228.04132231 c 128,-1,29
 716.294117647 1263 716.294117647 1263 767.647058824 1263 c 128,-1,30
 819 1263 819 1263 843.5 1258.5 c 128,-1,31
 868 1254 868 1254 957 1233 c 1,32,-1
 931 1126 l 1,0,1
EndSplineSet
EndChar

StartChar: circumflex
Encoding: 710 710 203
Width: 695
GlyphClass: 1
Flags: W
LayerCount: 2
Fore
SplineSet
348 1206 m 1,0,-1
 250 1090 l 1,1,-1
 100 1090 l 1,2,-1
 271 1300 l 1,3,-1
 425 1300 l 1,4,-1
 595 1090 l 1,5,-1
 444 1090 l 1,6,-1
 348 1206 l 1,0,-1
EndSplineSet
EndChar

StartChar: ring
Encoding: 730 730 204
Width: 547
GlyphClass: 1
Flags: W
LayerCount: 2
Fore
SplineSet
274 959 m 256,0,1
 196 959 196 959 148 1008 c 128,-1,2
 100 1057 100 1057 100 1132.5 c 128,-1,3
 100 1208 100 1208 148.5 1256 c 128,-1,4
 197 1304 197 1304 273.5 1304 c 128,-1,5
 350 1304 350 1304 398.5 1256 c 128,-1,6
 447 1208 447 1208 447 1132.5 c 128,-1,7
 447 1057 447 1057 399 1008 c 128,-1,8
 351 959 351 959 274 959 c 256,0,1
337 1195.5 m 128,-1,10
 312 1220 312 1220 273.5 1220 c 128,-1,11
 235 1220 235 1220 210 1195.5 c 128,-1,12
 185 1171 185 1171 185 1132.5 c 128,-1,13
 185 1094 185 1094 210 1068.5 c 128,-1,14
 235 1043 235 1043 273.5 1043 c 128,-1,15
 312 1043 312 1043 337 1068.5 c 128,-1,16
 362 1094 362 1094 362 1132.5 c 128,-1,9
 362 1171 362 1171 337 1195.5 c 128,-1,10
EndSplineSet
EndChar

StartChar: tilde
Encoding: 732 732 205
Width: 775
GlyphClass: 1
Flags: W
LayerCount: 2
Fore
SplineSet
258 1163 m 0,0,1
 219 1163 219 1163 213 1100 c 1,2,-1
 100 1100 l 1,3,4
 106.92 1273 106.92 1273 258 1273 c 0,5,6
 304 1273 304 1273 385.5 1238 c 128,-1,7
 467 1203 467 1203 519 1203 c 0,8,9
 555 1203 555 1203 562 1273 c 1,10,-1
 675 1273 l 1,11,12
 675 1159.71428571 675 1159.71428571 592.5 1116.5 c 0,13,14
 561 1100 561 1100 517.5 1100 c 128,-1,15
 474 1100 474 1100 390 1131.5 c 128,-1,16
 306 1163 306 1163 258 1163 c 0,0,1
EndSplineSet
EndChar

StartChar: tildecomb
Encoding: 771 771 206
Width: 0
GlyphClass: 1
Flags: W
LayerCount: 2
Fore
SplineSet
-322 1087 m 1,0,1
 -312.916666667 1305 -312.916666667 1305 -140.5 1305 c 0,2,3
 -92 1305 -92 1305 -1 1261 c 128,-1,4
 90 1217 90 1217 147 1217 c 0,5,6
 188 1217 188 1217 195 1305 c 1,7,-1
 322 1305 l 1,8,9
 317.370223979 1161.47694335 317.370223979 1161.47694335 238.5 1111 c 0,10,11
 201 1087 201 1087 148 1087 c 128,-1,12
 95 1087 95 1087 2 1126.5 c 128,-1,13
 -91 1166 -91 1166 -145 1166 c 0,14,15
 -189 1166 -189 1166 -195 1087 c 1,16,-1
 -322 1087 l 1,0,1
EndSplineSet
EndChar

StartChar: uni0304
Encoding: 772 772 207
Width: 0
GlyphClass: 1
Flags: W
LayerCount: 2
Fore
SplineSet
298 1181 m 1,0,-1
 -297 1181 l 1,1,-1
 -297 1293 l 1,2,-1
 298 1293 l 1,3,-1
 298 1181 l 1,0,-1
EndSplineSet
EndChar

StartChar: uni0307
Encoding: 775 775 208
Width: 0
GlyphClass: 1
Flags: W
LayerCount: 2
Fore
SplineSet
72.5 1319.5 m 128,-1,1
 103 1292 103 1292 103.5 1246.5 c 128,-1,2
 104 1201 104 1201 73.5 1173.5 c 128,-1,3
 43 1146 43 1146 -0.5 1146 c 128,-1,4
 -44 1146 -44 1146 -73.5 1177.5 c 128,-1,5
 -103 1209 -103 1209 -103 1250.5 c 128,-1,6
 -103 1292 -103 1292 -72.5 1319.5 c 128,-1,7
 -42 1347 -42 1347 -1.42108547152e-14 1347 c 128,-1,0
 42 1347 42 1347 72.5 1319.5 c 128,-1,1
EndSplineSet
EndChar

StartChar: dotbelowcomb
Encoding: 803 803 209
Width: 0
GlyphClass: 1
Flags: W
LayerCount: 2
Fore
SplineSet
72.5 -140.5 m 128,-1,1
 103 -168 103 -168 103.5 -213.5 c 128,-1,2
 104 -259 104 -259 73.5 -286.5 c 128,-1,3
 43 -314 43 -314 0 -314 c 128,-1,4
 -43 -314 -43 -314 -73 -283.5 c 128,-1,5
 -103 -253 -103 -253 -103 -210.5 c 128,-1,6
 -103 -168 -103 -168 -72.5 -140.5 c 128,-1,7
 -42 -113 -42 -113 0 -113 c 128,-1,0
 42 -113 42 -113 72.5 -140.5 c 128,-1,1
EndSplineSet
EndChar

StartChar: uni035C
Encoding: 860 860 210
Width: 0
GlyphClass: 4
Flags: W
LayerCount: 2
Fore
SplineSet
465.5 -217.5 m 128,-1,1
 505 -205 505 -205 519.5 -205 c 128,-1,2
 534 -205 534 -205 549 -220 c 128,-1,3
 564 -235 564 -235 564 -254.375 c 0,4,5
 564 -273.75 564 -273.75 550.736462094 -291.158393502 c 128,-1,6
 537.472924188 -308.566787004 537.472924188 -308.566787004 468 -329 c 0,7,8
 224 -409 224 -409 -10.6456708554 -409 c 128,-1,9
 -245.291341711 -409 -245.291341711 -409 -480.10503259 -315.209235541 c 0,10,11
 -529.109275932 -295.635651788 -529.109275932 -295.635651788 -546.554637966 -283.817825894 c 128,-1,12
 -564 -272 -564 -272 -564 -248 c 128,-1,13
 -564 -224 -564 -224 -549 -209 c 128,-1,14
 -534 -194 -534 -194 -518 -194 c 128,-1,15
 -502 -194 -502 -194 -462 -208 c 128,-1,16
 -422 -222 -422 -222 -369.5 -239.5 c 0,17,18
 -233 -285 -233 -285 -1.58333333333 -285 c 128,-1,19
 229.833333333 -285 229.833333333 -285 372.5 -245 c 0,20,0
 426 -230 426 -230 465.5 -217.5 c 128,-1,1
EndSplineSet
EndChar

StartChar: uni0E4D
Encoding: 3661 3661 211
Width: 0
GlyphClass: 1
Flags: W
HStem: 1205 100<-61.3973 61.3973> 1458 100<-61.3973 61.3973>
VStem: -177 100<1320.6 1443.09> 77 100<1320.6 1443.09>
LayerCount: 2
Fore
SplineSet
-177 1382 m 256,0,1
 -177 1457 -177 1457 -126 1507.5 c 128,-1,2
 -75 1558 -75 1558 0 1558 c 128,-1,3
 75 1558 75 1558 126 1507.5 c 128,-1,4
 177 1457 177 1457 177 1382 c 128,-1,5
 177 1307 177 1307 126 1256 c 128,-1,6
 75 1205 75 1205 0 1205 c 128,-1,7
 -75 1205 -75 1205 -126 1256 c 128,-1,8
 -177 1307 -177 1307 -177 1382 c 256,0,1
77 1382 m 256,9,10
 77 1414 77 1414 54.5 1436 c 128,-1,11
 32 1458 32 1458 0 1458 c 128,-1,12
 -32 1458 -32 1458 -54.5 1436 c 128,-1,13
 -77 1414 -77 1414 -77 1382 c 128,-1,14
 -77 1350 -77 1350 -54.5 1327.5 c 128,-1,15
 -32 1305 -32 1305 0 1305 c 128,-1,16
 32 1305 32 1305 54.5 1327.5 c 128,-1,17
 77 1350 77 1350 77 1382 c 256,9,10
EndSplineSet
EndChar

StartChar: uni0E80
Encoding: 3712 3712 212
Width: 976
GlyphClass: 1
Flags: W
AnchorPoint: "+BBEENQQ3BEsEPARPBD0EPQQ+BDUA--3" 976 1135 basechar 0
AnchorPoint: "+BBEENQQ3BEsEPARPBD0EPQQ+BDUA--2" 476 1135 basechar 0
AnchorPoint: "+BBEENQQ3BEsEPARPBD0EPQQ+BDUA--1" 976 0 basechar 0
AnchorPoint: "+BBEENQQ3BEsEPARPBD0EPQQ+BDUA--0" 476 0 basechar 0
LayerCount: 2
Fore
SplineSet
96 277 m 1,0,-1
 364 546 l 1,1,-1
 96 818 l 1,2,-1
 209 931 l 1,3,-1
 475 661 l 1,4,-1
 742 931 l 1,5,-1
 854 818 l 1,6,-1
 587 548 l 1,7,-1
 856 277 l 1,8,-1
 742 163 l 1,9,-1
 475 433 l 1,10,-1
 207 163 l 1,11,-1
 96 277 l 1,0,-1
475 461 m 1,12,-1
 742 191 l 1,13,-1
 828 277 l 1,14,-1
 559 548 l 1,15,-1
 826 818 l 1,16,-1
 742 903 l 1,17,-1
 475 633 l 1,18,-1
 209 903 l 1,19,-1
 124 818 l 1,20,-1
 392 546 l 1,21,-1
 124 277 l 1,22,-1
 207 191 l 1,23,-1
 475 461 l 1,12,-1
EndSplineSet
EndChar

StartChar: uni0E81
Encoding: 3713 3713 213
Width: 1290
GlyphClass: 2
Flags: W
HStem: -15 94<199.141 294.27> 193 94<199.798 294.36> 807 102<198.049 319.893> 1010 125<583.637 913.711> 1016 100<205.533 303.543>
VStem: 96 94<88.6354 183.81 917.594 1007.92> 372 125<248.258 830.212> 1069 126<185.595 829.178>
AnchorPoint: "+BBEENQQ3BEsEPARPBD0EPQQ+BDUA--3" 1290 1135 basechar 0
AnchorPoint: "+BBEENQQ3BEsEPARPBD0EPQQ+BDUA--2" 746 1135 basechar 0
AnchorPoint: "+BBEENQQ3BEsEPARPBD0EPQQ+BDUA--1" 1290 0 basechar 0
AnchorPoint: "+BBEENQQ3BEsEPARPBD0EPQQ+BDUA--0" 696 0 basechar 0
LayerCount: 2
Fore
SplineSet
331 6.5 m 0,0,1
 293 -15 293 -15 238.5 -15 c 128,-1,2
 184 -15 184 -15 140 29 c 128,-1,3
 96 73 96 73 96 136.5 c 128,-1,4
 96 200 96 200 140.5 243.5 c 128,-1,5
 185 287 185 287 246.5 287 c 128,-1,6
 308 287 308 287 351 246 c 1,7,8
 372 360 372 360 372 528.5 c 128,-1,9
 372 697 372 697 348 834 c 1,10,11
 292 807 292 807 239 807 c 128,-1,12
 186 807 186 807 141 851.5 c 128,-1,13
 96 896 96 896 96 961.5 c 128,-1,14
 96 1027 96 1027 140 1071.5 c 128,-1,15
 184 1116 184 1116 246 1116 c 0,16,17
 349 1116 349 1116 411 999 c 1,18,19
 504 1065 504 1065 584 1100 c 128,-1,20
 664 1135 664 1135 765 1135 c 128,-1,21
 866 1135 866 1135 954 1090 c 128,-1,22
 1042 1045 1042 1045 1093.5 964.5 c 0,23,24
 1195 805.844660194 1195 805.844660194 1195 560 c 0,25,26
 1195 248 1195 248 1105 39 c 0,27,28
 1090 5 1090 5 1077 -5 c 128,-1,29
 1064 -15 1064 -15 1041.5 -15 c 128,-1,30
 1019 -15 1019 -15 1001.5 2.5 c 128,-1,31
 984 20 984 20 984 43.186097995 c 128,-1,32
 984 66.37219599 984 66.37219599 1026.5 187.712515393 c 128,-1,33
 1069 309.052834795 1069 309.052834795 1069 560 c 0,34,35
 1069 902.89380531 1069 902.89380531 878.5 985.5 c 0,36,37
 822 1010 822 1010 762.5 1010 c 128,-1,38
 703 1010 703 1010 649 991.5 c 128,-1,39
 595 973 595 973 559 953 c 128,-1,40
 523 933 523 933 454 892 c 1,41,42
 497 745 497 745 497 560 c 0,43,44
 497 100.421052632 497 100.421052632 331 6.5 c 0,0,1
188 962 m 256,45,46
 188 937 188 937 206 923 c 128,-1,47
 224 909 224 909 250 909 c 128,-1,48
 276 909 276 909 321 937 c 1,49,50
 289.394295588 1016.01426103 289.394295588 1016.01426103 246 1016 c 256,51,52
 222 1016 222 1016 205 1001.5 c 128,-1,53
 188 987 188 987 188 962 c 256,45,46
247 193 m 256,54,55
 223 193 223 193 206.5 176.5 c 128,-1,56
 190 160 190 160 190 136 c 128,-1,57
 190 112 190 112 206.5 95.5 c 128,-1,58
 223 79 223 79 247 79 c 128,-1,59
 271 79 271 79 287.5 95.5 c 128,-1,60
 304 112 304 112 304 136 c 128,-1,61
 304 160 304 160 287.5 176.5 c 128,-1,62
 271 193 271 193 247 193 c 256,54,55
EndSplineSet
Substitution2: "'ss05' Style Set 5 lookup 16 subtable" uni0E81.1
Substitution2: "'ss01' Style Set 1 lookup 12 subtable" uni0E80
EndChar

StartChar: uni0E82
Encoding: 3714 3714 214
Width: 1120
GlyphClass: 2
Flags: W
HStem: -16 126<249.25 583.138> 106 125<675.313 910.622> 660 94<199.635 294.81> 1011 124<312.93 797.768>
VStem: 96 125<141.075 328.15> 96 94<763.196 858.771> 304 94<763.111 858.639> 915 125<3.07996 96.9801 702.913 917.3>
AnchorPoint: "+BBEENQQ3BEsEPARPBD0EPQQ+BDUA--3" 1120 1135 basechar 0
AnchorPoint: "+BBEENQQ3BEsEPARPBD0EPQQ+BDUA--2" 568 1135 basechar 0
AnchorPoint: "+BBEENQQ3BEsEPARPBD0EPQQ+BDUA--1" 1120 0 basechar 0
AnchorPoint: "+BBEENQQ3BEsEPARPBD0EPQQ+BDUA--0" 568 0 basechar 0
LayerCount: 2
Fore
SplineSet
915 800 m 0,0,1
 915 1011 915 1011 525.767857143 1011 c 0,2,3
 394 1011 394 1011 290 956 c 1,4,5
 313.829787234 948.85106383 313.829787234 948.85106383 341.914893617 928.425531915 c 0,6,7
 398 887.636363636 398 887.636363636 398 818.318181818 c 128,-1,8
 398 749 398 749 354.5 704.5 c 128,-1,9
 311 660 311 660 247.5 660 c 128,-1,10
 184 660 184 660 140 704 c 128,-1,11
 96 748 96 748 96 821.5 c 128,-1,12
 96 895 96 895 137 959.5 c 128,-1,13
 178 1024 178 1024 246.5 1061 c 0,14,15
 383.5 1135 383.5 1135 558 1135 c 0,16,17
 793.301369863 1135 793.301369863 1135 929.5 1032.5 c 0,18,19
 978 996 978 996 1009 936 c 128,-1,20
 1040 876 1040 876 1040 802 c 0,21,22
 1040 656.844827586 1040 656.844827586 915.460955987 580.618343751 c 128,-1,23
 790.921911973 504.391859915 790.921911973 504.391859915 631.019405796 463.632397556 c 128,-1,24
 471.116899619 422.872935197 471.116899619 422.872935197 346.058449809 374.358881392 c 128,-1,25
 221 325.844827586 221 325.844827586 221 235 c 0,26,27
 221 110 221 110 391 110 c 0,28,29
 500.377777778 110 500.377777778 110 616 170.5 c 128,-1,30
 731.622222222 231 731.622222222 231 818.811111111 231 c 128,-1,31
 906 231 906 231 973 179.5 c 128,-1,32
 1040 128 1040 128 1040 47 c 0,33,34
 1040 21 1040 21 1021.5 2.5 c 128,-1,35
 1003 -16 1003 -16 977 -16 c 128,-1,36
 951.131633339 -16 951.131633339 -16 938.609417557 -6.46182225403 c 128,-1,37
 926.087201775 3.07635549193 926.087201775 3.07635549193 922.511587033 17.9950566338 c 128,-1,38
 918.935972292 32.9137577757 918.935972292 32.9137577757 915.248907936 48.7397578283 c 0,39,40
 901.908695804 106 901.908695804 106 813 106 c 0,41,42
 762.347826087 106 762.347826087 106 643 45 c 128,-1,43
 523.652173913 -16 523.652173913 -16 393.826086957 -16 c 128,-1,44
 264 -16 264 -16 180 47 c 128,-1,45
 96 110 96 110 96 236 c 0,46,47
 96 314 96 314 141 373.5 c 128,-1,48
 186 433 186 433 258.5 469 c 128,-1,49
 331 505 331 505 418 533 c 128,-1,50
 505 561 505 561 592.5 584.5 c 128,-1,51
 680 608 680 608 752.5 634.5 c 0,52,53
 915 693.896551724 915 693.896551724 915 800 c 0,0,1
247 868 m 256,54,55
 223 868 223 868 206.5 851.5 c 128,-1,56
 190 835 190 835 190 811 c 128,-1,57
 190 787 190 787 206.5 770.5 c 128,-1,58
 223 754 223 754 247 754 c 128,-1,59
 271 754 271 754 287.5 770.5 c 128,-1,60
 304 787 304 787 304 811 c 128,-1,61
 304 835 304 835 287.5 851.5 c 128,-1,62
 271 868 271 868 247 868 c 256,54,55
EndSplineSet
EndChar

StartChar: uni0E83
Encoding: 3715 3715 215
Width: 1154
GlyphClass: 2
Flags: W
HStem: -16 126<267.057 597.548> 106 125<694.611 911.098> 660 94<168.635 263.81> 1010 125<239.869 454.542 677.61 869.241>
VStem: 65 94<763.565 857.578> 114 125<140.7 328.224> 273 94<763.728 858.616> 499 126<763.57 856.25> 933 125<702.454 941.686>
AnchorPoint: "+BBEENQQ3BEsEPARPBD0EPQQ+BDUA--3" 1154 1135 basechar 0
AnchorPoint: "+BBEENQQ3BEsEPARPBD0EPQQ+BDUA--2" 562 1135 basechar 0
AnchorPoint: "+BBEENQQ3BEsEPARPBD0EPQQ+BDUA--1" 1154 0 basechar 0
AnchorPoint: "+BBEENQQ3BEsEPARPBD0EPQQ+BDUA--0" 0 0 basechar 0
LayerCount: 2
Fore
SplineSet
239 235 m 0,0,1
 239 110 239 110 409 110 c 0,2,3
 513 110 513 110 634 170.5 c 128,-1,4
 755 231 755 231 839.5 231 c 128,-1,5
 924 231 924 231 991 179.5 c 128,-1,6
 1058 128 1058 128 1058 47 c 0,7,8
 1058 21 1058 21 1039.5 2.5 c 128,-1,9
 1021 -16 1021 -16 995 -16 c 0,10,11
 938 -16 938 -16 933 47 c 1,12,13
 919 81 919 81 898.5 93.5 c 128,-1,14
 878 106 878 106 831.326086957 106 c 128,-1,15
 784.652173913 106 784.652173913 106 660 45 c 128,-1,16
 535.347826087 -16 535.347826087 -16 408.673913043 -16 c 128,-1,17
 282 -16 282 -16 198 47 c 128,-1,18
 114 110 114 110 114 233.752631579 c 128,-1,19
 114 357.505263158 114 357.505263158 212.391566265 426.897209892 c 128,-1,20
 310.78313253 496.289156627 310.78313253 496.289156627 417.391566265 527.644578313 c 128,-1,21
 524 559 524 559 638.75 591.3 c 128,-1,22
 753.5 623.6 753.5 623.6 829.5 662 c 0,23,24
 933 714.294736842 933 714.294736842 933 796.147368421 c 128,-1,25
 933 878 933 878 887.5 944 c 128,-1,26
 842 1010 842 1010 780.5 1010 c 128,-1,27
 719 1010 719 1010 674.5 962 c 128,-1,28
 630 914 630 914 622 857 c 1,29,30
 625 833 625 833 625 807 c 256,31,32
 625 781 625 781 606.5 763 c 128,-1,33
 588 745 588 745 562 745 c 128,-1,34
 536 745 536 745 517.5 763 c 128,-1,35
 499 781 499 781 499 831.741935484 c 128,-1,36
 499 882.483870968 499 882.483870968 466.598360656 946.241935484 c 128,-1,37
 434.196721311 1010 434.196721311 1010 361.098360656 1010 c 128,-1,38
 288 1010 288 1010 234 961 c 1,39,40
 289 955 289 955 328 913 c 128,-1,41
 367 871 367 871 367 810 c 128,-1,42
 367 749 367 749 323.5 704.5 c 128,-1,43
 280 660 280 660 216.5 660 c 128,-1,44
 153 660 153 660 109 704 c 128,-1,45
 65 748 65 748 65 811 c 0,46,47
 65 946 65 946 151 1040.5 c 128,-1,48
 237 1135 237 1135 364 1135 c 128,-1,49
 491 1135 491 1135 563 1026 c 1,50,51
 639 1135 639 1135 766 1135 c 128,-1,52
 893 1135 893 1135 975.5 1033.5 c 128,-1,53
 1058 932 1058 932 1058 794.422413793 c 128,-1,54
 1058 656.844827586 1058 656.844827586 933.460955987 580.618343751 c 128,-1,55
 808.921911973 504.391859915 808.921911973 504.391859915 649.019405796 463.632397556 c 128,-1,56
 489.116899619 422.872935197 489.116899619 422.872935197 364.058449809 374.358881392 c 128,-1,57
 239 325.844827586 239 325.844827586 239 235 c 0,0,1
216 868 m 256,58,59
 192 868 192 868 175.5 851.5 c 128,-1,60
 159 835 159 835 159 811 c 128,-1,61
 159 787 159 787 175.5 770.5 c 128,-1,62
 192 754 192 754 216 754 c 128,-1,63
 240 754 240 754 256.5 770.5 c 128,-1,64
 273 787 273 787 273 811 c 128,-1,65
 273 835 273 835 256.5 851.5 c 128,-1,66
 240 868 240 868 216 868 c 256,58,59
EndSplineSet
Substitution2: "'ss06' Style Set 6 lookup 17 subtable" uni0E83.2
EndChar

StartChar: uni0E84
Encoding: 3716 3716 216
Width: 1206
GlyphClass: 2
Flags: W
HStem: -14 94<372.136 467.616> 194 94<372.338 467.485> 401 95<303.445 475.5> 608 95<316.168 475.734> 1011 125<379.343 844.711>
VStem: 112 125<187.251 448.081 644.188 899.054> 477 94<89.0969 184.506 497.513 606.487> 985 126<185.697 859.379>
AnchorPoint: "+BBEENQQ3BEsEPARPBD0EPQQ+BDUA--3" 1206 1135 basechar 0
AnchorPoint: "+BBEENQQ3BEsEPARPBD0EPQQ+BDUA--2" 612 1135 basechar 0
AnchorPoint: "+BBEENQQ3BEsEPARPBD0EPQQ+BDUA--1" 1206 0 basechar 0
AnchorPoint: "+BBEENQQ3BEsEPARPBD0EPQQ+BDUA--0" 612 0 basechar 0
LayerCount: 2
Fore
SplineSet
527.5 30.5 m 128,-1,1
 484 -14 484 -14 405.5 -14 c 128,-1,2
 327 -14 327 -14 255 41 c 0,3,4
 112 150.236111111 112 150.236111111 112 349 c 0,5,6
 112 454 112 454 167 546 c 1,7,8
 112 637 112 637 112 769 c 0,9,10
 112 983.484375 112 983.484375 325 1080 c 0,11,12
 448.586206897 1136 448.586206897 1136 601.793103448 1136 c 128,-1,13
 755 1136 755 1136 851.5 1102.5 c 128,-1,14
 948 1069 948 1069 1005.5 995.5 c 128,-1,15
 1063 922 1063 922 1087 817.5 c 128,-1,16
 1111 713 1111 713 1111 560 c 0,17,18
 1111 248 1111 248 1021 39 c 0,19,20
 1006 5 1006 5 993 -5 c 128,-1,21
 980 -15 980 -15 957.5 -15 c 128,-1,22
 935 -15 935 -15 917.5 2.5 c 128,-1,23
 900 20 900 20 900 41.7848736612 c 128,-1,24
 900 63.5697473223 900 63.5697473223 942.5 188.012010184 c 128,-1,25
 985 312.454273046 985 312.454273046 985 560 c 0,26,27
 985 866.341176471 985 866.341176471 875.5 947.5 c 0,28,29
 789.825396825 1011 789.825396825 1011 635.089169001 1011 c 128,-1,30
 480.352941176 1011 480.352941176 1011 419.176470588 985 c 128,-1,31
 358 959 358 959 320 934 c 0,32,33
 237 879.394736842 237 879.394736842 237 769 c 0,34,35
 237 694 237 694 251 643 c 1,36,37
 326 703 326 703 404 703 c 128,-1,38
 482 703 482 703 526.5 658.5 c 128,-1,39
 571 614 571 614 571 552 c 128,-1,40
 571 490 571 490 526.5 445.5 c 128,-1,41
 482 401 482 401 402 401 c 128,-1,42
 322 401 322 401 252 450 c 1,43,44
 237 402 237 402 237 329.5 c 128,-1,45
 237 257 237 257 277 185 c 1,46,47
 291 230 291 230 330 259 c 128,-1,48
 369 288 369 288 426 288 c 128,-1,49
 483 288 483 288 527 244 c 128,-1,50
 571 200 571 200 571 137.5 c 128,-1,0
 571 75 571 75 527.5 30.5 c 128,-1,1
477 552 m 256,51,52
 477 575 477 575 460 591.5 c 128,-1,53
 443 608 443 608 420 608 c 0,54,55
 349 608 349 608 299 545 c 1,56,57
 344 496 344 496 420 496 c 0,58,59
 443 496 443 496 460 512.5 c 128,-1,60
 477 529 477 529 477 552 c 256,51,52
420 194 m 256,61,62
 396 194 396 194 379.5 177.5 c 128,-1,63
 363 161 363 161 363 137 c 128,-1,64
 363 113 363 113 379.5 96.5 c 128,-1,65
 396 80 396 80 420 80 c 128,-1,66
 444 80 444 80 460.5 96.5 c 128,-1,67
 477 113 477 113 477 137 c 128,-1,68
 477 161 477 161 460.5 177.5 c 128,-1,69
 444 194 444 194 420 194 c 256,61,62
EndSplineSet
Substitution2: "'ss05' Style Set 5 lookup 16 subtable" uni0E84.1
EndChar

StartChar: uni0E85
Encoding: 3717 3717 217
Width: 1355
GlyphClass: 2
Flags: W
HStem: -15 95<377.084 472.616> 194 93<377.517 472.26> 401 95<306.191 480.382> 608 95<319.372 480.676> 1010 125<306.139 519.706 825.693 1022.65>
VStem: 111 125<182.038 450.032 643.631 934.072> 482 94<89.4394 184.844 497.513 606.487> 609 126<694.568 905.5> 1119 125<169.283 876.67>
AnchorPoint: "+BBEENQQ3BEsEPARPBD0EPQQ+BDUA--3" 1355 1135 basechar 0
AnchorPoint: "+BBEENQQ3BEsEPARPBD0EPQQ+BDUA--2" 678 1135 basechar 0
AnchorPoint: "+BBEENQQ3BEsEPARPBD0EPQQ+BDUA--1" 1355 0 basechar 0
AnchorPoint: "+BBEENQQ3BEsEPARPBD0EPQQ+BDUA--0" 0 0 basechar 0
LayerCount: 2
Fore
SplineSet
186 1018 m 0,0,1
 223 1071 223 1071 285 1103 c 128,-1,2
 347 1135 347 1135 410.725806452 1135 c 128,-1,3
 474.451612903 1135 474.451612903 1135 545.206334963 1104.53616134 c 128,-1,4
 615.961057024 1074.07232267 615.961057024 1074.07232267 672 970 c 1,5,6
 710 1036 710 1036 771.5 1085.5 c 128,-1,7
 833 1135 833 1135 910 1135 c 0,8,9
 1055.30434783 1135 1055.30434783 1135 1126.63979625 1038.48733448 c 128,-1,10
 1197.97524467 941.974668969 1197.97524467 941.974668969 1220.98762234 816.787334485 c 128,-1,11
 1244 691.6 1244 691.6 1244 560 c 0,12,13
 1244 245 1244 245 1156 39 c 0,14,15
 1141 5 1141 5 1128 -5 c 128,-1,16
 1115 -15 1115 -15 1092.5 -15 c 128,-1,17
 1070 -15 1070 -15 1052.5 2.5 c 128,-1,18
 1035 20 1035 20 1035 40 c 128,-1,19
 1035 60 1035 60 1048 95.5 c 128,-1,20
 1061 131 1061 131 1077 176 c 0,21,22
 1119 294.125 1119 294.125 1119 560 c 0,23,24
 1119 884.851351351 1119 884.851351351 1009 978.5 c 0,25,26
 972 1010 972 1010 919 1010 c 128,-1,27
 866 1010 866 1010 821 961 c 0,28,29
 735 867.355555556 735 867.355555556 735 738 c 0,30,31
 735 712 735 712 716.5 694 c 128,-1,32
 698 676 698 676 672 676 c 128,-1,33
 646 676 646 676 627.5 694 c 128,-1,34
 609 712 609 712 609 754.5 c 128,-1,35
 609 797 609 797 587 859 c 128,-1,36
 565 921 565 921 520.5 965.5 c 128,-1,37
 476 1010 476 1010 423 1010 c 0,38,39
 333 1010 333 1010 284.5 941 c 128,-1,40
 236 872 236 872 236 786 c 128,-1,41
 236 700 236 700 251 641 c 1,42,43
 330 703 330 703 408.5 703 c 128,-1,44
 487 703 487 703 531.5 658.5 c 128,-1,45
 576 614 576 614 576 552 c 128,-1,46
 576 490 576 490 531.5 445.5 c 128,-1,47
 487 401 487 401 406 401 c 128,-1,48
 325 401 325 401 253 452 c 1,49,50
 236 401 236 401 236 329 c 128,-1,51
 236 257 236 257 280 180 c 1,52,53
 294 226 294 226 332.5 256.5 c 128,-1,54
 371 287 371 287 429.5 287 c 128,-1,55
 488 287 488 287 532 243 c 128,-1,56
 576 199 576 199 576 136.5 c 128,-1,57
 576 74 576 74 532.5 29.5 c 128,-1,58
 489 -15 489 -15 410.5 -15 c 128,-1,59
 332 -15 332 -15 258.5 39.5 c 128,-1,60
 185 94 185 94 148 176.5 c 128,-1,61
 111 259 111 259 111 356.5 c 128,-1,62
 111 454 111 454 168 546 c 1,63,64
 111 642 111 642 111 776.283783784 c 128,-1,65
 111 910.567567568 111 910.567567568 186 1018 c 0,0,1
482 552 m 256,66,67
 482 575 482 575 465 591.5 c 128,-1,68
 448 608 448 608 425 608 c 0,69,70
 354 608 354 608 302 545 c 1,71,72
 349 496 349 496 425 496 c 0,73,74
 448 496 448 496 465 512.5 c 128,-1,75
 482 529 482 529 482 552 c 256,66,67
425 194 m 256,76,77
 401 194 401 194 384.5 177.5 c 128,-1,78
 368 161 368 161 368 137 c 128,-1,79
 368 113 368 113 384.5 96.5 c 128,-1,80
 401 80 401 80 425 80 c 128,-1,81
 449 80 449 80 465.5 96.5 c 128,-1,82
 482 113 482 113 482 137 c 128,-1,83
 482 161 482 161 465.5 177.5 c 128,-1,84
 449 194 449 194 425 194 c 256,76,77
EndSplineSet
Substitution2: "'ss06' Style Set 6 lookup 17 subtable" uni0E85.2
Substitution2: "'ss05' Style Set 5 lookup 16 subtable" uni0E85.1
EndChar

StartChar: uni0E86
Encoding: 3718 3718 218
Width: 1628
GlyphClass: 2
Flags: W
HStem: -15 125<539.244 801.952 1062.3 1296.36> 755 94<168.635 263.81> 877 92<895.809 965.165> 1035 100<298.516 372.892 550.481 592.073>
VStem: 65 94<858.565 952.827> 273 94<858.571 953.829> 313 125<227.435 580.582> 597 110<829.094 1034.33> 784 92<415.051 873.452> 984 92<407.006 875.033> 1307 121<949.687 1124.68> 1392 125<235.603 932.283>
AnchorPoint: "+BBEENQQ3BEsEPARPBD0EPQQ+BDUA--3" 1628 1135 basechar 0
AnchorPoint: "+BBEENQQ3BEsEPARPBD0EPQQ+BDUA--2" 951 1135 basechar 0
AnchorPoint: "+BBEENQQ3BEsEPARPBD0EPQQ+BDUA--1" 1628 0 basechar 0
AnchorPoint: "+BBEENQQ3BEsEPARPBD0EPQQ+BDUA--0" 0 0 basechar 0
LayerCount: 2
Fore
SplineSet
323.5 799.5 m 128,-1,1
 280 755 280 755 216.5 755 c 128,-1,2
 153 755 153 755 109 799 c 128,-1,3
 65 843 65 843 65 906 c 0,4,5
 65 1135 65 1135 370 1135 c 0,6,7
 416.52173913 1135 416.52173913 1135 447.5 1040 c 0,8,9
 455 1017 455 1017 461 1001 c 1,10,11
 494.070422535 1103.51830986 494.070422535 1103.51830986 515.535211268 1119.25915493 c 128,-1,12
 537 1135 537 1135 555 1135 c 0,13,14
 624 1135 624 1135 665.5 1084 c 128,-1,15
 707 1033 707 1033 707 970.5 c 128,-1,16
 707 908 707 908 692 862 c 128,-1,17
 677 816 677 816 653.5 782.5 c 128,-1,18
 630 749 630 749 601.5 718.5 c 128,-1,19
 573 688 573 688 544 657.5 c 128,-1,20
 515 627 515 627 491.5 594.5 c 0,21,22
 438 520.510638298 438 520.510638298 438 420 c 0,23,24
 438 267.461538462 438 267.461538462 519 174 c 0,25,26
 574.466666667 110 574.466666667 110 684.733333333 110 c 128,-1,27
 795 110 795 110 871 237 c 1,28,29
 784 440 784 440 784 718 c 0,30,31
 784 875.366666667 784 875.366666667 860 942.5 c 0,32,33
 890 969 890 969 931 969 c 128,-1,34
 972 969 972 969 1003 940.5 c 128,-1,35
 1034 912 1034 912 1055 849 c 128,-1,36
 1076 786 1076 786 1076 718 c 0,37,38
 1076 454 1076 454 991 242 c 1,39,40
 1069 110 1069 110 1170.67142857 110 c 128,-1,41
 1272.34285714 110 1272.34285714 110 1320.10962537 182.688560349 c 128,-1,42
 1367.8763936 255.377120698 1367.8763936 255.377120698 1379.9381968 351.00998892 c 128,-1,43
 1392 446.642857143 1392 446.642857143 1392 580.821428571 c 128,-1,44
 1392 715 1392 715 1380.5 792.5 c 128,-1,45
 1369 870 1369 870 1313 1045 c 0,46,47
 1307 1072 1307 1072 1307 1086 c 128,-1,48
 1307 1100 1307 1100 1324.5 1117.5 c 128,-1,49
 1342 1135 1342 1135 1364.5 1135 c 128,-1,50
 1387 1135 1387 1135 1400 1125 c 128,-1,51
 1413 1115 1413 1115 1428 1081 c 0,52,53
 1517 872 1517 872 1517 560 c 0,54,55
 1517 183.257142857 1517 183.257142857 1380 58 c 0,56,57
 1300.15625 -15 1300.15625 -15 1164.078125 -15 c 128,-1,58
 1028 -15 1028 -15 930 126 c 1,59,60
 832 -15 832 -15 685 -15 c 0,61,62
 468.0625 -15 468.0625 -15 368.5 174 c 0,63,64
 313 279.355932203 313 279.355932203 313 390.677966102 c 128,-1,65
 313 502 313 502 342.5 568.5 c 128,-1,66
 372 635 372 635 413.5 679 c 128,-1,67
 455 723 455 723 496.5 763 c 0,68,69
 597 859.86746988 597 859.86746988 597 962 c 0,70,71
 597 979 597 979 587.5 1007 c 128,-1,72
 578 1035 578 1035 570.5 1035 c 128,-1,73
 563 1035 563 1035 554.5 1005 c 128,-1,74
 546 975 546 975 537.5 939.5 c 128,-1,75
 529 904 529 904 508.5 874 c 128,-1,76
 488 844 488 844 460.5 844 c 128,-1,77
 433 844 433 844 413.5 874 c 128,-1,78
 394 904 394 904 379.23943662 969.5 c 128,-1,79
 364.478873239 1035 364.478873239 1035 344 1035 c 2,80,-1
 321.5 1035 l 2,81,82
 310 1035 310 1035 298 1033 c 1,83,84
 367 990 367 990 367 917 c 128,-1,0
 367 844 367 844 323.5 799.5 c 128,-1,1
216 963 m 256,85,86
 192 963 192 963 175.5 946.5 c 128,-1,87
 159 930 159 930 159 906 c 128,-1,88
 159 882 159 882 175.5 865.5 c 128,-1,89
 192 849 192 849 216 849 c 128,-1,90
 240 849 240 849 256.5 865.5 c 128,-1,91
 273 882 273 882 273 906 c 128,-1,92
 273 930 273 930 256.5 946.5 c 128,-1,93
 240 963 240 963 216 963 c 256,85,86
970 814.5 m 128,-1,95
 956 877 956 877 931.5 877 c 128,-1,96
 907 877 907 877 891.5 819.5 c 128,-1,97
 876 762 876 762 876 718 c 0,98,99
 876 547 876 547 932 379 c 1,100,101
 984 550 984 550 984 718 c 0,102,94
 984 752 984 752 970 814.5 c 128,-1,95
EndSplineSet
Substitution2: "'ss05' Style Set 5 lookup 16 subtable" uni0E86.1
EndChar

StartChar: uni0E87
Encoding: 3719 3719 219
Width: 1074
GlyphClass: 2
Flags: W
HStem: -396 126<332.378 658.312> 594 94<168.635 263.81> 802 94<214.633 255.983> 1010 125<297.1 666.375>
VStem: 65 95<705.017 799.63> 273 94<697.23 792.41> 838 125<-17.4831 790.055>
AnchorPoint: "+BBEENQQ3BEsEPARPBD0EPQQ+BDUA--3" 1074 1135 basechar 0
AnchorPoint: "+BBEENQQ3BEsEPARPBD0EPQQ+BDUA--2" 494 1135 basechar 0
AnchorPoint: "+BBEENQQ3BEsEPARPBD0EPQQ+BDUA--1" 1074 -250 basechar 0
AnchorPoint: "+BBEENQQ3BEsEPARPBD0EPQQ+BDUA--0" 0 0 basechar 0
LayerCount: 2
Fore
SplineSet
323.5 638.5 m 128,-1,1
 280 594 280 594 216.5 594 c 128,-1,2
 153 594 153 594 109 638 c 128,-1,3
 65 682 65 682 65 745 c 0,4,5
 65 865 65 865 126 955.5 c 128,-1,6
 187 1046 187 1046 283 1090.5 c 128,-1,7
 379 1135 379 1135 478.5 1135 c 0,8,9
 739.842105263 1135 739.842105263 1135 851.421052632 958.333333333 c 128,-1,10
 963 781.666666667 963 781.666666667 963 449.495495495 c 128,-1,11
 963 117.324324324 963 117.324324324 917.140065147 -46.2840919095 c 128,-1,12
 871.280130293 -209.892508143 871.280130293 -209.892508143 773.056731813 -302.946254072 c 128,-1,13
 674.833333333 -396 674.833333333 -396 493.111111111 -396 c 128,-1,14
 311.388888889 -396 311.388888889 -396 173.5 -260 c 0,15,16
 101.037269026 -188.529909176 101.037269026 -188.529909176 144 -132 c 0,17,18
 162 -113 162 -113 192.111111111 -113 c 128,-1,19
 222.222222222 -113 222.222222222 -113 256.423757481 -160.355971897 c 128,-1,20
 290.62529274 -207.711943794 290.62529274 -207.711943794 357.31264637 -238.855971897 c 128,-1,21
 424 -270 424 -270 494.5 -270 c 0,22,23
 682.057142857 -270 682.057142857 -270 760.028571429 -109.470588235 c 128,-1,24
 838 51.0588235294 838 51.0588235294 838 345.440522876 c 128,-1,25
 838 639.822222222 838 639.822222222 807.5 746.911111111 c 128,-1,26
 777 854 777 854 738.5 903 c 0,27,28
 654.428571429 1010 654.428571429 1010 481.714285714 1010 c 128,-1,29
 309 1010 309 1010 214 896 c 1,30,31
 276 896 276 896 321.5 853 c 128,-1,32
 367 810 367 810 367 746.5 c 128,-1,0
 367 683 367 683 323.5 638.5 c 128,-1,1
216 802 m 0,33,34
 172 802 172 802 160 758 c 1,35,-1
 160 745 l 1,36,-1
 159 745 l 1,37,38
 159 721 159 721 175.5 704.5 c 128,-1,39
 192 688 192 688 216 688 c 128,-1,40
 240 688 240 688 256.5 704.5 c 128,-1,41
 273 721 273 721 273 745 c 128,-1,42
 273 769 273 769 256.5 785.5 c 128,-1,43
 240 802 240 802 216 802 c 0,33,34
EndSplineSet
EndChar

